<?xml version="1.0" encoding="UTF-8"?>
<!DOCTYPE svg PUBLIC "-//W3C//DTD SVG 1.1//EN" "http://www.w3.org/Graphics/SVG/1.1/DTD/svg11.dtd">
<!-- Creator: CorelDRAW 2018 (64 Bit) -->
<svg xmlns="http://www.w3.org/2000/svg" xml:space="preserve" width="473px" height="473px" version="1.1" style="shape-rendering:geometricPrecision; text-rendering:geometricPrecision; image-rendering:optimizeQuality; fill-rule:evenodd; clip-rule:evenodd"
viewBox="0 0 1717.44 1717.24"
 xmlns:xlink="http://www.w3.org/1999/xlink">
 <defs>
  <style type="text/css">
   <![CDATA[
    .fil0 {fill:#E30613}
    .fil1 {fill:white;fill-rule:nonzero}
   ]]>
  </style>
   <mask id="id0">
  <linearGradient id="id1" gradientUnits="userSpaceOnUse" x1="1004.96" y1="-74.58" x2="991.31" y2="-1639.67">
   <stop offset="0" style="stop-opacity:1; stop-color:white"/>
   <stop offset="1" style="stop-opacity:0; stop-color:white"/>
  </linearGradient>
    <rect style="fill:url(#id1)" x="0.82" y="0.02" width="1716.56" height="1716.57"/>
   </mask>
 </defs>
 <g id="Ebene_x0020_1">
  <metadata id="CorelCorpID_0Corel-Layer"/>
  <path class="fil0" style="mask:url(#id0)" d="M139.16 1716.59l1439.88 0c76.1,0 138.34,-62.25 138.34,-138.34l0 -1439.89c0,-76.09 -62.24,-138.34 -138.34,-138.34l-1439.88 0c-76.09,0 -138.34,62.25 -138.34,138.34l0 1439.89c0,76.09 62.25,138.34 138.34,138.34z"/>
  <path class="fil1" d="M371.18 1193.97l159.77 438.96 92.45 -33.65c72.97,-26.56 75.38,-45.19 48.42,-119.25l-94.64 -260.03c-27.15,-74.6 -41.66,-85.85 -114.1,-59.48l-91.9 33.45zm96 29.95l5.4 -1.97c17.31,-6.3 19.81,-1.08 26.5,17.3l100.94 277.32c6.3,17.3 7.92,23.44 -8.3,29.34l-6.48 2.36 -118.06 -324.35z"/>
  <path id="1" class="fil1" d="M805.15 1220.29c-19.09,-52.44 -36.45,-81.63 -76.45,-67.07 -10.81,3.94 -22.7,15 -29.38,30.28l-5.51 -15.13 -64.33 23.41 130.26 357.88 64.33 -23.42 -105.43 -289.67c-3.97,-10.9 -4.52,-17.43 4.13,-20.58 8.11,-2.95 12.44,2.21 16.57,13.56l27.94 76.76 61.09 -22.23 -23.22 -63.79z"/>
  <path id="2" class="fil1" d="M791.44 1041l18.7 51.36 64.33 -23.42 -18.69 -51.35 -64.34 23.41zm29.52 81.09l130.25 357.87 64.34 -23.41 -130.26 -357.87 -64.33 23.41z"/>
  <polygon id="3" class="fil1" points="930.27,1082.31 1099.44,1426.01 1174.05,1398.86 1083.26,1026.62 1020.55,1049.45 1095.28,1293.46 1092.57,1294.44 992.97,1059.48 "/>
  <path id="4" class="fil1" d="M1257.3 1178.16l85.42 -31.09 -44.67 -122.71c-20.86,-57.31 -41.4,-63.29 -100.33,-41.85 -61.08,22.24 -69.88,40.13 -49.41,96.35l81.65 224.35c20.66,56.76 40.13,63.14 98.51,41.89 61.09,-22.23 72.09,-39.09 51.24,-96.4l-24.01 -65.95 -64.87 23.61 24.2 66.5c4.13,11.35 5.61,18.77 -3.58,22.11 -8.11,2.96 -12.44,-2.2 -16.96,-14.64l-37.19 -102.17zm-18.1 -49.74l-26.96 -74.05c-4.33,-11.89 -4.87,-18.43 4.32,-21.78 8.11,-2.95 12.29,3.49 16.23,14.3l26.95 74.06 -20.54 7.47z"/>
  <path id="5" class="fil1" d="M1501.33 966.9c-19.09,-52.44 -36.45,-81.62 -76.45,-67.07 -10.81,3.94 -22.7,15 -29.38,30.29l-5.51 -15.14 -64.33 23.42 130.25 357.87 64.34 -23.41 -105.43 -289.67c-3.97,-10.91 -4.52,-17.45 4.13,-20.59 8.11,-2.95 12.44,2.21 16.57,13.56l27.94 76.76 61.09 -22.23 -23.22 -63.79z"/>
  <path class="fil1" d="M1717.44 1339.18l-1039.47 378.06 -140.95 0 1180.42 -429.36 0 51.3zm-1300.93 378.06l-416.51 -1144.33 0 -145.33 1173.45 -427.58 140.91 0 -1299.28 473.39 452.73 1243.85 -51.3 0z"/>
 </g>
</svg>
