<?xml version="1.0" encoding="UTF-8"?>
<!DOCTYPE svg PUBLIC "-//W3C//DTD SVG 1.1//EN" "http://www.w3.org/Graphics/SVG/1.1/DTD/svg11.dtd">
<!-- Creator: CorelDRAW 2018 (64 Bit) -->
<svg xmlns="http://www.w3.org/2000/svg" xml:space="preserve" width="2220px" height="726px" version="1.1" style="shape-rendering:geometricPrecision; text-rendering:geometricPrecision; image-rendering:optimizeQuality; fill-rule:evenodd; clip-rule:evenodd"
viewBox="0 0 2206.68 721.97"
 xmlns:xlink="http://www.w3.org/1999/xlink">
 <defs>
  <style type="text/css">
   <![CDATA[
    .fil2 {fill:#2B2A29;fill-rule:nonzero}
    .fil1 {fill:#2B2A29;fill-rule:nonzero}
    .fil0 {fill:#E31E24;fill-rule:nonzero}
   ]]>
  </style>
 </defs>
 <g id="Ebene_x0020_1">
  <metadata id="CorelCorpID_0Corel-Layer"/>
  <g id="_1764219514992">
   <polygon class="fil0" points="562.36,524.85 0,524.85 0,1.02 562.36,1.02 562.36,18.51 17.5,18.51 17.5,507.36 562.36,507.36 "/>
   <path class="fil1" d="M461.21 436.66l59.08 0 0 -234.94c0,-104.42 -74.19,-120.91 -184.11,-120.91l-93.43 0c-105.79,0 -146.32,26.11 -146.32,89.99l0 17.17 59.08 0 0 -12.36c0,-28.85 14.43,-46.72 88.62,-46.72l86.56 0c90.68,0 130.53,8.25 130.53,71.45l0 65.95 -1.37 0c-20.61,-33.67 -48.1,-41.91 -125.03,-41.91l-94.8 0c-103.04,0 -159.38,9.62 -159.38,89.3l0 23.36c0,65.95 23.35,105.1 112.66,105.1l141.52 0c90.67,0 109.23,-8.93 125.02,-40.53l1.37 0 0 35.03 0 0.02zm0 -94.12c0,43.96 -41.22,51.52 -148.39,51.52l-78.31 0c-81.07,0 -94.8,-16.49 -94.8,-55.64l0 -10.99c0,-43.97 21.3,-54.96 97.56,-54.96l90.67 0c90.68,0 133.28,6.18 133.28,54.27l0 15.8 -0.01 0z"/>
   <polygon class="fil1" points="1854.71,404.02 1854.66,434.64 1763.76,434.64 1763.8,404.02 "/>
   <polygon class="fil1" points="1854.76,363.22 1854.72,393.82 1763.82,393.82 1763.87,363.22 "/>
   <polygon class="fil1" points="2096.47,353.01 1763.88,353.01 1763.92,322.4 2070.85,322.4 "/>
   <polygon class="fil1" points="1854.94,240.78 1854.9,271.39 1764,271.39 1764.05,240.78 "/>
   <polygon class="fil1" points="2062.31,312.2 1763.93,312.2 1763.98,281.59 2036.69,281.59 "/>
   <polygon class="fil1" points="2164.79,434.64 2073.89,434.64 2048.27,404.02 2139.17,404.02 "/>
   <polygon class="fil1" points="1855.01,199.97 1854.96,230.57 1764.06,230.57 1764.1,199.97 "/>
   <polygon class="fil1" points="2130.64,393.82 2039.73,393.82 2014.12,363.22 2105.01,363.22 "/>
   <polygon class="fil1" points="2028.15,271.39 1937.25,271.39 1911.63,240.78 2002.53,240.78 "/>
   <polygon class="fil1" points="1959.82,189.76 1868.92,189.76 1854.94,172.92 1855.02,189.76 1764.12,189.76 1764.16,159.15 1934.21,159.15 "/>
   <polygon class="fil1" points="1993.99,230.57 1903.09,230.57 1877.46,199.97 1968.37,199.97 "/>
   <polygon class="fil1" points="1925.67,148.95 1764.18,148.95 1764.23,118.34 1900.05,118.34 "/>
   <polygon class="fil1" points="1891.51,108.13 1764.24,108.13 1764.29,77.53 1865.88,77.53 "/>
   <polygon class="fil1" points="1462.12,434.64 1381.92,434.64 1381.92,404.02 1462.12,404.02 "/>
   <polygon class="fil1" points="1462.12,393.82 1381.92,393.82 1381.92,363.22 1462.12,363.22 "/>
   <polygon class="fil1" points="1462.12,353.01 1381.92,353.01 1381.92,322.4 1462.12,322.4 "/>
   <polygon class="fil1" points="1462.12,312.2 1381.92,312.2 1381.92,281.59 1462.12,281.59 "/>
   <polygon class="fil1" points="1462.12,271.39 1381.92,271.39 1381.92,240.78 1462.12,240.78 "/>
   <polygon class="fil1" points="1702.75,434.64 1622.53,434.64 1599.54,404.02 1702.75,404.02 "/>
   <polygon class="fil1" points="1702.75,393.82 1592.06,393.82 1569.07,363.22 1702.75,363.22 "/>
   <polygon class="fil1" points="1576.55,230.57 1469.6,230.57 1462.12,220.37 1462.12,230.57 1381.92,230.57 1381.92,199.97 1553.56,199.97 "/>
   <polygon class="fil1" points="1702.75,353.01 1561.58,353.01 1538.59,322.4 1702.75,322.4 "/>
   <polygon class="fil1" points="1607.02,271.39 1500.09,271.39 1477.63,240.78 1584.57,240.78 "/>
   <polygon class="fil1" points="1546.07,189.76 1381.92,189.76 1381.92,159.15 1523.08,159.15 "/>
   <polygon class="fil1" points="1702.75,312.2 1531.1,312.2 1508.1,281.59 1615.05,281.59 1622.53,291.8 1622.53,281.59 1702.75,281.59 "/>
   <polygon class="fil1" points="1515.6,148.95 1381.92,148.95 1381.92,118.34 1492.59,118.34 "/>
   <polygon class="fil1" points="1485.11,108.13 1381.92,108.13 1381.92,77.53 1462.12,77.53 "/>
   <polygon class="fil1" points="1702.75,271.39 1622.53,271.39 1622.53,240.78 1702.75,240.78 "/>
   <polygon class="fil1" points="1702.75,230.57 1622.53,230.57 1622.53,199.97 1702.75,199.97 "/>
   <polygon class="fil1" points="1702.75,189.76 1622.53,189.76 1622.53,159.15 1702.75,159.15 "/>
   <polygon class="fil1" points="1702.75,148.95 1622.53,148.95 1622.53,118.34 1702.75,118.34 "/>
   <polygon class="fil1" points="1702.75,108.13 1622.53,108.13 1622.53,77.53 1702.75,77.53 "/>
   <polygon class="fil1" points="1081.35,353.01 1001.15,353.01 1001.15,322.4 1081.35,322.4 "/>
   <path class="fil1" d="M1317.7 404.02c-9.27,20.41 -25.66,30.61 -49.2,30.61l-213.88 0c-23.52,0 -39.92,-10.2 -49.19,-30.61l312.27 0z"/>
   <polygon class="fil1" points="1081.35,312.2 1001.15,312.2 1001.15,281.59 1081.35,281.59 "/>
   <path class="fil1" d="M1321.98 383.62c0,3.4 -0.35,6.8 -1.07,10.2l-318.69 0c-0.72,-3.4 -1.08,-6.8 -1.08,-10.2l0 -20.4 320.83 0 0 20.4 0.01 0z"/>
   <polygon class="fil1" points="1081.35,271.39 1001.15,271.39 1001.15,240.78 1081.35,240.78 "/>
   <polygon class="fil1" points="1081.35,230.57 1001.15,230.57 1001.15,199.97 1081.35,199.97 "/>
   <polygon class="fil1" points="1081.35,189.76 1001.15,189.76 1001.15,159.15 1081.35,159.15 "/>
   <polygon class="fil1" points="1321.98,353.01 1241.77,353.01 1241.77,322.4 1321.98,322.4 "/>
   <polygon class="fil1" points="1321.98,312.2 1241.77,312.2 1241.77,281.59 1321.98,281.59 "/>
   <polygon class="fil1" points="1321.98,271.39 1241.77,271.39 1241.77,240.78 1321.98,240.78 "/>
   <path class="fil1" d="M1321.98 148.95l-320.83 0 0 -20.41c0,-3.4 0.35,-6.79 1.07,-10.2l318.69 0c0.72,3.41 1.08,6.8 1.08,10.2l0 20.41 -0.01 0z"/>
   <polygon class="fil1" points="1321.98,230.57 1241.77,230.57 1241.77,199.97 1321.98,199.97 "/>
   <path class="fil1" d="M1317.7 108.13l-312.27 0c9.27,-20.4 25.66,-30.6 49.19,-30.6l213.88 0c23.53,0 39.93,10.2 49.2,30.6z"/>
   <polygon class="fil1" points="1321.98,189.76 1241.77,189.76 1241.77,159.15 1321.98,159.15 "/>
   <polygon class="fil1" points="700.6,353.01 620.38,353.01 620.38,322.4 700.6,322.4 "/>
   <path class="fil1" d="M936.93 404.02c-9.27,20.41 -25.66,30.61 -49.19,30.61l-267.36 0 0 -30.61 316.54 0 0.01 0z"/>
   <polygon class="fil1" points="700.6,312.2 620.38,312.2 620.38,281.59 700.6,281.59 "/>
   <path class="fil1" d="M941.21 383.62c0,3.4 -0.36,6.8 -1.07,10.2l-319.76 0 0 -30.6 320.83 0 0 20.4 0 0z"/>
   <polygon class="fil1" points="700.6,189.76 620.38,189.76 620.38,159.15 700.6,159.15 "/>
   <path class="fil1" d="M936.93 271.39l-316.54 0 0 -30.61 267.36 0c23.52,0 39.92,10.2 49.19,30.61l-0.01 0z"/>
   <polygon class="fil1" points="941.21,353.01 861,353.01 861,322.4 941.21,322.4 "/>
   <path class="fil1" d="M936.93 199.97c-9.27,20.4 -25.66,30.61 -49.19,30.61l-267.36 0 0 -30.61 316.54 0 0.01 0z"/>
   <path class="fil1" d="M941.21 312.2l-80.21 0 0 -30.61 79.14 0c0.71,3.4 1.07,6.8 1.07,10.2l0 20.4 0 0.01z"/>
   <path class="fil1" d="M941.21 148.95l-320.83 0 0 -30.61 319.76 0c0.72,3.41 1.07,6.8 1.07,10.2l0 20.41z"/>
   <path class="fil1" d="M936.93 108.13l-316.54 0 0 -30.6 267.36 0c23.52,0 39.92,10.2 49.19,30.6l-0.01 0z"/>
   <path class="fil1" d="M941.21 179.56c0,3.4 -0.36,6.8 -1.07,10.2l-79.14 0 0 -30.61 80.22 0 0 20.41 -0.01 0z"/>
   <polygon class="fil1" points="620.38,507.85 2189.56,507.61 2189.56,18.33 620.38,17.12 620.38,0 2206.68,1.21 2206.68,524.62 620.38,524.9 "/>
   <path class="fil1" d="M2108.58 77.09c9.49,0 18.75,2.43 27.81,7.31 9.03,4.86 16.09,11.85 21.13,20.9 5.03,9.08 7.57,18.54 7.57,28.36 0,9.75 -2.48,19.14 -7.47,28.12 -4.96,9 -11.91,15.98 -20.89,20.95 -8.97,4.98 -18.37,7.46 -28.14,7.46 -9.8,0 -19.18,-2.48 -28.16,-7.46 -8.97,-4.97 -15.96,-11.95 -20.95,-20.95 -4.98,-8.98 -7.49,-18.36 -7.49,-28.12 0,-9.82 2.53,-19.28 7.6,-28.36 5.09,-9.05 12.14,-16.05 21.18,-20.9 9.05,-4.89 18.31,-7.31 27.82,-7.31l-0.01 0zm0 9.36c-7.96,0 -15.71,2.05 -23.22,6.12 -7.52,4.06 -13.41,9.9 -17.65,17.47 -4.25,7.57 -6.37,15.45 -6.37,23.63 0,8.16 2.09,15.97 6.26,23.43 4.17,7.47 10.01,13.3 17.5,17.47 7.49,4.17 15.32,6.26 23.48,6.26 8.13,0 15.96,-2.09 23.45,-6.26 7.5,-4.17 13.33,-10.01 17.48,-17.47 4.14,-7.46 6.21,-15.27 6.21,-23.43 0,-8.18 -2.13,-16.06 -6.35,-23.63 -4.21,-7.57 -10.1,-13.41 -17.64,-17.47 -7.54,-4.07 -15.27,-6.12 -23.14,-6.12l-0.01 0zm-24.83 78.42l0 -60.77 20.92 0c7.16,0 12.33,0.56 15.53,1.69 3.22,1.13 5.75,3.07 7.67,5.88 1.9,2.8 2.84,5.76 2.84,8.9 0,4.43 -1.59,8.31 -4.79,11.59 -3.17,3.3 -7.38,5.14 -12.66,5.55 2.15,0.89 3.89,1.97 5.17,3.22 2.46,2.38 5.45,6.39 9,12.05l7.42 11.89 -11.92 0 -5.42 -9.57c-4.25,-7.54 -7.7,-12.28 -10.3,-14.17 -1.79,-1.38 -4.4,-2.07 -7.86,-2.04l-5.78 0 0 25.78 -9.82 0 0 0zm9.82 -34.23l11.91 0c5.71,0 9.6,-0.84 11.67,-2.53 2.07,-1.69 3.12,-3.94 3.12,-6.71 0,-1.79 -0.51,-3.4 -1.51,-4.8 -0.99,-1.44 -2.37,-2.48 -4.14,-3.18 -1.79,-0.69 -5.06,-1.04 -9.88,-1.04l-11.17 0 0 18.26z"/>
  </g>
  <path class="fil2" d="M5.28 720.31l0 -117.81 34.22 0c14.39,0 26.29,4.81 35.68,14.42 9.39,9.58 14.08,21.92 14.08,36.95l0 15.13c0,15.11 -4.69,27.45 -14.08,36.98 -9.39,9.56 -21.29,14.33 -35.68,14.33l-34.22 0zm9.61 -109.52l0 101.24 24.61 0c11.65,0 21.23,-4.06 28.75,-12.21 7.53,-8.12 11.29,-18.42 11.29,-30.84l0 -15.36c0,-12.29 -3.78,-22.51 -11.32,-30.63 -7.57,-8.14 -17.12,-12.2 -28.72,-12.2l-24.61 0z"/>
  <polygon id="1" class="fil2" points="287.17,663.31 230.45,663.31 230.45,712.03 295.43,712.03 295.43,720.31 220.84,720.31 220.84,602.5 295.02,602.5 295.02,610.79 230.45,610.79 230.45,655.03 287.17,655.03 "/>
  <path id="2" class="fil2" d="M505.46 602.5l0 79.84c0,12.84 -3.92,22.65 -11.76,29.44 -7.85,6.79 -18.09,10.19 -30.71,10.19 -12.46,0 -22.57,-3.42 -30.27,-10.24 -7.7,-6.83 -11.57,-16.6 -11.57,-29.39l0 -79.84 9.72 0 0 79.76c0,10.02 2.96,17.76 8.89,23.22 5.94,5.47 13.67,8.21 23.23,8.21 9.69,0 17.62,-2.74 23.69,-8.18 6.11,-5.44 9.14,-13.17 9.14,-23.25l0 -79.76 9.64 0z"/>
  <polygon id="3" class="fil2" points="720.03,610.79 679.48,610.79 679.48,720.31 669.79,720.31 669.79,610.79 629.25,610.79 629.25,602.5 720.03,602.5 "/>
  <path id="4" class="fil2" d="M912.11 691.34c0,-6.4 -2.41,-11.62 -7.21,-15.68 -4.81,-4.06 -13.15,-7.65 -25.08,-10.77 -12.89,-3.23 -22.64,-7.43 -29.27,-12.62 -6.66,-5.17 -9.97,-12.15 -9.97,-20.94 0,-9 3.7,-16.35 11.13,-22.01 7.43,-5.66 16.96,-8.47 28.61,-8.47 12.12,0 21.93,3.36 29.36,10.1 7.45,6.74 11.07,14.97 10.85,24.69l-0.25 0.47 -8.89 0c0,-7.84 -2.79,-14.33 -8.4,-19.39 -5.57,-5.05 -13.14,-7.59 -22.67,-7.59 -9.44,0 -16.82,2.1 -22.15,6.32 -5.3,4.23 -7.95,9.48 -7.95,15.75 0,5.96 2.46,10.9 7.34,14.88 4.92,3.98 13.4,7.49 25.41,10.52 12.68,3.23 22.32,7.57 28.94,13.07 6.61,5.46 9.92,12.7 9.92,21.67 0,9.34 -3.87,16.8 -11.55,22.32 -7.67,5.55 -17.48,8.31 -29.41,8.31 -11.76,0 -22.01,-2.95 -30.79,-8.86 -8.75,-5.91 -13.01,-14.53 -12.73,-25.85l0.17 -0.47 8.89 0c0,9.11 3.42,15.88 10.27,20.3 6.85,4.39 14.91,6.6 24.19,6.6 9.34,0 16.88,-2.05 22.62,-6.13 5.75,-4.09 8.62,-9.5 8.62,-16.22z"/>
  <path id="5" class="fil2" d="M1132.25 683.45l0.17 0.49c-1.03,11.82 -5.25,21.1 -12.63,27.87 -7.4,6.76 -17.28,10.16 -29.68,10.16 -13.12,0 -23.7,-4.72 -31.73,-14.19 -8.04,-9.45 -12.05,-21.71 -12.05,-36.76l0 -19.14c0,-14.99 4.01,-27.26 12.05,-36.76 8.03,-9.53 18.61,-14.27 31.73,-14.27 12.51,0 22.42,3.31 29.77,9.94 7.32,6.65 11.51,15.96 12.54,28l-0.17 0.5 -9.06 0c-1.3,-9.78 -4.64,-17.24 -10.08,-22.4 -5.41,-5.16 -13.09,-7.76 -23,-7.76 -10.3,0 -18.59,3.98 -24.8,11.96 -6.24,7.95 -9.37,18.14 -9.37,30.6l0 19.27c0,12.62 3.13,22.87 9.37,30.82 6.21,7.93 14.5,11.91 24.8,11.91 9.91,0 17.59,-2.52 23.06,-7.57 5.44,-5.05 8.78,-12.62 10.02,-22.67l9.06 0z"/>
  <polygon id="6" class="fil2" points="1350.4,720.31 1340.76,720.31 1340.76,666.13 1273.77,666.13 1273.77,720.31 1264.16,720.31 1264.16,602.5 1273.77,602.5 1273.77,657.85 1340.76,657.85 1340.76,602.5 1350.4,602.5 "/>
  <polygon id="7" class="fil2" points="1497.8,712.03 1556.07,712.03 1556.07,720.31 1488.11,720.31 1488.11,602.5 1497.8,602.5 "/>
  <path id="8" class="fil2" d="M1747.02 687.51l-53.96 0 -12.15 32.8 -10.03 0 44.74 -117.81 9.14 0 44.41 117.81 -10.02 0 -12.13 -32.8zm-50.73 -8.62l47.56 0 -23.45 -63.85 -0.5 0 -23.61 63.85z"/>
  <polygon id="9" class="fil2" points="1980.75,720.31 1971.14,720.31 1904.23,619.02 1903.73,619.1 1903.73,720.31 1894.04,720.31 1894.04,602.5 1903.73,602.5 1970.64,703.63 1971.14,703.58 1971.14,602.5 1980.75,602.5 "/>
  <path id="10" class="fil2" d="M2118.48 720.31l0 -117.81 34.22 0c14.39,0 26.29,4.81 35.68,14.42 9.39,9.58 14.09,21.92 14.09,36.95l0 15.13c0,15.11 -4.7,27.45 -14.09,36.98 -9.39,9.56 -21.29,14.33 -35.68,14.33l-34.22 0zm9.62 -109.52l0 101.24 24.6 0c11.66,0 21.24,-4.06 28.75,-12.21 7.54,-8.12 11.3,-18.42 11.3,-30.84l0 -15.36c0,-12.29 -3.79,-22.51 -11.33,-30.63 -7.56,-8.14 -17.12,-12.2 -28.72,-12.2l-24.6 0z"/>
 </g>
</svg>
