<?xml version="1.0" encoding="UTF-8"?>
<!DOCTYPE svg PUBLIC "-//W3C//DTD SVG 1.1//EN" "http://www.w3.org/Graphics/SVG/1.1/DTD/svg11.dtd">
<!-- Creator: CorelDRAW 2017 -->
<svg xmlns="http://www.w3.org/2000/svg" xml:space="preserve" width="96.1323mm" height="22.8669mm" version="1.1" shape-rendering="geometricPrecision" text-rendering="geometricPrecision" image-rendering="optimizeQuality" fill-rule="evenodd" clip-rule="evenodd"
viewBox="0 0 4751.85 1130.32"
 xmlns:xlink="http://www.w3.org/1999/xlink">
 <g id="Ebene_x0020_1">
  <metadata id="CorelCorpID_0Corel-Layer"/>
  <polygon fill="#E31E24" fill-rule="nonzero" points="1210.97,1130.23 -0,1130.23 -0,2.19 1210.97,2.19 1210.97,39.86 37.67,39.86 37.67,1092.56 1210.97,1092.56 "/>
  <path fill="#2B2A29" fill-rule="nonzero" d="M993.2 940.3l127.22 0 0 -505.95c0,-224.86 -159.77,-260.37 -396.47,-260.37l-201.2 0c-227.82,0 -315.11,56.22 -315.11,193.8l0 36.98 127.23 0 0 -26.63c0,-62.13 31.07,-100.6 190.84,-100.6l186.4 0c195.27,0 281.08,17.75 281.08,153.86l0 142.02 -2.96 0c-44.38,-72.49 -103.56,-90.24 -269.25,-90.24l-204.15 0c-221.91,0 -343.22,20.71 -343.22,192.32l0 50.3c0,142.02 50.3,226.34 242.62,226.34l304.75 0c195.28,0 235.22,-19.23 269.25,-87.28l2.96 0 0 75.45zm0 -202.67c0,94.68 -88.76,110.95 -319.55,110.95l-168.65 0c-174.57,0 -204.16,-35.51 -204.16,-119.83l0 -23.67c0,-94.68 45.86,-118.35 210.07,-118.35l195.27 0c195.28,0 287,13.31 287,116.87l0 34.03z"/>
  <polygon fill="#727271" fill-rule="nonzero" points="3993.91,870.04 3993.81,935.95 3798.07,935.95 3798.16,870.04 "/>
  <polygon fill="#727271" fill-rule="nonzero" points="3994.05,782.15 3993.95,848.07 3798.2,848.07 3798.3,782.15 "/>
  <polygon fill="#727271" fill-rule="nonzero" points="4514.54,760.18 3798.33,760.18 3798.43,694.26 4459.36,694.26 "/>
  <polygon fill="#727271" fill-rule="nonzero" points="3994.43,518.49 3994.34,584.4 3798.59,584.4 3798.69,518.49 "/>
  <polygon fill="#727271" fill-rule="nonzero" points="4440.97,672.29 3798.46,672.29 3798.56,606.38 4385.8,606.38 "/>
  <polygon fill="#727271" fill-rule="nonzero" points="4661.66,935.95 4465.91,935.95 4410.74,870.04 4606.49,870.04 "/>
  <polygon fill="#727271" fill-rule="nonzero" points="3994.57,430.61 3994.47,496.52 3798.72,496.52 3798.82,430.61 "/>
  <polygon fill="#727271" fill-rule="nonzero" points="4588.1,848.07 4392.35,848.07 4337.18,782.15 4532.92,782.15 "/>
  <polygon fill="#727271" fill-rule="nonzero" points="4367.41,584.4 4171.66,584.4 4116.49,518.49 4312.23,518.49 "/>
  <polygon fill="#727271" fill-rule="nonzero" points="4220.28,408.64 4024.54,408.64 3994.42,372.38 3994.6,408.64 3798.86,408.64 3798.95,342.72 4165.11,342.72 "/>
  <polygon fill="#727271" fill-rule="nonzero" points="4293.85,496.52 4098.1,496.52 4042.93,430.61 4238.68,430.61 "/>
  <polygon fill="#727271" fill-rule="nonzero" points="4146.73,320.75 3798.98,320.75 3799.08,254.83 4091.55,254.83 "/>
  <polygon fill="#727271" fill-rule="nonzero" points="4073.15,232.86 3799.11,232.86 3799.21,166.95 4017.98,166.95 "/>
  <polygon fill="#727271" fill-rule="nonzero" points="3148.52,935.95 2975.81,935.95 2975.81,870.04 3148.52,870.04 "/>
  <polygon fill="#727271" fill-rule="nonzero" points="3148.52,848.07 2975.81,848.07 2975.81,782.15 3148.52,782.15 "/>
  <polygon fill="#727271" fill-rule="nonzero" points="3148.52,760.18 2975.81,760.18 2975.81,694.26 3148.52,694.26 "/>
  <polygon fill="#727271" fill-rule="nonzero" points="3148.52,672.29 2975.81,672.29 2975.81,606.38 3148.52,606.38 "/>
  <polygon fill="#727271" fill-rule="nonzero" points="3148.52,584.4 2975.81,584.4 2975.81,518.49 3148.52,518.49 "/>
  <polygon fill="#727271" fill-rule="nonzero" points="3666.68,935.95 3493.96,935.95 3444.45,870.04 3666.68,870.04 "/>
  <polygon fill="#727271" fill-rule="nonzero" points="3666.68,848.07 3428.33,848.07 3378.81,782.15 3666.68,782.15 "/>
  <polygon fill="#727271" fill-rule="nonzero" points="3394.94,496.52 3164.64,496.52 3148.52,474.55 3148.52,496.52 2975.81,496.52 2975.81,430.61 3345.43,430.61 "/>
  <polygon fill="#727271" fill-rule="nonzero" points="3666.68,760.18 3362.69,760.18 3313.18,694.26 3666.68,694.26 "/>
  <polygon fill="#727271" fill-rule="nonzero" points="3460.57,584.4 3230.28,584.4 3181.92,518.49 3412.21,518.49 "/>
  <polygon fill="#727271" fill-rule="nonzero" points="3329.3,408.64 2975.81,408.64 2975.81,342.72 3279.79,342.72 "/>
  <polygon fill="#727271" fill-rule="nonzero" points="3666.68,672.29 3297.06,672.29 3247.55,606.38 3477.84,606.38 3493.96,628.35 3493.96,606.38 3666.68,606.38 "/>
  <polygon fill="#727271" fill-rule="nonzero" points="3263.67,320.75 2975.81,320.75 2975.81,254.83 3214.15,254.83 "/>
  <polygon fill="#727271" fill-rule="nonzero" points="3198.04,232.86 2975.81,232.86 2975.81,166.95 3148.52,166.95 "/>
  <polygon fill="#727271" fill-rule="nonzero" points="3666.68,584.4 3493.96,584.4 3493.96,518.49 3666.68,518.49 "/>
  <polygon fill="#727271" fill-rule="nonzero" points="3666.68,496.52 3493.96,496.52 3493.96,430.61 3666.68,430.61 "/>
  <polygon fill="#727271" fill-rule="nonzero" points="3666.68,408.64 3493.96,408.64 3493.96,342.72 3666.68,342.72 "/>
  <polygon fill="#727271" fill-rule="nonzero" points="3666.68,320.75 3493.96,320.75 3493.96,254.83 3666.68,254.83 "/>
  <polygon fill="#727271" fill-rule="nonzero" points="3666.68,232.86 3493.96,232.86 3493.96,166.95 3666.68,166.95 "/>
  <polygon fill="#727271" fill-rule="nonzero" points="2328.59,760.18 2155.87,760.18 2155.87,694.26 2328.59,694.26 "/>
  <path fill="#727271" fill-rule="nonzero" d="M2837.53 870.04c-19.96,43.94 -55.27,65.91 -105.93,65.91l-460.58 0c-50.66,0 -85.98,-21.97 -105.93,-65.91l672.44 0z"/>
  <polygon fill="#727271" fill-rule="nonzero" points="2328.59,672.29 2155.87,672.29 2155.87,606.38 2328.59,606.38 "/>
  <path fill="#727271" fill-rule="nonzero" d="M2846.74 826.09c0,7.33 -0.77,14.65 -2.3,21.98l-686.27 0c-1.53,-7.33 -2.3,-14.65 -2.3,-21.98l0 -43.94 690.87 0 0 43.94z"/>
  <polygon fill="#727271" fill-rule="nonzero" points="2328.59,584.4 2155.87,584.4 2155.87,518.49 2328.59,518.49 "/>
  <polygon fill="#727271" fill-rule="nonzero" points="2328.59,496.52 2155.87,496.52 2155.87,430.61 2328.59,430.61 "/>
  <polygon fill="#727271" fill-rule="nonzero" points="2328.59,408.64 2155.87,408.64 2155.87,342.72 2328.59,342.72 "/>
  <polygon fill="#727271" fill-rule="nonzero" points="2846.74,760.18 2674.02,760.18 2674.02,694.26 2846.74,694.26 "/>
  <polygon fill="#727271" fill-rule="nonzero" points="2846.74,672.29 2674.02,672.29 2674.02,606.38 2846.74,606.38 "/>
  <polygon fill="#727271" fill-rule="nonzero" points="2846.74,584.4 2674.02,584.4 2674.02,518.49 2846.74,518.49 "/>
  <path fill="#727271" fill-rule="nonzero" d="M2846.74 320.75l-690.87 0 0 -43.94c0,-7.33 0.77,-14.65 2.3,-21.97l686.27 0c1.54,7.33 2.3,14.65 2.3,21.97l0 43.94z"/>
  <polygon fill="#727271" fill-rule="nonzero" points="2846.74,496.52 2674.02,496.52 2674.02,430.61 2846.74,430.61 "/>
  <path fill="#727271" fill-rule="nonzero" d="M2837.53 232.86l-672.44 0c19.96,-43.94 55.27,-65.92 105.93,-65.92l460.58 0c50.66,0 85.97,21.98 105.93,65.92z"/>
  <polygon fill="#727271" fill-rule="nonzero" points="2846.74,408.64 2674.02,408.64 2674.02,342.72 2846.74,342.72 "/>
  <polygon fill="#727271" fill-rule="nonzero" points="1508.65,760.18 1335.93,760.18 1335.93,694.26 1508.65,694.26 "/>
  <path fill="#727271" fill-rule="nonzero" d="M2017.59 870.04c-19.96,43.94 -55.27,65.91 -105.93,65.91l-575.73 0 0 -65.91 681.66 0z"/>
  <polygon fill="#727271" fill-rule="nonzero" points="1508.65,672.29 1335.93,672.29 1335.93,606.38 1508.65,606.38 "/>
  <path fill="#727271" fill-rule="nonzero" d="M2026.81 826.09c0,7.33 -0.77,14.65 -2.31,21.98l-688.57 0 0 -65.92 690.88 0 0 43.94z"/>
  <polygon fill="#727271" fill-rule="nonzero" points="1508.65,408.64 1335.93,408.64 1335.93,342.72 1508.65,342.72 "/>
  <path fill="#727271" fill-rule="nonzero" d="M2017.59 584.4l-681.66 0 0 -65.91 575.73 0c50.66,0 85.97,21.97 105.93,65.91z"/>
  <polygon fill="#727271" fill-rule="nonzero" points="2026.81,760.18 1854.09,760.18 1854.09,694.26 2026.81,694.26 "/>
  <path fill="#727271" fill-rule="nonzero" d="M2017.59 430.61c-19.96,43.94 -55.27,65.91 -105.93,65.91l-575.73 0 0 -65.91 681.66 0z"/>
  <path fill="#727271" fill-rule="nonzero" d="M2026.81 672.29l-172.72 0 0 -65.92 170.42 0c1.54,7.33 2.31,14.65 2.31,21.97l0 43.94z"/>
  <path fill="#727271" fill-rule="nonzero" d="M2026.81 320.75l-690.88 0 0 -65.92 688.57 0c1.54,7.33 2.31,14.65 2.31,21.97l0 43.94z"/>
  <path fill="#727271" fill-rule="nonzero" d="M2017.59 232.86l-681.66 0 0 -65.92 575.73 0c50.66,0 85.97,21.98 105.93,65.92z"/>
  <path fill="#727271" fill-rule="nonzero" d="M2026.81 386.66c0,7.32 -0.77,14.65 -2.31,21.97l-170.42 0 0 -65.92 172.72 0 0 43.94z"/>
  <polygon fill="#727271" fill-rule="nonzero" points="1335.93,1093.61 4714.98,1093.09 4714.98,39.46 1335.93,36.87 1335.93,0 4751.85,2.6 4751.85,1129.71 1335.93,1130.32 "/>
  <path fill="#727271" fill-rule="nonzero" d="M4540.62 166c20.43,0 40.37,5.23 59.87,15.75 19.45,10.46 34.64,25.51 45.49,45 10.85,19.55 16.31,39.93 16.31,61.08 0,20.99 -5.34,41.2 -16.08,60.53 -10.69,19.39 -25.67,34.43 -45,45.12 -19.33,10.74 -39.55,16.08 -60.59,16.08 -21.1,0 -41.31,-5.34 -60.64,-16.08 -19.33,-10.69 -34.37,-25.72 -45.11,-45.12 -10.74,-19.33 -16.13,-39.54 -16.13,-60.53 0,-21.15 5.45,-41.53 16.36,-61.08 10.96,-19.5 26.16,-34.54 45.6,-45 19.5,-10.52 39.44,-15.75 59.92,-15.75zm0 20.16c-17.13,0 -33.82,4.4 -50.01,13.16 -16.19,8.75 -28.86,21.31 -38.01,37.62 -9.14,16.3 -13.71,33.27 -13.71,50.89 0,17.57 4.51,34.37 13.49,50.45 8.98,16.08 21.54,28.64 37.68,37.62 16.13,8.98 32.99,13.49 50.56,13.49 17.51,0 34.37,-4.52 50.51,-13.49 16.13,-8.98 28.69,-21.54 37.62,-37.62 8.92,-16.08 13.38,-32.88 13.38,-50.45 0,-17.62 -4.57,-34.59 -13.66,-50.89 -9.09,-16.31 -21.75,-28.87 -38,-37.62 -16.25,-8.76 -32.88,-13.16 -49.85,-13.16zm-53.48 168.87l0 -130.87 45.06 0c15.42,0 26.54,1.21 33.43,3.64 6.94,2.42 12.39,6.6 16.52,12.67 4.08,6 6.12,12.39 6.12,19.16 0,9.53 -3.42,17.9 -10.3,24.95 -6.83,7.1 -15.92,11.07 -27.27,11.95 4.63,1.93 8.37,4.24 11.13,6.94 5.29,5.12 11.73,13.77 19.39,25.94l15.98 25.61 -25.67 0 -11.68 -20.6c-9.14,-16.24 -16.58,-26.44 -22.19,-30.51 -3.86,-2.98 -9.48,-4.46 -16.91,-4.41l-12.45 0 0 55.52 -21.15 0zm21.15 -73.7l25.67 0c12.28,0 20.65,-1.81 25.12,-5.45 4.46,-3.63 6.72,-8.48 6.72,-14.43 0,-3.86 -1.1,-7.33 -3.25,-10.36 -2.15,-3.08 -5.12,-5.34 -8.92,-6.83 -3.86,-1.49 -10.9,-2.25 -21.26,-2.25l-24.07 0 0 39.32z"/>
 </g>
</svg>
