<svg height="495pt" viewBox="0 -39 495.9878 495" width="495pt" xmlns="http://www.w3.org/2000/svg"><path d="m456.011719 208.492188c0 114.875-93.125 208-208 208s-208-93.125-208-208 93.125-208 208-208 208 93.125 208 208zm0 0" fill="#64c37d"/><g fill="#231f20"><path d="m154.410156 358.222656c2.878906 2.804688 7.390625 3.035156 10.542969.542969l328-260c3.464844-2.742187 4.050781-7.777344 1.304687-11.238281-2.742187-3.464844-7.773437-4.050782-11.238281-1.304688l-322.472656 255.632813-146.9375-143.089844c-3.164063-3.09375-8.234375-3.035156-11.328125.128906-3.089844 3.164063-3.035156 8.234375.128906 11.328125zm0 0"/><path d="m482.945312 130.300781-258.46875 211.480469-3.730468-3.625c-2.007813-2.175781-5.054688-3.0625-7.917969-2.308594-2.863281.757813-5.074219 3.03125-5.75 5.914063-.675781 2.886719.300781 5.90625 2.53125 7.851562l8.800781 8.609375c2.914063 2.835938 7.492188 3.035156 10.640625.464844l264-216c3.339844-2.820312 3.800781-7.796875 1.035157-11.179688-2.769532-3.382812-7.738282-3.921874-11.164063-1.207031zm0 0"/><path d="m170.164062 311.222656c2.027344 2.089844 5.03125 2.910156 7.84375 2.144532 2.808594-.765626 4.980469-2.996094 5.667969-5.828126.6875-2.832031-.214843-5.8125-2.359375-7.78125l-103.707031-100.992187c-3.164063-3.09375-8.234375-3.035156-11.328125.128906-3.089844 3.164063-3.035156 8.234375.128906 11.328125zm0 0"/></g></svg>