<?xml version="1.0" encoding="UTF-8"?>
<!DOCTYPE svg PUBLIC "-//W3C//DTD SVG 1.1//EN" "http://www.w3.org/Graphics/SVG/1.1/DTD/svg11.dtd">
<!-- Creator: CorelDRAW 2018 (64 Bit) -->
<svg xmlns="http://www.w3.org/2000/svg" xml:space="preserve" width="1979px" height="2114px" version="1.1" style="shape-rendering:geometricPrecision; text-rendering:geometricPrecision; image-rendering:optimizeQuality; fill-rule:evenodd; clip-rule:evenodd"
viewBox="0 0 1971.45 2105.93"
 xmlns:xlink="http://www.w3.org/1999/xlink">
 <defs>
  <style type="text/css">
   <![CDATA[
    .fil0 {fill:black;fill-rule:nonzero}
   ]]>
  </style>
 </defs>
 <g id="Ebene_x0020_1">
  <metadata id="CorelCorpID_0Corel-Layer"/>
  <path class="fil0" d="M990.92 0c197.68,0 376.64,80.13 506.19,209.68 129.55,129.54 209.68,308.51 209.68,506.18 0,197.68 -80.13,376.64 -209.68,506.19 -129.55,129.55 -308.51,209.68 -506.19,209.68 -197.67,0 -376.64,-80.13 -506.18,-209.68 -129.55,-129.55 -209.68,-308.51 -209.68,-506.19 0,-197.67 80.13,-376.64 209.68,-506.18 129.54,-129.55 308.51,-209.68 506.18,-209.68zm422.99 292.87c-108.25,-108.25 -257.8,-175.2 -422.99,-175.2 -165.19,0 -314.74,66.95 -422.99,175.2 -108.25,108.25 -175.2,257.8 -175.2,422.99 0,165.19 66.95,314.75 175.2,422.99 108.25,108.25 257.8,175.21 422.99,175.21 165.19,0 314.74,-66.96 422.99,-175.21 108.25,-108.24 175.21,-257.8 175.21,-422.99 0,-165.19 -66.96,-314.74 -175.21,-422.99zm-1413.91 1813.06c15.72,-247.43 122.54,-470.12 287.29,-634.87 94.65,-94.64 208.42,-170.17 335.01,-220.29 39.82,31.74 83.52,58.77 130.26,80.26 -146.55,40.67 -277.55,118.7 -382.07,223.23 -143.44,143.44 -237.02,336.74 -252.53,551.67l-117.96 0zm1853.49 0c-15.52,-214.93 -109.09,-408.23 -252.53,-551.67 -95.97,-95.97 -214.25,-169.62 -346.4,-212.51 47.65,-19.49 92.43,-44.61 133.49,-74.59 111.04,49.59 211.26,119.06 296.1,203.9 164.76,164.75 271.58,387.44 287.3,634.87l-117.96 0z"/>
 </g>
</svg>
