<svg xmlns="http://www.w3.org/2000/svg" viewBox="0 0 484.5 484.5"><defs><style>.cls-1{fill:#eb1826;}.cls-2,.cls-3{fill:#fff;}.cls-3{fill-rule:evenodd;}</style></defs><g id="Ebene_2" data-name="Ebene 2"><g id="svg3267"><g id="g5692"><path id="rect5537" class="cls-1" d="M242.25,0,484.5,242.25,242.25,484.5,0,242.25Z"/><path id="path5539" class="cls-2" d="M242.24,20.51,20.5,242.25,242.24,464,464,242.25Zm0,5,216.7,216.71L242.24,459,25.56,242.25Z"/><g id="text5543"><path id="path12303" class="cls-2" d="M83.12,218.93H108.6v10H93.47v8.15h12.92v9.41H93.47v19.05H83.12Z"/><path id="path12305" class="cls-2" d="M114.2,218.93h10.3v35.15h16.09v11.49H114.2Z"/><path id="path12307" class="cls-2" d="M165.84,257.87H154.1l-1.62,7.7H142l12.53-46.64h11.24l12.54,46.64H167.47Zm-2.17-10.09L160,231l-3.66,16.76Z"/><path id="path12309" class="cls-2" d="M181.42,218.93H195l5.23,28.38,5.21-28.38h13.51v46.63h-8.42V230L204,265.56h-7.63L189.86,230v35.56h-8.44Z"/><path id="path12311" class="cls-2" d="M225.37,218.93h13.56l5.23,28.38,5.21-28.38h13.51v46.63h-8.42V230l-6.52,35.56h-7.62L233.81,230v35.56h-8.44Z"/><path id="path12313" class="cls-2" d="M290,257.87H278.21l-1.61,7.7H266.07l12.53-46.64h11.24l12.53,46.64H291.59Zm-2.16-10.09L284.11,231l-3.67,16.76Z"/><path id="path12315" class="cls-2" d="M305.67,218.93H325a8.82,8.82,0,0,1,7.41,3.34,14.58,14.58,0,0,1,.74,15.37,8.42,8.42,0,0,1-3.6,3.11,9.23,9.23,0,0,1,5.29,4.15,14.68,14.68,0,0,1,1.7,7.4,16.87,16.87,0,0,1-1.21,6.52,11.22,11.22,0,0,1-3.3,4.58,8.71,8.71,0,0,1-3.91,1.53,33.56,33.56,0,0,1-4.62.64H305.67Zm10.4,18.29h4.48a4.11,4.11,0,0,0,3.36-1.16,5.24,5.24,0,0,0,.94-3.35,5,5,0,0,0-.94-3.19,4.08,4.08,0,0,0-3.29-1.14h-4.55Zm0,18.33h5.25a4.68,4.68,0,0,0,3.76-1.32,5.47,5.47,0,0,0,1.09-3.55,4.94,4.94,0,0,0-1.08-3.33c-.72-.83-2-1.25-3.79-1.25h-5.23Z"/><path id="path12317" class="cls-2" d="M341.87,218.93h10.3v35.15h16.08v11.49H341.87Z"/><path id="path12319" class="cls-2" d="M373,218.93h27.62v10H383.29v7.41h16v9.51h-16V255h17.79v10.56H373Z"/><path id="path12321" class="cls-2" d="M207.26,307.31V297.6h15.93v19.88a30.84,30.84,0,0,1-8.09,5.94,20.25,20.25,0,0,1-8.34,1.57,15.6,15.6,0,0,1-9.68-2.83,18.05,18.05,0,0,1-5.8-8.43,37.17,37.17,0,0,1-2.06-12.85,35.75,35.75,0,0,1,2.25-13.28,18.07,18.07,0,0,1,6.6-8.57q3.39-2.26,9.12-2.26c3.69,0,6.44.47,8.27,1.4a11.38,11.38,0,0,1,4.55,4.34,22.81,22.81,0,0,1,2.72,7.46l-9.94,2.48a7.88,7.88,0,0,0-2.08-4A5.22,5.22,0,0,0,207,287a6.12,6.12,0,0,0-5.41,3.29q-2,3.3-2,10.42,0,7.57,2,10.82a6.35,6.35,0,0,0,5.67,3.24,8,8,0,0,0,3.3-.7,16.33,16.33,0,0,0,3.59-2.38v-4.39Z"/><path id="path12323" class="cls-2" d="M249.87,316.5H238.13l-1.61,7.7H226l12.54-46.64h11.24l12.53,46.64H251.51Zm-2.16-10.09L244,289.65l-3.66,16.76Z"/><path id="path12325" class="cls-2" d="M263.77,308.77l9.8-.86a13.45,13.45,0,0,0,1.3,5.09,5,5,0,0,0,4.55,2.83,4.15,4.15,0,0,0,3.4-1.45,5.24,5.24,0,0,0,.06-6.6q-1.14-1.42-5.28-2.7-6.78-2.13-9.67-5.66a13.71,13.71,0,0,1-2.91-9,15.94,15.94,0,0,1,1.49-6.79,11.41,11.41,0,0,1,4.48-5,15.69,15.69,0,0,1,8.2-1.83q6.39,0,9.75,3.32t4,10.58l-9.71.79a8.59,8.59,0,0,0-1.63-4.58,4.29,4.29,0,0,0-3.42-1.43,3.37,3.37,0,0,0-2.71,1.07,3.83,3.83,0,0,0-.91,2.59,3,3,0,0,0,.75,2,7.17,7.17,0,0,0,3.46,1.72q6.75,2,9.68,4.12a12.16,12.16,0,0,1,4.25,5.17A17.22,17.22,0,0,1,294,309a19.27,19.27,0,0,1-1.77,8.27,13,13,0,0,1-5,5.75,15.14,15.14,0,0,1-8,1.95q-8.5,0-11.78-4.58a21.85,21.85,0,0,1-3.71-11.64Z"/></g><g id="text5547"><path id="path12328" class="cls-2" d="M254.92,429.13h-27.8A31,31,0,0,1,230,418.3q2.43-5.07,9.09-12a33.32,33.32,0,0,0,5.21-6.42,9.11,9.11,0,0,0,1.14-4.17,5.91,5.91,0,0,0-1.13-3.64,3.39,3.39,0,0,0-2.83-1.51,3.45,3.45,0,0,0-2.9,1.55q-1.12,1.56-1.52,5.51l-9.28-1.05a26.44,26.44,0,0,1,2-8.54,10.76,10.76,0,0,1,4.1-4.71,14,14,0,0,1,7.34-1.64,15.4,15.4,0,0,1,7.61,1.56,10.57,10.57,0,0,1,4.27,4.79,16.39,16.39,0,0,1,1.56,7.23,19.27,19.27,0,0,1-1.78,8.15,30.7,30.7,0,0,1-6.5,8.52c-1.86,1.8-3.11,3.07-3.74,3.79s-1.37,1.66-2.22,2.83h14.47Z"/></g><path id="path23326" class="cls-3" d="M237.34,55.08c-2.46,2.13-3.13,6.57-3.61,10.53,0,8.35.48,16.42-2.46,20.32-3-5.88-5.61-11.08-10-11.56,3.48,7.94,2.18,21.28-2.74,36.06-1.85-3.63-4.85-11.29-9.22-12.39.95,9.85-.28,20.94-2.26,31.33a16.85,16.85,0,0,0-6.76-6.5c3.48,9.65-1,13.75.14,23.74,1.61,17.22,12.57,34,31.83,28.66-9.43-2.94-16.93-12.24-19.87-30,11.19,5.19,4.5-5,9.42-15.12,3.9,22.23,6.83,25.79,10.52,26.82-3.62-10.81-3.34-19.7-.4-27.09a35.45,35.45,0,0,0,7.58,15.46c4.71-6.29,6.69-14.71,4.71-32.91,10.31,15.25,9.63,24.63,6.08,30.52,3-.82,6.9-5.2,9.7-12.59,2.66,3.56,2,9.92-.27,17a17.08,17.08,0,0,0,5.66-3.23c-2.66,20.94-13.31,23.47-23.63,30,14.55,6.7,38.87-3.29,41.8-25.46.89-3.83-.13-9.09-1.15-13.54-1.44,3-2.27,6.64-4.73,8.15a20.93,20.93,0,0,1,2-11c2.94-12.31.89-22.63-4.91-30.91-1,6-2.26,11.21-4.93,12.58C267,95.37,261.73,82.3,255.72,78.81c.48,5.61.13,10.06-1.71,14.17-5.12-20.8-14.28-19.22-16.67-37.9Zm-26,124.32v5.36h58.21V179.4Z"/></g></g></g></svg>