<svg xmlns="http://www.w3.org/2000/svg" viewBox="0 0 487.33 487.33"><defs><style>.cls-1{fill:#fff;stroke:#000;stroke-miterlimit:3.86;stroke-width:2px;}</style></defs><g id="Ebene_2" data-name="Ebene 2"><g id="svg3267"><g id="g7639"><path id="rect7490" class="cls-1" d="M243.66,1.41,485.91,243.66,243.66,485.91,1.41,243.66Z"/><path id="rect7549" d="M243.67,1.4,224.89,20.18V243.67h37.53V20.15L243.67,1.4Zm56.26,56.26v186h37.5V95.16Zm-112.54,0L149.85,95.22V243.67h37.54Zm-75,75L74.84,170.23v73.44h37.51Zm262.61,0v111h37.51V170.23Zm-337.65,75L1.4,243.67H37.31Zm412.69,0v35.91h35.91Z"/><path id="path7494" d="M243.65,21.92,21.91,243.66,243.65,465.4,465.39,243.66,243.65,21.92Zm0,5,216.7,216.7-216.7,216.7L27,243.66,243.65,27Z"/><g id="text7496"><path id="path11272" d="M229.63,420.08l9.21-1.62a8.12,8.12,0,0,0,1.23,3.81,2.6,2.6,0,0,0,2.11,1.12q2.23,0,3.48-3.15.92-2.33,1.37-9.83a12.68,12.68,0,0,1-3.41,3.5,7.41,7.41,0,0,1-4.05,1.11q-4.48,0-7.57-4.45a19.39,19.39,0,0,1-3.08-11.26,22.22,22.22,0,0,1,1.57-8.47,12.94,12.94,0,0,1,4.32-5.77,11.69,11.69,0,0,1,6.92-2,12.55,12.55,0,0,1,8,2.41q3,2.4,4.83,7.63T256.4,407q0,12.63-3.8,18.5a11.91,11.91,0,0,1-10.53,5.87,12.89,12.89,0,0,1-6.28-1.29,10.6,10.6,0,0,1-3.82-3.77,19.77,19.77,0,0,1-2.34-6.2Zm17.06-20.81a11,11,0,0,0-1.37-5.93,3.92,3.92,0,0,0-3.32-2.15,3.56,3.56,0,0,0-3.06,1.94,11.19,11.19,0,0,0-1.21,5.83,11.62,11.62,0,0,0,1.26,6,3.67,3.67,0,0,0,3.15,2.06,3.78,3.78,0,0,0,3.25-2,10.5,10.5,0,0,0,1.3-5.73Z"/></g><path id="rect7531" d="M25.07,242.47H462.23v2.38H25.07Z"/></g></g></g></svg>