<svg xmlns="http://www.w3.org/2000/svg" viewBox="0 0 487.33 487.33"><defs><style>.cls-1{fill:#fff;stroke-miterlimit:3.86;stroke-width:2px;}.cls-1,.cls-2{stroke:#000;}.cls-2{fill:none;stroke-miterlimit:3.86;stroke-width:2px;}</style></defs><g id="Ebene_2" data-name="Ebene 2"><g id="svg3267"><g id="g7289"><path id="rect7197" class="cls-1" d="M243.66,1.41,485.91,243.66,243.66,485.91,1.41,243.66Z"/><path id="path7199" d="M243.65,21.92,21.91,243.66,243.65,465.4,465.39,243.66Zm0,5,216.7,216.7-216.7,216.7L27,243.66Z"/><g id="text7201"><path id="path11300" d="M229.38,383.91h27v8.75a46.79,46.79,0,0,0-5.89,9.64,68,68,0,0,0-4.52,14,90.13,90.13,0,0,0-1.78,14.22H235a99.7,99.7,0,0,1,3.43-19.15,79.89,79.89,0,0,1,7.42-16.54H229.38Z"/></g><path id="rect7207" d="M25.07,242.47H462.23v2.38H25.07Z"/><g id="text7211"><path id="path11304" d="M146.1,173.36h25.64v10.08H156.51v8.19h13v9.48h-13v19.17H146.1Z"/><path id="path11306" d="M177.78,173.36h10.39v46.92H177.78Z"/><path id="path11308" d="M193.78,204.76l9.87-.86A13.44,13.44,0,0,0,205,209a5,5,0,0,0,4.58,2.85,4.19,4.19,0,0,0,3.42-1.46,5.26,5.26,0,0,0,.06-6.64q-1.14-1.44-5.31-2.72-6.82-2.15-9.73-5.7a13.79,13.79,0,0,1-2.93-9.06,16,16,0,0,1,1.5-6.84,11.44,11.44,0,0,1,4.51-5,15.76,15.76,0,0,1,8.25-1.84q6.44,0,9.81,3.34t4,10.65l-9.77.8a8.64,8.64,0,0,0-1.64-4.61,4.32,4.32,0,0,0-3.45-1.44,3.36,3.36,0,0,0-2.72,1.07,3.87,3.87,0,0,0-.92,2.61,3,3,0,0,0,.76,2,7.2,7.2,0,0,0,3.48,1.73q6.8,2.06,9.74,4.15a12.31,12.31,0,0,1,4.28,5.2,17.4,17.4,0,0,1,1.34,7,19.39,19.39,0,0,1-1.79,8.32,13.09,13.09,0,0,1-5,5.78,15.21,15.21,0,0,1-8.08,2q-8.56,0-11.86-4.61a22.15,22.15,0,0,1-3.73-11.72Z"/><path id="path11310" d="M227.66,204.76l9.87-.86a13.24,13.24,0,0,0,1.31,5.12,5,5,0,0,0,4.57,2.85,4.21,4.21,0,0,0,3.43-1.46A5.16,5.16,0,0,0,248,207a5.07,5.07,0,0,0-1.15-3.26q-1.14-1.44-5.31-2.72-6.83-2.15-9.73-5.7a13.79,13.79,0,0,1-2.93-9.06,16,16,0,0,1,1.5-6.84,11.5,11.5,0,0,1,4.51-5q3-1.85,8.26-1.84,6.42,0,9.8,3.34t4,10.65l-9.77.8a8.64,8.64,0,0,0-1.64-4.61,4.31,4.31,0,0,0-3.44-1.44,3.37,3.37,0,0,0-2.73,1.07,3.86,3.86,0,0,0-.91,2.61,3,3,0,0,0,.75,2,7.2,7.2,0,0,0,3.48,1.73q6.8,2.06,9.74,4.15a12.31,12.31,0,0,1,4.28,5.2,17.23,17.23,0,0,1,1.34,7,19.38,19.38,0,0,1-1.78,8.32,13.15,13.15,0,0,1-5,5.78,15.27,15.27,0,0,1-8.09,2c-5.7,0-9.66-1.54-11.85-4.61a22.06,22.06,0,0,1-3.74-11.72Z"/><path id="path11312" d="M263.77,173.36h10.39v46.92H263.77Z"/><path id="path11314" d="M281.58,173.36H292v35.37h16.18v11.55H281.58Z"/><path id="path11316" d="M312.87,173.36h27.79v10h-17.4v7.45H339.4v9.58H323.26v9.25h17.91v10.62h-28.3Z"/></g><g id="text7219"><path id="path11319" d="M198.28,320.62l2.91,1.23a9.07,9.07,0,0,1-.92,2.86,4.63,4.63,0,0,1-1.56,1.73,4.53,4.53,0,0,1-2.38.58,5.25,5.25,0,0,1-2.86-.71,5.55,5.55,0,0,1-1.91-2.51,11.15,11.15,0,0,1-.81-4.58,9.8,9.8,0,0,1,1.42-5.73,4.63,4.63,0,0,1,4-2,4.29,4.29,0,0,1,3.18,1.15,7.13,7.13,0,0,1,1.73,3.52l-2.93.91a4.18,4.18,0,0,0-.32-1,2.25,2.25,0,0,0-.68-.82,1.53,1.53,0,0,0-.9-.29,1.88,1.88,0,0,0-1.73,1.27,7.26,7.26,0,0,0-.45,3,7.48,7.48,0,0,0,.54,3.42,1.68,1.68,0,0,0,1.52.93,1.62,1.62,0,0,0,1.44-.75A5.58,5.58,0,0,0,198.28,320.62Z"/><path id="path11321" d="M202.84,326.75v-15h5.53a6,6,0,0,1,2.34.36,2.84,2.84,0,0,1,1.32,1.37,6.3,6.3,0,0,1,.11,4.59,3.88,3.88,0,0,1-1,1.47,3.55,3.55,0,0,1-1.17.59,3.12,3.12,0,0,1,.87.55,5.64,5.64,0,0,1,.53.79,6.4,6.4,0,0,1,.46.93l1.6,4.35h-3.74l-1.78-4.58a3.46,3.46,0,0,0-.6-1.16,1.15,1.15,0,0,0-.81-.35h-.29v6.09Zm3.33-8.92h1.4a3.71,3.71,0,0,0,.88-.21.89.89,0,0,0,.53-.47,1.75,1.75,0,0,0,.21-.87,1.65,1.65,0,0,0-.33-1.11,1.56,1.56,0,0,0-1.23-.39h-1.46Z"/><path id="path11323" d="M214.58,311.75h3.32v15h-3.32Z"/><path id="path11325" d="M219.52,311.75H229.6v3.7h-3.38v11.3H222.9v-11.3h-3.38Z"/><path id="path11327" d="M231.24,311.75h3.33v15h-3.33Z"/><path id="path11329" d="M244.08,320.62l2.91,1.23a9.34,9.34,0,0,1-.92,2.86,4.57,4.57,0,0,1-1.57,1.73,4.47,4.47,0,0,1-2.37.58,5.25,5.25,0,0,1-2.86-.71,5.63,5.63,0,0,1-1.92-2.51,11.33,11.33,0,0,1-.8-4.58,9.8,9.8,0,0,1,1.42-5.73,4.62,4.62,0,0,1,4-2,4.3,4.3,0,0,1,3.19,1.15,7.13,7.13,0,0,1,1.73,3.52l-2.93.91a4.18,4.18,0,0,0-.32-1,2.35,2.35,0,0,0-.68-.82,1.54,1.54,0,0,0-.91-.29,1.87,1.87,0,0,0-1.72,1.27,7.06,7.06,0,0,0-.46,3,7.48,7.48,0,0,0,.54,3.42,1.7,1.7,0,0,0,1.53.93,1.62,1.62,0,0,0,1.44-.75,5.58,5.58,0,0,0,.7-2.17Z"/><path id="path11331" d="M255.2,324.28h-3.78l-.52,2.47h-3.39l4-15h3.62l4,15h-3.47Zm-.7-3.25-1.19-5.39L252.14,321Z"/><path id="path11333" d="M260.25,311.75h3.31v11.31h5.18v3.69h-8.49Z"/><path id="path11335" d="M270.39,311.75h3.33v15h-3.33Z"/><path id="path11337" d="M275.33,311.75h10.08v3.7H282v11.3h-3.31v-11.3h-3.39Z"/><path id="path11339" d="M285.84,311.75h3.68l2.17,5.06,2.17-5.06h3.66l-4.18,8.72v6.28H290v-6.28Z"/><path id="path11341" d="M182.63,340.66l3.15-.28a4.31,4.31,0,0,0,.42,1.64,1.61,1.61,0,0,0,1.46.91,1.35,1.35,0,0,0,1.1-.47,1.67,1.67,0,0,0,.38-1.08,1.64,1.64,0,0,0-.36-1,3.61,3.61,0,0,0-1.7-.87,6.45,6.45,0,0,1-3.11-1.82,4.4,4.4,0,0,1-.94-2.9,5.14,5.14,0,0,1,.48-2.19A3.68,3.68,0,0,1,185,331a5,5,0,0,1,2.64-.59,4.25,4.25,0,0,1,3.14,1.07,5.33,5.33,0,0,1,1.28,3.4l-3.13.26a2.72,2.72,0,0,0-.52-1.48,1.39,1.39,0,0,0-1.1-.46,1.07,1.07,0,0,0-.87.35,1.19,1.19,0,0,0-.29.83,1,1,0,0,0,.24.64,2.22,2.22,0,0,0,1.11.56,11.15,11.15,0,0,1,3.11,1.32,3.87,3.87,0,0,1,1.37,1.67,5.46,5.46,0,0,1,.43,2.22,6.19,6.19,0,0,1-.57,2.66,4.2,4.2,0,0,1-1.59,1.85,4.9,4.9,0,0,1-2.59.63c-1.82,0-3.09-.49-3.79-1.48a7,7,0,0,1-1.19-3.74Z"/><path id="path11343" d="M200.64,343.14h-3.78l-.52,2.48H193l4-15h3.62l4,15h-3.47ZM200,339.9l-1.19-5.4-1.18,5.4Z"/><path id="path11345" d="M205.71,330.61h8.2v3.23H209v2.62h4.16v3H209v6.13h-3.33Z"/><path id="path11347" d="M215.7,330.61h8.89v3.21H219v2.38h5.17v3.06H219v3h5.73v3.4H215.7Z"/><path id="path11349" d="M225.79,330.61h10.08v3.71h-3.38v11.3h-3.32v-11.3h-3.38Z"/><path id="path11351" d="M236.29,330.61H240l2.16,5.07,2.17-5.07H248l-4.17,8.73v6.28h-3.33v-6.28Z"/><path id="path11353" d="M254.17,330.61h3.32v15h-3.32Z"/><path id="path11355" d="M259.89,330.61H263l4,8.31v-8.31h3.12v15H267l-4-8.24v8.24h-3.12Z"/><path id="path11357" d="M272.41,330.61h4.93a4.39,4.39,0,0,1,2.35.56,4.29,4.29,0,0,1,1.49,1.58,8,8,0,0,1,.85,2.41,15.83,15.83,0,0,1,.26,2.91,13.91,13.91,0,0,1-.39,3.73,6.77,6.77,0,0,1-1.09,2.22,3.45,3.45,0,0,1-1.49,1.19,5.79,5.79,0,0,1-2,.41h-4.93Zm3.32,3.4v8.2h.81a2.59,2.59,0,0,0,1.48-.32,2.19,2.19,0,0,0,.69-1.13,9.45,9.45,0,0,0,.25-2.6,6.69,6.69,0,0,0-.56-3.27,2,2,0,0,0-1.84-.88Z"/><path id="path11359" d="M284,330.61h8.88v3.21h-5.56v2.38h5.16v3.06h-5.16v3h5.73v3.4H284Z"/><path id="path11361" d="M294.12,330.61h3.65l1.91,4.62,1.84-4.62h3.62l-3.34,7.27,3.65,7.74h-3.72l-2.12-4.82-2.12,4.82h-3.71l3.71-7.82Z"/></g><path id="rect7266" class="cls-2" d="M168,258.4H319.33v97.21H168Z"/></g></g></g></svg>