<svg xmlns="http://www.w3.org/2000/svg" viewBox="0 0 484.5 484.5"><defs><style>.cls-1{fill:#eb1826;}.cls-2,.cls-3{fill:#fff;}.cls-3{fill-rule:evenodd;}</style></defs><g id="Ebene_2" data-name="Ebene 2"><g id="svg3267"><g id="g5773"><path id="rect5745" class="cls-1" d="M242.25,0,484.5,242.25,242.25,484.5,0,242.25Z"/><path id="path5747" class="cls-2" d="M242.24,20.51,20.5,242.25,242.24,464,464,242.25Zm0,5,216.7,216.71L242.24,459,25.56,242.25Z"/><g id="text5749"><path id="path11534" class="cls-2" d="M83.12,218.93H108.6v10H93.47v8.15h12.92v9.41H93.47v19.05H83.12Z"/><path id="path11536" class="cls-2" d="M114.2,218.93h10.3v35.15h16.08v11.49H114.2Z"/><path id="path11538" class="cls-2" d="M165.84,257.87H154.1l-1.62,7.7H142l12.53-46.64h11.24l12.54,46.64H167.47Zm-2.17-10.09L160,231l-3.66,16.76Z"/><path id="path11540" class="cls-2" d="M181.42,218.93H195l5.23,28.38,5.21-28.38h13.51v46.63h-8.42V230L204,265.56h-7.63L189.86,230v35.56h-8.44Z"/><path id="path11542" class="cls-2" d="M225.37,218.93h13.56l5.23,28.38,5.21-28.38h13.51v46.63h-8.42V230l-6.52,35.56h-7.62L233.81,230v35.56h-8.44Z"/><path id="path11544" class="cls-2" d="M290,257.87H278.21l-1.61,7.7H266.07l12.53-46.64h11.24l12.53,46.64H291.59Zm-2.16-10.09L284.11,231l-3.67,16.76Z"/><path id="path11546" class="cls-2" d="M305.67,218.93H325a8.82,8.82,0,0,1,7.41,3.34,14.58,14.58,0,0,1,.74,15.37,8.42,8.42,0,0,1-3.6,3.11,9.23,9.23,0,0,1,5.29,4.15,14.68,14.68,0,0,1,1.7,7.4,16.87,16.87,0,0,1-1.21,6.52,11.22,11.22,0,0,1-3.3,4.58,8.71,8.71,0,0,1-3.91,1.53,33.56,33.56,0,0,1-4.62.64H305.67Zm10.4,18.29h4.48c1.61,0,2.73-.38,3.35-1.16a5.18,5.18,0,0,0,1-3.35,4.89,4.89,0,0,0-1-3.19,4,4,0,0,0-3.28-1.14h-4.55Zm0,18.32h5.25a4.61,4.61,0,0,0,3.76-1.32,5.42,5.42,0,0,0,1.09-3.54,4.94,4.94,0,0,0-1.08-3.33c-.72-.83-2-1.25-3.79-1.25h-5.23Z"/><path id="path11548" class="cls-2" d="M341.87,218.93h10.3v35.15h16.08v11.49H341.87Z"/><path id="path11550" class="cls-2" d="M373,218.93h27.62v10H383.29v7.41h16v9.51h-16V255h17.79v10.56H373Z"/><path id="path11552" class="cls-2" d="M154.23,277.56h10.31v35.15h16.08V324.2H154.23Z"/><path id="path11554" class="cls-2" d="M185.76,277.56h10.33V324.2H185.76Z"/><path id="path11556" class="cls-2" d="M233.08,317.39c1.29,1.25,2.13,2,2.53,2.35a25.41,25.41,0,0,0,2.38,1.63l-2.86,8.07a32.36,32.36,0,0,1-4.28-3.48,41,41,0,0,1-3-3,16.21,16.21,0,0,1-8.55,2.07,14.49,14.49,0,0,1-12-5.53q-5.19-6.56-5.18-18.42,0-11.52,4.53-17.89a14.68,14.68,0,0,1,12.69-6.38q8.3,0,12.82,6.23t4.51,17.85q0,10.33-3.64,16.54ZM225.19,310c.82-2.06,1.23-5.13,1.23-9.23q0-7-1.88-10.08a5.82,5.82,0,0,0-5.18-3,5.72,5.72,0,0,0-5,3.08q-1.9,3.09-1.91,9.64,0,7.64,1.87,10.72a5.72,5.72,0,0,0,5.11,3.09,6.72,6.72,0,0,0,2-.29,12.79,12.79,0,0,0-4.09-3.31l1.61-5.18a7,7,0,0,1,2.13.86,28,28,0,0,1,3,2.67q.52.51,1.14,1.05Z"/><path id="path11558" class="cls-2" d="M264,277.56H274.3v27.81a32.19,32.19,0,0,1-.92,7.8,18.71,18.71,0,0,1-2.89,6.43,12.11,12.11,0,0,1-4.13,3.86,15.44,15.44,0,0,1-7.21,1.56,33.53,33.53,0,0,1-5.31-.47,11,11,0,0,1-4.81-1.9,13.86,13.86,0,0,1-3.54-4,16.87,16.87,0,0,1-2.19-5.38,37.89,37.89,0,0,1-1-7.88V277.56h10.28V306a10.29,10.29,0,0,0,1.51,6,5.19,5.19,0,0,0,8.38,0,10.27,10.27,0,0,0,1.51-6Z"/><path id="path11560" class="cls-2" d="M281.58,277.56h10.33V324.2H281.58Z"/><path id="path11562" class="cls-2" d="M299.42,277.56h15.31a13.85,13.85,0,0,1,7.31,1.72,13.48,13.48,0,0,1,4.61,4.93,24.64,24.64,0,0,1,2.64,7.48,48.3,48.3,0,0,1,.81,9,43.1,43.1,0,0,1-1.21,11.6,20.78,20.78,0,0,1-3.38,6.9,10.81,10.81,0,0,1-4.64,3.7,17.67,17.67,0,0,1-6.14,1.28H299.42Zm10.3,10.56V313.6h2.53c2.15,0,3.68-.33,4.59-1a6.64,6.64,0,0,0,2.14-3.5,29.92,29.92,0,0,0,.77-8.09c0-4.94-.57-8.33-1.73-10.15s-3.06-2.74-5.73-2.74Z"/></g><g id="text5755"><path id="path11565" class="cls-2" d="M236.79,396,228,393.79q1.09-5.85,4.2-9T241,381.7q6.53,0,9.44,3.4a12.72,12.72,0,0,1,2.91,8.56,12.37,12.37,0,0,1-1.18,5.47,12,12,0,0,1-3.57,4.3,8.85,8.85,0,0,1,3,1.56,9.55,9.55,0,0,1,2.58,3.76,15.33,15.33,0,0,1,.92,5.59,20.47,20.47,0,0,1-1.53,7.81,12.53,12.53,0,0,1-4.39,5.75,12.78,12.78,0,0,1-7.53,2,14.49,14.49,0,0,1-7.17-1.49,11.77,11.77,0,0,1-4.32-4.37,24.06,24.06,0,0,1-2.61-7.24l9.26-1.72c.36,2.61.93,4.42,1.69,5.42a3.53,3.53,0,0,0,2.93,1.51,3.62,3.62,0,0,0,3.1-1.9,9.22,9.22,0,0,0,1.24-5.09,9,9,0,0,0-1.19-5,3.72,3.72,0,0,0-3.24-1.78,8.77,8.77,0,0,0-3,.76l.48-9.25a7.05,7.05,0,0,0,1.21.16,3.67,3.67,0,0,0,3-1.63,6.17,6.17,0,0,0,1.22-3.85,5.71,5.71,0,0,0-.91-3.4,2.91,2.91,0,0,0-2.5-1.27,3.17,3.17,0,0,0-2.66,1.38,10.23,10.23,0,0,0-1.39,4.85Z"/></g><path id="path5759" class="cls-3" d="M237.34,55.08c-2.46,2.13-3.13,6.57-3.61,10.53,0,8.35.48,16.42-2.46,20.32-3-5.88-5.61-11.08-10-11.56,3.48,7.94,2.18,21.28-2.74,36.06-1.85-3.63-4.85-11.29-9.22-12.39.95,9.85-.28,20.94-2.26,31.33a16.85,16.85,0,0,0-6.76-6.5c3.48,9.65-1,13.75.14,23.74,1.61,17.22,12.57,34,31.83,28.66-9.43-2.94-16.93-12.24-19.87-30,11.19,5.19,4.5-5,9.42-15.12,3.9,22.24,6.83,25.79,10.52,26.82-3.62-10.81-3.34-19.7-.4-27.09a35.45,35.45,0,0,0,7.58,15.46c4.71-6.29,6.69-14.71,4.71-32.91,10.31,15.25,9.63,24.63,6.08,30.52,3-.82,6.9-5.2,9.7-12.59,2.66,3.56,2,9.92-.27,17a17.08,17.08,0,0,0,5.66-3.23c-2.66,20.94-13.31,23.47-23.63,30,14.55,6.7,38.87-3.29,41.8-25.46.89-3.83-.13-9.09-1.15-13.54-1.44,3-2.27,6.64-4.73,8.15a20.88,20.88,0,0,1,2-11c2.94-12.32.89-22.64-4.91-30.92-1,6-2.26,11.21-4.93,12.58C267,95.37,261.73,82.3,255.72,78.81c.48,5.61.13,10.06-1.71,14.17-5.12-20.8-14.28-19.22-16.67-37.9Zm-26,124.32v5.36h58.21V179.4Z"/></g></g></g></svg>