<svg xmlns="http://www.w3.org/2000/svg" viewBox="0 0 487.33 487.33"><defs><style>.cls-1{fill:#fff;stroke:#000;stroke-miterlimit:3.86;stroke-width:2px;}.cls-2{fill:#eb1826;}.cls-3{fill-rule:evenodd;}</style></defs><g id="Ebene_2" data-name="Ebene 2"><g id="svg3267"><g id="g7302"><path id="rect5791" class="cls-1" d="M243.66,1.41,485.91,243.66,243.66,485.91,1.41,243.66Z"/><path id="rect5826" class="cls-2" d="M243.65,1.4l-15.8,15.8V470.11l15.8,15.8,15.8-15.8V17.2ZM194.33,50.72,162.76,82.29V405l31.57,31.56V50.72Zm98.64,0V436.58L324.57,405V82.32ZM129.21,115.84l-31.57,31.6V339.9l31.57,31.56Zm228.88,0V371.46l31.6-31.56V147.44ZM423.21,181V306.38l31.6-31.6V212.56ZM64.09,181,32.53,212.56v62.22l31.56,31.56Z"/><path id="path5793" d="M243.65,21.92,21.91,243.66,243.65,465.4,465.39,243.66Zm0,5,216.7,216.7-216.7,216.7L27,243.66Z"/><g id="text5801"><path id="path12210" d="M245.14,421.83H228.26V411.17l16.88-28.06h8.08v28.67h4.18v10.05h-4.18v8.71h-8.08Zm0-10.05V397.11l-8.92,14.67Z"/></g><path id="path5805" class="cls-3" d="M238.75,56.5c-2.45,2.12-3.13,6.56-3.61,10.53,0,8.34.48,16.42-2.45,20.32-3-5.89-5.61-11.08-10.05-11.56,3.49,7.93,2.18,21.27-2.74,36.05-1.84-3.62-4.85-11.29-9.22-12.38,1,9.85-.27,20.93-2.25,31.33a16.84,16.84,0,0,0-6.77-6.51c3.49,9.65-1,13.76.14,23.74,1.61,17.22,12.57,34,31.83,28.67-9.43-2.94-16.93-12.24-19.87-30,11.19,5.18,4.51-5,9.42-15.13,3.9,22.24,6.83,25.8,10.52,26.83-3.62-10.81-3.34-19.71-.4-27.1a35.5,35.5,0,0,0,7.58,15.47c4.71-6.3,6.69-14.72,4.71-32.92,10.31,15.26,9.63,24.64,6.08,30.52,3-.82,6.9-5.2,9.7-12.58,2.67,3.55,2,9.91-.27,17a17,17,0,0,0,5.67-3.22c-2.66,20.93-13.32,23.46-23.64,30,14.55,6.71,38.87-3.29,41.81-25.45.89-3.83-.13-9.1-1.16-13.54-1.43,3-2.26,6.64-4.72,8.14a20.91,20.91,0,0,1,2-11c2.94-12.31.9-22.64-4.91-30.92-1,6-2.26,11.22-4.92,12.59-2.8-18.68-8.06-31.75-14.07-35.24.47,5.61.13,10.06-1.72,14.16C250.3,73.6,241.15,75.18,238.75,56.5Zm-26,124.32v5.35H271v-5.35Z"/><g id="text5807"><path id="path12213" d="M84.54,220.35H110v10H94.89v8.14h12.92v9.42H94.89V267H84.54Z"/><path id="path12215" d="M115.61,220.35h10.31V255.5H142V267H115.61Z"/><path id="path12217" d="M167.25,259.28H155.51L153.9,267H143.36l12.54-46.63h11.24L179.67,267H168.89Zm-2.16-10.08-3.69-16.77-3.66,16.77Z"/><path id="path12219" d="M182.83,220.35h13.56l5.23,28.37,5.21-28.37h13.52V267h-8.42V231.42L205.4,267h-7.62l-6.51-35.56V267h-8.44Z"/><path id="path12221" d="M226.78,220.35h13.56l5.23,28.37,5.21-28.37H264.3V267h-8.42V231.42L249.35,267h-7.62l-6.51-35.56V267h-8.44Z"/><path id="path12223" d="M291.37,259.28H279.63L278,267H267.48L280,220.35h11.23L303.79,267H293Zm-2.16-10.08-3.69-16.77-3.66,16.77Z"/><path id="path12225" d="M307.09,220.35h19.29a8.79,8.79,0,0,1,7.4,3.34,14.56,14.56,0,0,1,.74,15.36,8.47,8.47,0,0,1-3.59,3.12,9.22,9.22,0,0,1,5.29,4.15,14.64,14.64,0,0,1,1.69,7.39,16.74,16.74,0,0,1-1.21,6.53,11.37,11.37,0,0,1-3.29,4.58,8.65,8.65,0,0,1-3.92,1.52,32.1,32.1,0,0,1-4.61.64H307.09Zm10.39,18.29H322a4.14,4.14,0,0,0,3.36-1.16,5.23,5.23,0,0,0,.94-3.36,4.84,4.84,0,0,0-.94-3.18,4.08,4.08,0,0,0-3.29-1.15h-4.55Zm0,18.32h5.26a4.63,4.63,0,0,0,3.75-1.32,5.38,5.38,0,0,0,1.09-3.55,4.91,4.91,0,0,0-1.08-3.32c-.72-.84-2-1.26-3.79-1.26h-5.23Z"/><path id="path12227" d="M343.28,220.35h10.3V255.5h16.09V267H343.28Z"/><path id="path12229" d="M374.38,220.35H402v10H384.7v7.41h16v9.52h-16v9.19h17.79V267H374.38Z"/><path id="path12231" d="M165.5,310.18l9.8-.86a13.39,13.39,0,0,0,1.3,5.09,5,5,0,0,0,4.55,2.83,4.17,4.17,0,0,0,3.4-1.44,5.12,5.12,0,0,0,1.19-3.36,5,5,0,0,0-1.13-3.24q-1.14-1.44-5.28-2.71-6.78-2.13-9.67-5.66a13.67,13.67,0,0,1-2.91-9,15.91,15.91,0,0,1,1.49-6.79,11.44,11.44,0,0,1,4.48-5,15.69,15.69,0,0,1,8.2-1.83q6.39,0,9.75,3.33t4,10.57l-9.71.8a8.56,8.56,0,0,0-1.63-4.58,4.26,4.26,0,0,0-3.42-1.43,3.37,3.37,0,0,0-2.71,1.06,3.85,3.85,0,0,0-.91,2.59,3,3,0,0,0,.75,2,7.26,7.26,0,0,0,3.46,1.72q6.75,2,9.68,4.12a12.13,12.13,0,0,1,4.25,5.16,17.24,17.24,0,0,1,1.33,6.91,19.3,19.3,0,0,1-1.77,8.27,13,13,0,0,1-5,5.74,15.14,15.14,0,0,1-8,2q-8.51,0-11.78-4.58a21.92,21.92,0,0,1-3.71-11.65Z"/><path id="path12233" d="M199.67,302.33q0-11.43,4.55-17.79a14.69,14.69,0,0,1,12.67-6.36q8.33,0,12.83,6.25t4.5,17.51a38.44,38.44,0,0,1-2,13.41,18.18,18.18,0,0,1-5.68,8.15,14.59,14.59,0,0,1-9.27,2.91,16.22,16.22,0,0,1-9.34-2.52,17.46,17.46,0,0,1-6-7.95A35.16,35.16,0,0,1,199.67,302.33Zm10.3.06q0,7.07,1.88,10.15a5.83,5.83,0,0,0,10.25.06q1.82-3,1.82-10.85c0-4.39-.64-7.59-1.9-9.62a5.85,5.85,0,0,0-5.16-3,5.68,5.68,0,0,0-5,3.09Q210,295.27,210,302.39Z"/><path id="path12235" d="M239.82,279h10.3v35.15h16.09v11.48H239.82Z"/><path id="path12237" d="M271.35,279h10.33v46.63H271.35Z"/><path id="path12239" d="M289.18,279h15.31a13.77,13.77,0,0,1,7.32,1.72,13.3,13.3,0,0,1,4.6,4.93,24.05,24.05,0,0,1,2.64,7.47,47.48,47.48,0,0,1,.82,9,42.55,42.55,0,0,1-1.22,11.59,20.58,20.58,0,0,1-3.37,6.9,10.87,10.87,0,0,1-4.65,3.71,17.55,17.55,0,0,1-6.14,1.27H289.18Zm10.31,10.56V315H302a8.05,8.05,0,0,0,4.6-1,6.68,6.68,0,0,0,2.14-3.5,30.48,30.48,0,0,0,.77-8.1q0-7.41-1.73-10.15t-5.73-2.73Z"/></g></g></g></g></svg>