<svg xmlns="http://www.w3.org/2000/svg" viewBox="0 0 484.5 484.5"><defs><style>.cls-1{fill:#ff8400;}.cls-2{fill-rule:evenodd;}</style></defs><g id="Ebene_2" data-name="Ebene 2"><g id="svg3267"><g id="g5455"><path id="rect5457" class="cls-1" d="M242.25,0,484.5,242.25,242.25,484.5,0,242.25Z"/><path id="path5459" d="M242.24,20.51,20.5,242.25,242.24,464,464,242.25Zm0,5,216.7,216.71L242.24,459,25.57,242.25Z"/><path id="path5461" class="cls-2" d="M242.84,38.86,227.92,91.11,247.3,43.32ZM256.07,52.1q-7.53,16.84-15.16,33.61c-2.94,5.22-7.11,18.3-11,21.89-1.27.34,0-4.43.12-5l-.43-.51c-2-.37-3.26.58-4.46,2.17-2.82-1.41-5.06,1.71-7.81.91l8.08-50L214.62,65.87l-2.53,48.84c-.09,3.74,6,10.82,8.65,12.73-2.89,6.74-6,13.54-8.83,20-1.18.32-8.51.27-9.2-.27-2.75-1.16-4.58,2.5-7,.7-.81-1.69.8-2.76,1.33-4.16.59-2.16-3.77-8-5.4-9.41-.93-.11-2.32,3.15-3.17,3.38-18.5,18.62-1.59,52.47,26.35,41.72,4.64-1.24,7.8-4.62,11.37-7.48,2,.37,2,3.47,4.55,3,2.95-.79,6,.21,8.59,1.42,1.41.52,2.28-1,2.9-2.05,1,.64.75-1.85.6-2.08-1.12-1.15,0-2.71-1.09-4a9.7,9.7,0,0,1-4-1.54c-1.61.07-8.48.73-9.56,2.11-.25.43-1,.9-1.51.48a4.58,4.58,0,0,1,2.44-7l63.77,12.24,28.82-7.75-.06-.24-52.28-4.19c-2.25-1.3-3-6.06-6.33-3.8-.89,1.41-2.74,1.62-2.77,3.53-10.63-.87-20.65-1.44-30.75-1.72-.94-.11-1.68-.55-2.27-.39-.7,2.08-3.53,2-5.3,2.44-2.86-2.23-4.53-2.14-8-3a4.74,4.74,0,0,1,.39-4.19c1.62-2.06,4.63-1.34,7.06-1.72,1.52,0,2.29-1.86,3.22-3.1,1.28-1,3.55-.58,4.64-2.23.21-1.6,1-3.09.61-4.53-.45-2.68-1.32-5.9-4.22-7.29-1.07-.62-2.43.09-3.77-.18,2.94-5.22,5.68-10.89,9.34-15.77,1.59,1.2,6.78-.67,6.76.6.2,2.12.49,5.21,2.47,5.85,20.31-9.14,40-19.9,59.45-30.9l-8.53-8.53-41.67,29.73c-2-.37-3-4.73-2.41-6.25,11-11.45,22.19-22.8,33.35-34.21L274,70c-11.57,14.82-23.19,29.62-34.7,44.38-.88,1.42-3.35.91-4.7,1.27-.55-1,.27-1.32.63-2.32,10.3-16.82,20.84-33.76,31.33-50.77L256.07,52.1Zm-27.19,6.66a1.37,1.37,0,0,0-.39.06c-1.21,2.58-4.86,4.2-3.92,7.39-.57,3.59,1.89,6.66,4.61,8.74.59-.16,1.17-.34,1.36-.67,0,0,1.41-7,1.84-9.34-.3-1.59-.63-4.25-1.42-4.89a2.88,2.88,0,0,0-2.08-1.29ZM210.25,70.25l-9,9c.39.77.88,1.49,1.29,2.17,0,2.19,1.87,3.57,2.84,5.49.7,1.62.69,3.88,2.59,4.91,1.34.28,2-1.52,2.89-2,0-1-.66-2-.57-3-.22-1.85.32-3.24-.06-4.68-.76-3.86,2.06-7.06.45-10.7a12,12,0,0,1-.42-1.14Zm71.06,7.08c-.05,0-.08,0-.12.06-1.71.73-1.91,2.32-2.69,3.8-2.77,1.46-5.51,4.09-6.09,7.32,0,2.53,3.41,2.26,4.29,4.19,3.41,1.26,4.78-2.66,7.89-2.86,1.62-1.06,4-1.17,5.73-2.89.06-.13.14-.26.21-.4l-9.22-9.22Zm-82,3.89-21.2,21.19,17,26.53-.28.09-20.62-22.76-6.12,6.12,6.49,5.67c0,1.91-2,1.79-2.84,3.29a7.49,7.49,0,0,0,2,4.73c2.34.64,2.87,2.66,5.37,3.53.81.68,1.09-.3,2-.55,2.12-1.2.76-4,1.63-5.48-.1-.34,9.53,7,10.52,7.68,2.08,1.71,4.86.6,7.2,1.24,1.66.1,2.35-1.71,3.71-2.71.78-.48-.47-1.42-.69-2.26A4.79,4.79,0,0,1,205,125l-5.69-43.74Zm108.83,22.91-49,21.53,54.11-16.4-5.12-5.13Zm8.77,8.77c-26.64,8.19-53.15,17-79.71,25.24l-.24.42a10.55,10.55,0,0,0,3.41-.45c1.49.5.16,2,.39,2.86a6.69,6.69,0,0,0,6.87,2.41c1.28-1,1.63-2.67,3.56-3.55,1.34.27.9,1.66,1.81,2.68a3.55,3.55,0,0,0,2.44.69,5.77,5.77,0,0,0,2.59-3.49c.55-1.69-.56-3.47-1.8-4.41l.27-.36,69.07-13.38-8.66-8.66ZM187.4,129.21a5,5,0,0,0-1.87.28,3.55,3.55,0,0,0-2.44,2.14c.25.93.53,2,1.53,2.41a7.74,7.74,0,0,0,3.89-2,3,3,0,0,0-1.11-2.78Zm107,1.27c-1.34,0-2.47,2.25-3.83,1.87a29.45,29.45,0,0,1-8.53.18,15.67,15.67,0,0,0-2.26.15,1.77,1.77,0,0,0-1.45,1.21c.8,3,3,3.47,5.19,5.15.72,1.35.33,3.62,2.59,3.65a22.06,22.06,0,0,1,7,.18c3.76-.1,6.09-2.88,9.61-3.92a12.57,12.57,0,0,0,3.59-.42c.46-.66,1.12-1.49,1-2.08.52-1.41-.91-2-1.39-2.8-.63-1-1-2.53-2.35-2.81-2.85.86-6.35.28-8.9-.33l-.27,0Zm-87.91,1.9a4,4,0,0,0-.66.12c-2.2,1.22-4.78,1.65-5.82,3.83,0,2.16-1.75,3.65-1.39,6,1.55,2.39,4.19-.52,6.09-.48,1.75.79,3.69,1.83,5.49.45,1.28-2,4-3.35,3.26-5.94.17-.68.79-1.85.3-2.35-.33-1.33-1.72-1.42-3.08-1-1.31.12-2.68-.74-4.19-.63ZM181,133.92a4.47,4.47,0,0,0-1.27.18,3.68,3.68,0,0,0-1.42.72,6.61,6.61,0,0,0-1.44,6.06c1,1.28,2.5.89,3.34.66a4,4,0,0,0,2.84-3.28c.18-.68.77-1.85,1.05-2.84l-2.17-1.32A2.2,2.2,0,0,0,181,133.92Zm160.8,3.92L284,146l-2.2-2.48c-2.15-1.95-5.54-3.78-8.74-2.92-.62,1.07-2.05,2.46-2.32,3.8.06,1.25,1.29,2.48.42,3.62-11.16,1.54-23,3.88-34.16,5.42,1.11.43,3,.18,4.37.46,2.84.14,5-.52,8.05-.7l19.48-.81,2-.54c7.52.06,14.46-.71,22.07-.67l.18.61c-1.09.65-1.57,2.31-2.6,3.22-.21,2.59,2.62,3.65,4.53,5,2-.55,3.94,1.65,6.06.45,3.4,2.25,7.15-1.36,10.31,0,3.34-.35,7.39,3,9.55-.76,1-1.54,3.37-1.27,5-1.8.7-1.1,1.37-1.93,1.05-3.11a7,7,0,0,1-2.65-3.89c-.25-.93-1.43-.61-2-.45s-.93,0-1.09-.63c.53-.42,1.54,0,2.45-.37l28.09-1.56-10.1-10.1Z"/><g id="text5463"><path id="path12396" d="M80.41,218.93H108v10H90.74v7.41h16v9.51h-16V255h17.79v10.56H80.41Z"/><path id="path12398" d="M111.81,218.93h11.35l5.91,14.35,5.74-14.35H146l-10.37,22.59,11.35,24H135.44l-6.57-15-6.6,15H110.76l11.51-24.3Z"/><path id="path12400" d="M150.28,218.93h17.13q5.59,0,8.38,3.72t2.79,10.6q0,7-3,11t-9.27,4h-5.64v17.31H150.28Zm10.35,19.88h2.52c2,0,3.38-.48,4.19-1.44a5.63,5.63,0,0,0,1.2-3.71,6.49,6.49,0,0,0-1-3.72c-.7-1-2-1.53-3.94-1.53h-2.93Z"/><path id="path12402" d="M184,218.93h10.3v35.15h16.09v11.48H184Z"/><path id="path12404" d="M213.81,242.28q0-11.42,4.55-17.78A14.71,14.71,0,0,1,231,218.14q8.33,0,12.83,6.25t4.51,17.51a38.67,38.67,0,0,1-2,13.41,18.17,18.17,0,0,1-5.69,8.14,14.59,14.59,0,0,1-9.27,2.91,16.31,16.31,0,0,1-9.34-2.51,17.53,17.53,0,0,1-6-8,35.12,35.12,0,0,1-2.3-13.61Zm10.31.06q0,7.07,1.87,10.15a5.76,5.76,0,0,0,5.11,3.09,5.7,5.7,0,0,0,5.14-3q1.83-3,1.82-10.85,0-6.59-1.9-9.62a5.8,5.8,0,0,0-5.15-3,5.67,5.67,0,0,0-5,3.08Q224.12,235.22,224.12,242.34Z"/><path id="path12406" d="M252.17,250.14l9.8-.86a13.26,13.26,0,0,0,1.3,5.09,5,5,0,0,0,4.55,2.83,4.15,4.15,0,0,0,3.4-1.45,5.07,5.07,0,0,0,1.19-3.35,5.14,5.14,0,0,0-1.13-3.25q-1.14-1.43-5.28-2.7-6.78-2.13-9.67-5.66a13.71,13.71,0,0,1-2.91-9,15.79,15.79,0,0,1,1.49-6.79,11.41,11.41,0,0,1,4.48-5,15.67,15.67,0,0,1,8.2-1.83q6.39,0,9.75,3.32t4,10.58l-9.71.79a8.59,8.59,0,0,0-1.63-4.58,4.31,4.31,0,0,0-3.42-1.43,3.37,3.37,0,0,0-2.71,1.07,3.83,3.83,0,0,0-.91,2.59,3,3,0,0,0,.75,2,7.17,7.17,0,0,0,3.46,1.72q6.75,2,9.68,4.12a12.23,12.23,0,0,1,4.25,5.17,17.22,17.22,0,0,1,1.33,6.9,19.27,19.27,0,0,1-1.77,8.27,12.93,12.93,0,0,1-5,5.74,15,15,0,0,1-8,2q-8.51,0-11.78-4.58a21.85,21.85,0,0,1-3.71-11.64Z"/><path id="path12408" d="M288,218.93h10.33v46.63H288Z"/><path id="path12410" d="M302.44,218.93h10.78l7.51,33.56,7.39-33.56h10.47l-12.38,46.63H315Z"/><path id="path12412" d="M341.93,218.93h27.62v10H352.26v7.41h16v9.51h-16V255h17.79v10.56H341.93Z"/><path id="path12414" d="M373.83,250.14l9.8-.86a13.26,13.26,0,0,0,1.3,5.09,5,5,0,0,0,4.55,2.83,4.15,4.15,0,0,0,3.4-1.45,5.07,5.07,0,0,0,1.19-3.35,5.14,5.14,0,0,0-1.13-3.25q-1.14-1.43-5.28-2.7-6.78-2.13-9.67-5.66a13.71,13.71,0,0,1-2.91-9,15.79,15.79,0,0,1,1.49-6.79,11.41,11.41,0,0,1,4.48-5,15.67,15.67,0,0,1,8.2-1.83q6.39,0,9.75,3.32T403,232l-9.71.79a8.59,8.59,0,0,0-1.63-4.58,4.31,4.31,0,0,0-3.42-1.43,3.37,3.37,0,0,0-2.71,1.07,3.83,3.83,0,0,0-.91,2.59,3,3,0,0,0,.75,2,7.17,7.17,0,0,0,3.46,1.72q6.75,2,9.68,4.12a12.23,12.23,0,0,1,4.25,5.17,17.22,17.22,0,0,1,1.33,6.9,19.27,19.27,0,0,1-1.77,8.27,12.93,12.93,0,0,1-5,5.74,15,15,0,0,1-8,2q-8.51,0-11.79-4.58a21.93,21.93,0,0,1-3.7-11.64Z"/></g><g id="text5467"><path id="path12417" d="M248.8,381.7v47.43h-9.37V398.05a25.66,25.66,0,0,1-9.74,6.78V394.2a21,21,0,0,0,7.35-5.12,21.36,21.36,0,0,0,4.09-7.38Z"/></g><g id="text5471"><path id="path12420" d="M225.46,316.12v47.42h-9.37V332.47a30.12,30.12,0,0,1-4.4,3.91,29.1,29.1,0,0,1-5.34,2.86V328.62a21.14,21.14,0,0,0,7.35-5.12,21.54,21.54,0,0,0,4.09-7.38Z"/><path id="path12422" d="M236.49,350.57h9.9v13h-9.9Z"/><path id="path12424" d="M260.13,330.4l-8.76-2.2q1.09-5.85,4.2-9c2.07-2.08,5-3.11,8.79-3.11q6.52,0,9.44,3.4a12.71,12.71,0,0,1,2.91,8.56,12.43,12.43,0,0,1-1.18,5.47,12.08,12.08,0,0,1-3.57,4.29,9.22,9.22,0,0,1,3,1.56,9.52,9.52,0,0,1,2.58,3.77,15.31,15.31,0,0,1,.92,5.58,20.4,20.4,0,0,1-1.53,7.81,12.61,12.61,0,0,1-4.39,5.76,12.78,12.78,0,0,1-7.53,2,14.49,14.49,0,0,1-7.17-1.5,11.69,11.69,0,0,1-4.32-4.37,24,24,0,0,1-2.61-7.24l9.26-1.71a12.31,12.31,0,0,0,1.69,5.42,3.53,3.53,0,0,0,2.93,1.51,3.63,3.63,0,0,0,3.1-1.91,9.2,9.2,0,0,0,1.24-5.09,9,9,0,0,0-1.19-5,3.73,3.73,0,0,0-3.24-1.79,8.84,8.84,0,0,0-3,.77l.48-9.26a6.17,6.17,0,0,0,1.21.16,3.66,3.66,0,0,0,3-1.62,6.19,6.19,0,0,0,1.22-3.85,5.69,5.69,0,0,0-.91-3.4,2.91,2.91,0,0,0-2.5-1.28,3.15,3.15,0,0,0-2.66,1.39,10.23,10.23,0,0,0-1.39,4.85Z"/></g></g></g></g></svg>