<svg xmlns="http://www.w3.org/2000/svg" viewBox="0 0 487.33 487.33"><defs><style>.cls-1,.cls-2{fill:#fff;}.cls-1{stroke:#000;stroke-miterlimit:2.88;stroke-width:2px;}.cls-3{fill-rule:evenodd;}</style></defs><g id="Ebene_2" data-name="Ebene 2"><g id="svg3267"><g id="g5137"><path id="rect7379" class="cls-1" d="M243.66,1.41,485.91,243.66,243.66,485.91,1.41,243.66Z"/><path id="path7381" d="M25.2,243.67,243.65,462.13,462.14,243.67Z"/><path id="path7383" d="M243.65,21.92,21.91,243.66,243.65,465.4,465.39,243.66,243.65,21.92Zm0,5,216.7,216.7-216.7,216.7L27,243.66,243.65,27Z"/><g id="text7385"><path id="path11277" class="cls-2" d="M234.79,405.48a10.26,10.26,0,0,1-3.18-3.63,13.91,13.91,0,0,1-1.37-6.3,12.56,12.56,0,0,1,3.94-9.57,11.41,11.41,0,0,1,8.12-2.87q6.69,0,9.88,3.57a12.92,12.92,0,0,1,3.2,9,13.73,13.73,0,0,1-1.28,5.88,12.94,12.94,0,0,1-3,4,11.1,11.1,0,0,1,4,4.8,16,16,0,0,1,1.33,6.62,18.19,18.19,0,0,1-1.15,6.53,12.87,12.87,0,0,1-2.82,4.7,10.08,10.08,0,0,1-4.16,2.43,17.67,17.67,0,0,1-5.31.78c-3.54,0-6.24-.59-8.1-1.75a11,11,0,0,1-4.26-5.15,19.19,19.19,0,0,1-1.45-7.61,16,16,0,0,1,1.36-6.95,9.73,9.73,0,0,1,4.21-4.4Zm4.16-9.16a6.43,6.43,0,0,0,1.08,3.89,3.38,3.38,0,0,0,2.88,1.48,3.1,3.1,0,0,0,2.62-1.46,6.5,6.5,0,0,0,1-3.79,6.62,6.62,0,0,0-1.07-3.93,3.25,3.25,0,0,0-5.47,0A6.51,6.51,0,0,0,239,396.32Zm-.5,20.07a8.69,8.69,0,0,0,1.35,5,3.77,3.77,0,0,0,3.07,2,3.7,3.7,0,0,0,3-2,10.29,10.29,0,0,0,0-10.1,3.75,3.75,0,0,0-3.09-2,3.64,3.64,0,0,0-3,1.9,9.1,9.1,0,0,0-1.29,5.16Z"/></g><g id="g7391"><g id="text7393"><path id="path11280" class="cls-2" d="M134.7,280.11l7.64,3.23a24.3,24.3,0,0,1-2.43,7.5,12,12,0,0,1-4.11,4.55,11.59,11.59,0,0,1-6.24,1.53,13.66,13.66,0,0,1-7.51-1.87c-2-1.24-3.62-3.44-5-6.57a29.59,29.59,0,0,1-2.12-12.06q0-9.8,3.72-15.05a12.15,12.15,0,0,1,10.54-5.26,11.45,11.45,0,0,1,8.38,3q3,3,4.53,9.26l-7.7,2.39a10.89,10.89,0,0,0-.85-2.63,5.88,5.88,0,0,0-1.79-2.16,4,4,0,0,0-2.36-.75q-3,0-4.54,3.34c-.8,1.65-1.19,4.24-1.19,7.77q0,6.57,1.42,9a4.43,4.43,0,0,0,4,2.44,4.22,4.22,0,0,0,3.78-2,14.85,14.85,0,0,0,1.86-5.7Z"/><path id="path11282" class="cls-2" d="M145.45,276.53q0-9.66,3.85-15A12.44,12.44,0,0,1,160,256.11a12.57,12.57,0,0,1,10.85,5.29q3.81,5.28,3.81,14.81A32.63,32.63,0,0,1,173,287.55a15.3,15.3,0,0,1-4.81,6.88,12.27,12.27,0,0,1-7.84,2.47,13.69,13.69,0,0,1-7.89-2.13A14.73,14.73,0,0,1,147.4,288,29.57,29.57,0,0,1,145.45,276.53Zm8.72.05q0,6,1.59,8.59a4.92,4.92,0,0,0,8.66.05q1.54-2.55,1.54-9.17,0-5.58-1.6-8.14a5,5,0,0,0-4.36-2.57,4.82,4.82,0,0,0-4.24,2.61Q154.17,270.56,154.17,276.58Z"/><path id="path11284" class="cls-2" d="M179.53,296.22V256.78h14.52a15.59,15.59,0,0,1,6.18,1,7.31,7.31,0,0,1,3.44,3.59,14.24,14.24,0,0,1,1.31,6.39,14.55,14.55,0,0,1-1,5.67,10.12,10.12,0,0,1-2.75,3.86,9.3,9.3,0,0,1-3.06,1.56,7.94,7.94,0,0,1,2.27,1.45,11.44,11.44,0,0,1,1.39,2.07,17.71,17.71,0,0,1,1.23,2.45l4.21,11.43h-9.85l-4.66-12.05a9.46,9.46,0,0,0-1.58-3,3,3,0,0,0-2.13-.91h-.77v16Zm8.75-23.46H192a10,10,0,0,0,2.31-.53,2.42,2.42,0,0,0,1.42-1.24,4.76,4.76,0,0,0,.55-2.29,4.4,4.4,0,0,0-.87-2.93c-.58-.68-1.66-1-3.25-1h-3.83Z"/><path id="path11286" class="cls-2" d="M210.16,296.22V256.78h14.52a15.62,15.62,0,0,1,6.18,1,7.31,7.31,0,0,1,3.44,3.59,14.24,14.24,0,0,1,1.31,6.39,14.55,14.55,0,0,1-1,5.67,10.23,10.23,0,0,1-2.75,3.86,9.3,9.3,0,0,1-3.06,1.56,7.94,7.94,0,0,1,2.27,1.45,11.44,11.44,0,0,1,1.39,2.07,17.71,17.71,0,0,1,1.23,2.45l4.21,11.43h-9.85l-4.66-12.05a9.46,9.46,0,0,0-1.58-3,3,3,0,0,0-2.13-.91h-.77v16Zm8.75-23.46h3.67a10,10,0,0,0,2.31-.53,2.42,2.42,0,0,0,1.42-1.24,4.76,4.76,0,0,0,.55-2.29,4.4,4.4,0,0,0-.87-2.93c-.58-.68-1.66-1-3.25-1h-3.83Z"/><path id="path11288" class="cls-2" d="M239.57,276.53q0-9.66,3.85-15a12.44,12.44,0,0,1,10.72-5.38A12.57,12.57,0,0,1,265,261.4q3.81,5.28,3.81,14.81a32.63,32.63,0,0,1-1.67,11.34,15.3,15.3,0,0,1-4.81,6.88,12.27,12.27,0,0,1-7.84,2.47,13.69,13.69,0,0,1-7.89-2.13,14.73,14.73,0,0,1-5.07-6.73,29.57,29.57,0,0,1-2-11.51Zm8.72.05q0,6,1.59,8.59a4.92,4.92,0,0,0,8.66.05q1.54-2.55,1.54-9.17,0-5.58-1.6-8.14a5,5,0,0,0-4.36-2.57,4.79,4.79,0,0,0-4.23,2.61q-1.6,2.61-1.6,8.63Z"/><path id="path11290" class="cls-2" d="M272,283.18l8.29-.73a11.21,11.21,0,0,0,1.1,4.3,4.21,4.21,0,0,0,3.85,2.4,3.5,3.5,0,0,0,2.87-1.23,4.44,4.44,0,0,0,.05-5.58q-1-1.21-4.46-2.29-5.73-1.8-8.18-4.78a11.59,11.59,0,0,1-2.46-7.62,13.43,13.43,0,0,1,1.26-5.74,9.64,9.64,0,0,1,3.79-4.25,13.29,13.29,0,0,1,6.94-1.55q5.4,0,8.24,2.81t3.38,8.95l-8.22.67a7.3,7.3,0,0,0-1.37-3.87,3.63,3.63,0,0,0-2.9-1.21,2.85,2.85,0,0,0-2.29.9,3.27,3.27,0,0,0-.77,2.19,2.51,2.51,0,0,0,.64,1.69,6.06,6.06,0,0,0,2.92,1.46,29.59,29.59,0,0,1,8.19,3.48,10.41,10.41,0,0,1,3.59,4.37,14.62,14.62,0,0,1,1.13,5.84,16.32,16.32,0,0,1-1.5,7,11,11,0,0,1-4.19,4.85,12.83,12.83,0,0,1-6.8,1.66c-4.79,0-8.12-1.3-10-3.88a18.45,18.45,0,0,1-3.14-9.84Z"/><path id="path11292" class="cls-2" d="M302.35,256.78h8.74v39.44h-8.74Z"/><path id="path11294" class="cls-2" d="M314.53,256.78h9.12L330,285.17l6.25-28.39h8.85l-10.46,39.44h-9.45Z"/><path id="path11296" class="cls-2" d="M347.93,256.78h23.36v8.42H356.67v6.27h13.56v8H356.67v7.77h15v8.93H347.93Z"/></g></g><path id="path2017" class="cls-3" d="M260.48,76.81l-1.88.44L259,79l-46,10.43c-9.78,2.08-6.72,17.51,3,16.06L262.79,95l.55,2.17,1.83-.45-4.69-19.9Zm-.91,4.29,2.72,11.67-12.45,2.81s-30.1.32-40.26.13c.74-2.22,1.71-3.62,5.92-4.62C226.64,88.5,259.57,81.1,259.57,81.1Zm9.68,28.07c-.7,1.36-1.35,3.34-2.1,4.65-2,3.56-3.3,6-3.58,10.29-.45,7,8.27,7.71,8.73.7.27-4.16-1.7-7.26-2.33-11l-.72-4.27v-.38Zm-.74,5.07.29,7c.14,3.46-.57,5.42-1.57,5.51s-1.56-.21-1.56-3.74S268.24,116.14,268.51,114.24Zm-81.29,2.45-2.75,19.19,2.19.36.36-2.08,46,4.7c9.78.72,10.81-14.42.94-15.14l-44.55-5.13.26-1.6-2.47-.3Zm1.91,3.7s33.84,3.77,45.13,5c4.74.75,4.8,3.71,4.71,7.24l-51.69-.3,1.85-11.94Zm78,21.7c-.7,1.36-1.35,3.33-2.09,4.63-2.05,3.56-3.31,6.21-3.59,10.46-.45,7,8.28,7.56,8.73.55.27-4.16-1.68-7.27-2.31-11l-.74-4.27v-.36Zm-83.34,0c-.7,1.36-1.35,3.32-2.1,4.63-2,3.56-3.2,5.82-3.47,10.07-.45,7,8.15,7.94,8.6.94.27-4.17-1.68-7.28-2.31-11l-.72-4.27v-.36Zm82.34,5,.56,7.07c.28,3.45-.58,5.43-1.58,5.52s-1.61-.16-1.61-3.69,2.36-7,2.63-8.9Zm-83.36,0,.56,7.07c.28,3.46-.41,4.93-1.4,5s-1.72-.26-1.72-3.8,2.29-6.38,2.56-8.29ZM277.85,162a1.25,1.25,0,0,0-.78.41c-1.36,2.81-2.08,5.08,0,7.16,3.53,4.17,6.25,4.18,14.67,6.35,1.36.64,1.82,2.1.37,2.1l-17.84.17c-.72,2.81-7.89,7.25-11.42-.45a2.38,2.38,0,0,0-1.17.28c.72,1.36-7.42,6.07-8.05,0H241c-7.7,0-8.7,10.41-1,10.41H282c2.09,0,2.27,1.55.55,2.27l-50.8-.08c-6.24,0-5.79,9.06.46,9.06H277.8c1.09.63,1.36,1.37,0,2.09H236.59c-7.69.64-7.24,10.51.46,10.51h47.73c1.36,0,1.62,1.37.27,2.1H251.91c-7,0-6.71,8.34.26,8.34h32.61c2.81-.73,14.21,1.46,16.3,2.09a136,136,0,0,0,15.84.72c16.48-.73,22.27-2.09,32.78-5.63v-39.8A481.25,481.25,0,0,0,297,165.71,39,39,0,0,1,286.12,164a10.39,10.39,0,0,1-3.51-.64c-2.81-1-4-1.4-4.76-1.32ZM181,169.77c-.7,1.36-1.34,3.33-2.09,4.63-2,3.56-3.2,6.1-3.47,10.36-.45,7,8.16,7.66,8.61.65.27-4.16-1.68-7.27-2.31-11l-.74-4.27v-.36Zm-1,5,.57,7.06c.27,3.45-.59,5.43-1.58,5.52s-1.68-.05-1.68-3.58,2.42-7.09,2.69-9Zm-42.33,21.67v15.32h76.6V196.46H192.9c.21,0-.19.23-.85.81a3.28,3.28,0,0,0-1.26,2.72c0,.73-1.45.55-2.18.55a2.31,2.31,0,0,0-1.19.17,4,4,0,0,0-2.25,1.45c-.42.48-1.09.25-1.55,1.1a2.81,2.81,0,0,1-2.53,1.62c-.73,0-.63-.15-1.53-.64-.56-.3-1.55.48-2.18-.07s-1.16-.75-1.26-2.19c0-.21-.74-.64-.74-1.36,0-.19-.62.32-1.27,0-.91-.46-.7-.74-.81-1.37,0-.12-.5-.35-.62-.62a5.58,5.58,0,0,1-.1-2.17Z"/></g></g></g></svg>