<svg xmlns="http://www.w3.org/2000/svg" viewBox="0 0 487.33 487.33"><defs><style>.cls-1{fill:#fff;stroke:#000;stroke-miterlimit:3.86;stroke-width:2px;}.cls-2{fill:red;}</style></defs><g id="Ebene_2" data-name="Ebene 2"><g id="svg3267"><g id="g7533"><path id="rect6876" class="cls-1" d="M243.66,1.41,485.91,243.66,243.66,485.91,1.41,243.66Z"/><path id="path6878" d="M243.65,21.92,21.91,243.66,243.65,465.4,465.39,243.66Zm0,5,216.7,216.7-216.7,216.7L27,243.66Z"/><g id="text6880"><path id="path11784" d="M229.38,383.91h27v8.75a46.79,46.79,0,0,0-5.89,9.64,68,68,0,0,0-4.52,14,90.13,90.13,0,0,0-1.78,14.22H235a99.7,99.7,0,0,1,3.43-19.15,79.89,79.89,0,0,1,7.42-16.54H229.38Z"/></g><path id="path6890" d="M210.09,94.46a67.08,67.08,0,0,0-33.53,58.12H219.5a24.13,24.13,0,0,1,12.08-20.89L210.09,94.46Zm67.13,0-21.5,37.23a24.13,24.13,0,0,1,12.08,20.89h42.94a67.09,67.09,0,0,0-33.52-58.12Zm-33.57,41a17.13,17.13,0,1,0,17.11,17.15A17.16,17.16,0,0,0,243.65,135.43Zm-12.07,38L210.09,210.7a67.28,67.28,0,0,0,67.13,0l-21.5-37.23a24,24,0,0,1-24.14,0Z"/><path id="rect6913" d="M25.07,242.47H462.23v2.38H25.07Z"/><g id="g6933"><g id="text6884"><path id="path11788" d="M106.22,288.5V256.55H118a12.58,12.58,0,0,1,5,.78,5.83,5.83,0,0,1,2.79,2.91,11.47,11.47,0,0,1,1.06,5.18A11.84,11.84,0,0,1,126,270a8.11,8.11,0,0,1-2.23,3.12,7.27,7.27,0,0,1-2.48,1.27,6,6,0,0,1,1.84,1.18,9.19,9.19,0,0,1,1.13,1.67,12.27,12.27,0,0,1,1,2l3.42,9.26h-8l-3.78-9.76a7.74,7.74,0,0,0-1.27-2.47,2.45,2.45,0,0,0-1.74-.74h-.62v13Zm7.09-19h3a7.88,7.88,0,0,0,1.87-.43,1.94,1.94,0,0,0,1.15-1,3.87,3.87,0,0,0,.44-1.86,3.55,3.55,0,0,0-.7-2.37,3.34,3.34,0,0,0-2.64-.83h-3.1Z"/><path id="path11790" d="M145,283.23h-8l-1.11,5.27h-7.22l8.59-31.95h7.7l8.59,31.95h-7.39Zm-1.48-6.91L141,264.83l-2.51,11.49Z"/><path id="path11792" d="M155.85,256.55h10.49a9.48,9.48,0,0,1,5,1.17,9.14,9.14,0,0,1,3.16,3.38,17,17,0,0,1,1.81,5.12,33.14,33.14,0,0,1,.56,6.19,29.69,29.69,0,0,1-.83,7.95,14.22,14.22,0,0,1-2.32,4.73,7.45,7.45,0,0,1-3.18,2.54,12.13,12.13,0,0,1-4.21.87H155.85Zm7.06,7.23v17.46h1.73a5.53,5.53,0,0,0,3.15-.68,4.56,4.56,0,0,0,1.47-2.4,20.79,20.79,0,0,0,.53-5.55c0-3.39-.4-5.7-1.19-6.95a4.29,4.29,0,0,0-3.93-1.88Z"/><path id="path11794" d="M180.85,256.55h7.08V288.5h-7.08Z"/><path id="path11796" d="M192.09,272.55q0-7.83,3.12-12.19a10.06,10.06,0,0,1,8.68-4.36,10.21,10.21,0,0,1,8.8,4.28q3.08,4.29,3.08,12a26.42,26.42,0,0,1-1.35,9.19,12.35,12.35,0,0,1-3.89,5.58,10,10,0,0,1-6.36,2,11.09,11.09,0,0,1-6.39-1.73,11.92,11.92,0,0,1-4.11-5.45,24,24,0,0,1-1.58-9.32Zm7.07,0c0,3.22.42,5.54,1.28,7a4,4,0,0,0,3.5,2.12,3.9,3.9,0,0,0,3.52-2.07c.84-1.38,1.25-3.86,1.25-7.44,0-3-.43-5.2-1.3-6.59a4,4,0,0,0-3.53-2.08,3.88,3.88,0,0,0-3.43,2.11q-1.29,2.12-1.29,7Z"/><path id="path11798" d="M233.67,283.23h-8l-1.1,5.27H217.3l8.59-31.95h7.7l8.59,31.95h-7.39Zm-1.48-6.91-2.53-11.49-2.51,11.49Z"/><path id="path11800" d="M259.64,275.44l6.19,2.62a19.4,19.4,0,0,1-2,6.08,9.58,9.58,0,0,1-3.33,3.68,9.36,9.36,0,0,1-5,1.25,11.08,11.08,0,0,1-6.09-1.52,11.87,11.87,0,0,1-4.08-5.33,24,24,0,0,1-1.71-9.76q0-7.93,3-12.2a9.85,9.85,0,0,1,8.54-4.26,9.27,9.27,0,0,1,6.79,2.44,15.41,15.41,0,0,1,3.67,7.5l-6.24,1.94a9.3,9.3,0,0,0-.68-2.14,5,5,0,0,0-1.45-1.74,3.2,3.2,0,0,0-1.92-.61q-2.4,0-3.68,2.7a15.42,15.42,0,0,0-1,6.3q0,5.33,1.16,7.29a3.58,3.58,0,0,0,3.24,2,3.42,3.42,0,0,0,3.06-1.59,12,12,0,0,0,1.51-4.63Z"/><path id="path11802" d="M267.63,256.55H289.1v7.89h-7.2V288.5h-7.06V264.44h-7.21Z"/><path id="path11804" d="M292.59,256.55h7.08V288.5h-7.08Z"/><path id="path11806" d="M302.46,256.55h7.39l5.14,23,5.07-23h7.17l-8.48,31.95h-7.66Z"/><path id="path11808" d="M329.52,256.55h18.92v6.82H336.6v5.08h11V275h-11v6.3h12.19v7.24H329.52Z"/></g><g id="text6915"><path id="path11811" class="cls-2" d="M372.32,256.55h8.76V288.5h-8.76Z"/></g></g><g id="text6929"><path id="path11814" d="M176.48,304.57l2.35,1a7.21,7.21,0,0,1-.74,2.31,3.69,3.69,0,0,1-1.27,1.4,3.59,3.59,0,0,1-1.92.47,4.26,4.26,0,0,1-2.32-.57,4.65,4.65,0,0,1-1.55-2,9.21,9.21,0,0,1-.65-3.71,7.93,7.93,0,0,1,1.15-4.64,3.74,3.74,0,0,1,3.24-1.62,3.53,3.53,0,0,1,2.59.93,5.85,5.85,0,0,1,1.39,2.85l-2.37.74a3.61,3.61,0,0,0-.26-.82,1.91,1.91,0,0,0-.55-.66,1.26,1.26,0,0,0-.73-.23,1.51,1.51,0,0,0-1.4,1,5.85,5.85,0,0,0-.37,2.39,6.05,6.05,0,0,0,.44,2.77,1.37,1.37,0,0,0,1.23.75,1.3,1.3,0,0,0,1.17-.6,4.59,4.59,0,0,0,.57-1.76Z"/><path id="path11816" d="M179.79,303.47a7.85,7.85,0,0,1,1.19-4.63,4.17,4.17,0,0,1,6.64,0,7.61,7.61,0,0,1,1.18,4.56,10.09,10.09,0,0,1-.51,3.49A4.82,4.82,0,0,1,186.8,309a3.81,3.81,0,0,1-2.41.75,4.19,4.19,0,0,1-2.43-.65,4.56,4.56,0,0,1-1.57-2.07,9.17,9.17,0,0,1-.6-3.55Zm2.69,0a5.29,5.29,0,0,0,.49,2.64,1.52,1.52,0,0,0,2.67,0,6,6,0,0,0,.47-2.83,4.91,4.91,0,0,0-.49-2.51,1.53,1.53,0,0,0-1.34-.79,1.48,1.48,0,0,0-1.31.81,5.3,5.3,0,0,0-.49,2.66Z"/><path id="path11818" d="M190.27,297.39h2.51l3.27,6.72v-6.72h2.53v12.15h-2.53l-3.25-6.68v6.68h-2.53Z"/><path id="path11820" d="M199.77,297.39h8.16v3h-2.74v9.15h-2.68v-9.15h-2.74Z"/><path id="path11822" d="M209.15,297.39h7.19V300h-4.5v1.93H216v2.48h-4.18v2.39h4.63v2.76h-7.32Z"/><path id="path11824" d="M217.94,297.39h2.51l3.27,6.72v-6.72h2.53v12.15h-2.53l-3.25-6.68v6.68h-2.53Z"/><path id="path11826" d="M227.44,297.39h8.16v3h-2.74v9.15h-2.69v-9.15h-2.73Z"/><path id="path11828" d="M236.35,305.52l2.56-.23a3.38,3.38,0,0,0,.33,1.33,1.32,1.32,0,0,0,1.19.74,1.07,1.07,0,0,0,.88-.38,1.35,1.35,0,0,0,0-1.72,3,3,0,0,0-1.38-.7,5.21,5.21,0,0,1-2.51-1.48,3.53,3.53,0,0,1-.76-2.35,4.08,4.08,0,0,1,.39-1.76,2.84,2.84,0,0,1,1.16-1.31,4.06,4.06,0,0,1,2.14-.48,3.45,3.45,0,0,1,2.54.87,4.28,4.28,0,0,1,1,2.75l-2.53.21a2.24,2.24,0,0,0-.43-1.2,1.13,1.13,0,0,0-.89-.37.86.86,0,0,0-.7.28,1,1,0,0,0-.24.67.81.81,0,0,0,.2.53,1.75,1.75,0,0,0,.9.44,9.42,9.42,0,0,1,2.52,1.08,3.17,3.17,0,0,1,1.11,1.34,4.55,4.55,0,0,1,.34,1.8,5,5,0,0,1-.46,2.16,3.38,3.38,0,0,1-1.29,1.49,3.92,3.92,0,0,1-2.09.51,3.52,3.52,0,0,1-3.07-1.19,5.77,5.77,0,0,1-1-3Z"/><path id="path11830" d="M249.49,306.15h2.58v3.39h-2.58Z"/><path id="path11832" d="M253.55,306.15h2.57v3.39h-2.57Z"/><path id="path11834" d="M257.6,306.15h2.58v3.39H257.6Z"/><path id="path11836" d="M261.65,306.15h2.58v3.39h-2.58Z"/><path id="path11838" d="M265.71,306.15h2.58v3.39h-2.58Z"/><path id="path11840" d="M269.76,306.15h2.58v3.39h-2.58Z"/><path id="path11842" d="M273.82,306.15h2.57v3.39h-2.57Z"/><path id="path11844" d="M277.87,306.15h2.58v3.39h-2.58Z"/><path id="path11846" d="M281.92,306.15h2.58v3.39h-2.58Z"/><path id="path11848" d="M286,306.15h2.58v3.39H286Z"/><path id="path11850" d="M290,306.15h2.58v3.39H290Z"/><path id="path11852" d="M294.09,306.15h2.57v3.39h-2.57Z"/><path id="path11854" d="M298.14,306.15h2.58v3.39h-2.58Z"/><path id="path11856" d="M302.19,306.15h2.58v3.39h-2.58Z"/><path id="path11858" d="M306.25,306.15h2.58v3.39h-2.58Z"/><path id="path11860" d="M310.3,306.15h2.58v3.39H310.3Z"/><path id="path11862" d="M314.36,306.15h2.58v3.39h-2.58Z"/><path id="path11864" d="M187.21,322.81h-3.06l-.42,2H181l3.26-12.15h2.93l3.27,12.15h-2.81Zm-.56-2.63-1-4.37-1,4.37Z"/><path id="path11866" d="M197.08,319.85l2.36,1a7.29,7.29,0,0,1-.75,2.31,3.72,3.72,0,0,1-1.27,1.41,3.59,3.59,0,0,1-1.92.47,4.17,4.17,0,0,1-2.31-.58,4.47,4.47,0,0,1-1.55-2,9.06,9.06,0,0,1-.65-3.72,8,8,0,0,1,1.14-4.63,3.76,3.76,0,0,1,3.25-1.62,3.51,3.51,0,0,1,2.58.92,5.85,5.85,0,0,1,1.39,2.85L197,317a3.34,3.34,0,0,0-.26-.81,1.74,1.74,0,0,0-.55-.66,1.21,1.21,0,0,0-.73-.24,1.54,1.54,0,0,0-1.4,1,6,6,0,0,0-.36,2.4,6.08,6.08,0,0,0,.43,2.77,1.38,1.38,0,0,0,1.24.75,1.3,1.3,0,0,0,1.16-.6,4.48,4.48,0,0,0,.57-1.76Z"/><path id="path11868" d="M200.12,312.66h8.17v3h-2.74v9.15h-2.69v-9.15h-2.74Z"/><path id="path11870" d="M209.61,312.66h2.69v12.15h-2.69Z"/><path id="path11872" d="M213.37,312.66h2.81l1.95,8.75,1.93-8.75h2.72l-3.22,12.15h-2.91Z"/><path id="path11874" d="M223.77,312.66h2.69v12.15h-2.69Z"/><path id="path11876" d="M227.77,312.66h8.16v3h-2.74v9.15h-2.68v-9.15h-2.74Z"/><path id="path11878" d="M236.27,312.66h3l1.75,4.1,1.75-4.1h3l-3.38,7.06v5.09h-2.69v-5.09Z"/><path id="path11880" d="M250.49,321.43h2.58v3.38h-2.58Z"/><path id="path11882" d="M254.54,321.43h2.58v3.38h-2.58Z"/><path id="path11884" d="M258.6,321.43h2.57v3.38H258.6Z"/><path id="path11886" d="M262.65,321.43h2.58v3.38h-2.58Z"/><path id="path11888" d="M266.7,321.43h2.58v3.38H266.7Z"/><path id="path11890" d="M270.76,321.43h2.58v3.38h-2.58Z"/><path id="path11892" d="M274.81,321.43h2.58v3.38h-2.58Z"/><path id="path11894" d="M278.87,321.43h2.57v3.38h-2.57Z"/><path id="path11896" d="M282.92,321.43h2.58v3.38h-2.58Z"/><path id="path11898" d="M287,321.43h2.58v3.38H287Z"/><path id="path11900" d="M291,321.43h2.58v3.38H291Z"/><path id="path11902" d="M295.08,321.43h2.58v3.38h-2.58Z"/><path id="path11904" d="M299.14,321.43h2.57v3.38h-2.57Z"/><path id="path11906" d="M303.19,321.43h2.58v3.38h-2.58Z"/></g></g></g></g></svg>