<svg xmlns="http://www.w3.org/2000/svg" viewBox="0 0 487.33 487.33"><defs><style>.cls-1{fill:#fff;stroke:#000;stroke-miterlimit:3.86;stroke-width:2px;}</style></defs><g id="Ebene_2" data-name="Ebene 2"><g id="svg3267"><g id="g5734"><path id="rect5652" class="cls-1" d="M243.66,1.41,485.91,243.66,243.66,485.91,1.41,243.66Z"/><path id="path5654" d="M243.65,21.92,21.91,243.66,243.65,465.4,465.39,243.66Zm0,5,216.7,216.7-216.7,216.7L27,243.66Z"/><g id="text5662"><path id="path12243" d="M256.33,430.54h-27.8a30.75,30.75,0,0,1,2.91-10.83q2.42-5.07,9.08-12a32.91,32.91,0,0,0,5.21-6.43,9,9,0,0,0,1.14-4.17,5.87,5.87,0,0,0-1.13-3.64,3.39,3.39,0,0,0-2.83-1.51,3.44,3.44,0,0,0-2.9,1.56q-1.12,1.56-1.51,5.5L229.22,398a26.54,26.54,0,0,1,2-8.54,10.84,10.84,0,0,1,4.11-4.71,14,14,0,0,1,7.33-1.64,15.51,15.51,0,0,1,7.61,1.56,10.7,10.7,0,0,1,4.28,4.79,16.43,16.43,0,0,1,1.56,7.24,19.27,19.27,0,0,1-1.79,8.14,30.66,30.66,0,0,1-6.49,8.53q-2.81,2.7-3.75,3.78c-.63.72-1.36,1.67-2.21,2.83h14.46Z"/></g><g id="text5686"><path id="path12246" d="M83.23,220.35h17.13q5.6,0,8.38,3.72t2.79,10.59q0,7.07-3,11t-9.27,4H93.58V267H83.23Zm10.35,19.88H96.1c2,0,3.39-.48,4.19-1.45a5.61,5.61,0,0,0,1.21-3.71,6.42,6.42,0,0,0-1-3.72c-.7-1-2-1.52-3.94-1.52H93.58Z"/><path id="path12248" d="M115.64,243.69q0-11.41,4.55-17.78a14.72,14.72,0,0,1,12.68-6.36q8.32,0,12.83,6.25t4.5,17.51a38.67,38.67,0,0,1-2,13.41,18.17,18.17,0,0,1-5.68,8.14,14.59,14.59,0,0,1-9.27,2.91,16.19,16.19,0,0,1-9.34-2.51,17.39,17.39,0,0,1-6-7.95A35.2,35.2,0,0,1,115.64,243.69Zm10.31.07q0,7.06,1.88,10.15a5.83,5.83,0,0,0,10.25.06q1.81-3,1.82-10.85c0-4.39-.64-7.59-1.9-9.62a5.83,5.83,0,0,0-5.16-3,5.68,5.68,0,0,0-5,3.09Q126,236.64,126,243.76Z"/><path id="path12250" d="M156.21,220.35h10.32V267H156.21Z"/><path id="path12252" d="M172.11,251.55l9.8-.86a13.21,13.21,0,0,0,1.3,5.09,5,5,0,0,0,4.55,2.83,4.17,4.17,0,0,0,3.4-1.44,5.27,5.27,0,0,0,.06-6.6q-1.14-1.44-5.28-2.71-6.78-2.13-9.67-5.66a13.67,13.67,0,0,1-2.91-9,15.91,15.91,0,0,1,1.49-6.79,11.44,11.44,0,0,1,4.48-5,15.67,15.67,0,0,1,8.2-1.83q6.39,0,9.75,3.33t4,10.57l-9.71.8a8.56,8.56,0,0,0-1.63-4.58,4.28,4.28,0,0,0-3.42-1.43,3.37,3.37,0,0,0-2.71,1.06,3.85,3.85,0,0,0-.91,2.59,3,3,0,0,0,.75,2,7.35,7.35,0,0,0,3.46,1.72c4.5,1.35,7.73,2.73,9.68,4.11A12.29,12.29,0,0,1,201,244.9a17.24,17.24,0,0,1,1.33,6.91,19.3,19.3,0,0,1-1.77,8.27,13,13,0,0,1-5,5.74,15.14,15.14,0,0,1-8,1.95q-8.5,0-11.79-4.58a21.93,21.93,0,0,1-3.7-11.64Z"/><path id="path12254" d="M206.28,243.69q0-11.41,4.55-17.78a14.69,14.69,0,0,1,12.67-6.36q8.33,0,12.83,6.25t4.5,17.51a38.67,38.67,0,0,1-2,13.41,18.1,18.1,0,0,1-5.68,8.14,14.59,14.59,0,0,1-9.27,2.91,16.19,16.19,0,0,1-9.34-2.51,17.39,17.39,0,0,1-6-7.95,35.22,35.22,0,0,1-2.29-13.62Zm10.3.07q0,7.06,1.88,10.15a5.83,5.83,0,0,0,10.25.06q1.81-3,1.82-10.85c0-4.39-.64-7.59-1.9-9.62a5.83,5.83,0,0,0-5.16-3,5.68,5.68,0,0,0-5,3.09Q216.58,236.64,216.58,243.76Z"/><path id="path12256" d="M246.5,220.35h9.62l12.56,25.79V220.35h9.71V267h-9.71l-12.49-25.61V267H246.5Z"/><path id="path12258" d="M317.61,250.09v-9.7h15.92v19.88a30.83,30.83,0,0,1-8.09,5.93,20.23,20.23,0,0,1-8.33,1.57,15.58,15.58,0,0,1-9.68-2.83,17.88,17.88,0,0,1-5.8-8.43,36.9,36.9,0,0,1-2.06-12.85,35.78,35.78,0,0,1,2.25-13.28,18,18,0,0,1,6.6-8.57q3.39-2.26,9.12-2.26,5.52,0,8.27,1.4a11.44,11.44,0,0,1,4.55,4.34,23,23,0,0,1,2.72,7.46l-9.94,2.48a7.93,7.93,0,0,0-2.09-4,5.19,5.19,0,0,0-3.74-1.4,6.1,6.1,0,0,0-5.4,3.3q-2,3.28-2,10.41,0,7.58,2,10.82a6.37,6.37,0,0,0,5.68,3.24,8,8,0,0,0,3.3-.7,16.21,16.21,0,0,0,3.59-2.38v-4.39Z"/><path id="path12260" d="M360.22,259.28H348.48l-1.62,7.7H336.33l12.53-46.63H360.1L372.64,267H361.85Zm-2.17-10.08-3.68-16.77-3.66,16.77Z"/><path id="path12262" d="M374.12,251.55l9.8-.86a13,13,0,0,0,1.3,5.09,5,5,0,0,0,4.55,2.83,4.17,4.17,0,0,0,3.4-1.44,5.17,5.17,0,0,0,1.19-3.36,5,5,0,0,0-1.14-3.24q-1.12-1.44-5.27-2.71-6.78-2.13-9.67-5.66a13.67,13.67,0,0,1-2.91-9,15.76,15.76,0,0,1,1.49-6.79,11.38,11.38,0,0,1,4.48-5,15.67,15.67,0,0,1,8.2-1.83q6.39,0,9.75,3.33t4,10.57l-9.71.8a8.56,8.56,0,0,0-1.63-4.58,4.28,4.28,0,0,0-3.42-1.43,3.36,3.36,0,0,0-2.71,1.06,3.85,3.85,0,0,0-.91,2.59,3,3,0,0,0,.75,2,7.3,7.3,0,0,0,3.46,1.72c4.5,1.35,7.73,2.73,9.68,4.11A12.36,12.36,0,0,1,403,244.9a17.24,17.24,0,0,1,1.33,6.91,19.3,19.3,0,0,1-1.77,8.27,13.1,13.1,0,0,1-5,5.74,15.16,15.16,0,0,1-8,1.95c-5.68,0-9.6-1.52-11.79-4.58a21.85,21.85,0,0,1-3.7-11.64Z"/></g><path id="path5720" d="M244,69.81c-18-.56-35.41,9.08-40.52,28.25-2.81,9-.56,15.83,3.43,22.63.56,1.69,1.62,3.31,2.18,5-.56,2.25-1.15,5.15-1.72,8a10.82,10.82,0,0,0,2.34,8.43,31.34,31.34,0,0,1,2.18,3.43c2.25,1.69,4.49,4.43,5.61,10.62-3.92-1.13-8.38-2.78-12.31-3.91a71.69,71.69,0,0,1-11.84-4.52,9.37,9.37,0,0,1-4.06-2.19,3.39,3.39,0,0,0-3.27,0c-2.24,1.69-1.15,3.84-1.71,6.09-.56,1.12-2.18,2.37-2.18,4.06a3.73,3.73,0,0,0,.46,2.18c1.13,1.13,3.37,1.19,5.61.63,2.25-1.13,4.09-1.13,5.77,0,9,2.24,18,5,26.5,7.8,0,1.69.46,2.25.46,3.44l-.46,1.71c-6.8,2.31-13.63,4.47-20.42,6.71a4.93,4.93,0,0,1-5,1.25,6.11,6.11,0,0,0-4.52.47c-1.12,1.69-.56,2.78,0,4.53a5.16,5.16,0,0,1,1.72,4.06c.56,2.24,2.21,2.71,3.89,3.27,1.12,0,2.31-1.06,3.43-2.18,1.68-1.13,4.46-3.44,6.08-3.44l19.17-7.33c4.49,6.8,12.5,10.14,20.42,10.14a25.72,25.72,0,0,0,19.17-9.05l13.4,5.15c2.81,1.69,5.77,2.31,8.57,3.44,2.25,1.12,3.84,2.77,6.08,3.9,2.81,0,4.58-1.09,5.14-3.9-.56-1.13-.09-2.31,1.1-3.44.56-1.12,1.24-1.68,1.24-3.43-.56-1.69-1.74-1.72-3.43-1.72a14.28,14.28,0,0,1-9.66,0c-5.11-1.68-10.07-3.93-15.12-5.62l-2.34-1.09v-1.72a62.92,62.92,0,0,0,2.34-7.33c5.05-2.25,9.54-4.47,14.65-6.72,2.81-1.18,6.77-1.21,13.56,1.1a4.35,4.35,0,0,0,5-1.1v-1.71a2,2,0,0,0-1.09-2.81c-.56-1.13-1.65-2.28-1.09-4.53-.56-1.68-.1-2.78-2.34-3.9a2.68,2.68,0,0,0-3.9,0,46.35,46.35,0,0,1-5.61,2.81c-5.05,1.68-10.22,3.84-15.27,6.09-1.12.56-2.31.53-3.43,1.09,0-1.12.62-1.62.62-2.19.56-1.68,2.28-5.58,4.52-6.71,2.81-3.43,4.52-7.33,1.72-12.95a2.18,2.18,0,0,0-.63-1.72c5.68-10.74,8.48-21.57,6.24-32.31C282.38,83.3,266,70.37,244,69.81ZM244,72c20.88.56,36.16,11.92,39,27.15,1.75,12.43-1.68,22-5.61,29.35-1.12-3.37-1.15-6.71-1.71-9.52,0-4.56,2.24-9.62,2.8-14.67a10.68,10.68,0,0,0-2.8-8c-.56-1.12-1.09-1.12-1.09,0,1.68,3.94,2.83,7.31,1.71,11.24-3.93,10.74-2.3,15.3-.62,20.92,1.68,5.12,4.52,10.67-1.09,14.05-6.8,4-9.1,6.83-9.67,13.58a7.2,7.2,0,0,0-1.71-1.1c-1.12-.56-2.15.07-3.27.63-.56.56-1.22,1.65-1.72,1.09-1.12,0-1.77.06-2.33.62s-.6,1.1-1.72,1.1a1.83,1.83,0,0,0-2.8,0c-.57,0-.44,1.09-1.56,1.09s-1.72-.5-1.72.62c-1.12,0-1.77.57-2.34,0-.56,0-1.62-.56-2.18,0h-1.71c-.62-1.12-1.15-1.18-1.72-.62-.56,0-1.62.56-2.18,0a2,2,0,0,0-1.71-.47,2.2,2.2,0,0,1-1.72-.62c-.56-.57-1.15-1.1-1.71-1.1-1.12,0-1.15-.06-1.72-.62-1.18-.62-2.17.23-2.8.62a4.44,4.44,0,0,1-1.72.47c-.56-6.8-2.74-10.7-7.79-13-6.79-1.69-10.22-6.15-9.66-12.33,1.12-4,2.31-6.93,3.43-10.3s1.12-7.31,0-11.87c-.56-3.37-1.22-6.68.47-11.24a.78.78,0,1,0-1.56,0,15.25,15.25,0,0,0-.63,10.15c.56,5.06.5,9.58-.62,13-5.05-7.93-7.32-15.24-4.52-23.73C210.78,78.8,229.92,72.56,244,72Zm17.77,45.26a18.09,18.09,0,0,0-7.64,2.19c-3.56,2.23-1.32,8.65-1.09,9a12.77,12.77,0,0,0,5.14,5.62c2.81,3.93,7.23,2.31,10.6-2.19,1.68-3.43,2.9-6.77,1.72-10.14,0-2.81-1.59-4.53-6.08-4.53C263.59,117.26,262.66,117.22,261.78,117.26Zm-29.3.94a13.54,13.54,0,0,0-5.07.8c-4.78,1-6.9,4.81-6.93,6.06-.08,2.56.53,5.69,3.89,9.06,3.37,2.81,6.24,3.4,9,1.71,3.37-3.37,5.52-7.27,6.08-9.52.56-2.81,1.12-4.62-2.81-6.86a7.34,7.34,0,0,0-4.2-1.25Zm8.26,17.63c-1.65,2.85-4.62,8.59-4.06,11.4s3.4,4.37,7.33,1.56c2.31,2.25,7.33,2.84,7.33-1.09a28.83,28.83,0,0,0-3.28-12.33C245.78,132.31,242.48,132.93,240.74,135.83ZM273.47,146c-1.13,3.37-2.87,4.5-3.43,11.86,0,5.62-.56,10.21-2.81,14.21-7.85,17.48-30.42,20.79-41.14,5a50.34,50.34,0,0,1-5.61-16.39,52.63,52.63,0,0,0-4.06-14c5.12,1.12,7.36,4.46,9,12.95,0,2.25.5,6.28,2.19,8,.56,0,1.71,1.09,1.71,1.09.56.57.53,1.1,1.71,1.1s1.72.12,1.72.62a2.68,2.68,0,0,0,1.71,1.09c1.13,0,1.59.53,1.72,1.1.56.53,1.07.31,1.71,0a1.87,1.87,0,0,1,2.18.62,2.87,2.87,0,0,0,3.43,0c.56-.56,1.09,0,1.72,0a1.85,1.85,0,0,0,2.8,0c.56-1.12,1.16-.56,1.72,0,.56,0,1.06-.53,2.18-1.09a2,2,0,0,1,1.71.47c1.13,0,2.25.09,2.81-1.1.62-.5,1.15-1.71,1.71-1.71,1.13,0,1.69.5,2.81-.63,0-.56.53-1.56,1.09-1.56a2.18,2.18,0,0,0,1.71-.62c0-1.13.53-1.16,1.09-1.72,1.13,0,1.16-.59,1.72-1.72v-4.37c.56-4.56.06-9.18,6.86-13.11Zm25.25.16c1.07-.21,1.91.5,2.33,2.18-.56,2.81.6,3.94,1.72,5.62.56,1.12.5,1.62-.63,2.19-.56.62-2.21,0-4.52-1.1-4.48-1.12-7.32-1.74-10.13-.62l-15.74,7.49v-2.81c0-.56.47-1.15.47-1.71l22-9.68a8.14,8.14,0,0,0,3.42-1.09,2.8,2.8,0,0,1,1.1-.47Zm-111.6,1.25a1,1,0,0,1,1.09.31c2.25,1.68,4.55,2.31,6.24,3.43,7.85,2.25,15.83,5,23.69,7.34a16,16,0,0,0,1.09,5l-18.55-5c-2.8-1.13-5.64-1.72-7.32-2.34s-2.9-1.13-5.15,0h-2.8c-1.69.62-1,0-.47-1.1,0-1.12.53-1.15,1.09-1.71.56-1.13.56-1.63,0-2.19v-2.34c.28-.84.67-1.26,1.09-1.4Zm73.81,9.6c.43-.27.66-.71,1.16-.24s.06.59.62,1.72c-.56,1.12-.53,1.71-1.09,1.71-.56.57-1.25.57-1.25,0,0-1.12-.27-1.48,0-2.34s.13-.58.56-.85Zm-31,.85c.63,0,.53,1.25,1.09,1.25,0,1.13.09,1.71-.46,2.19a1.18,1.18,0,0,1-1.72-.63,7.58,7.58,0,0,1,0-2.18c0-.56.53-.63,1.09-.63Zm27.75.94a1,1,0,0,1,.46.31c.5.56.47,1,1.09,1.56,0,.56-.18,1.91-1.09,2.34a1.11,1.11,0,0,1-1.71-1.09v-2.34C257,159.14,257.3,158.73,257.73,158.78Zm-24.94.78c.49-.29,1.09.53,1.09,1.09.56.56,0,2.34,0,2.34,0,.57-.53.47-1.09.47,0,0-.31.3-.62-.47S232.29,159.85,232.79,159.56Zm22,1.09c.08.93.63,2.25.63,2.81a6,6,0,0,0-1.72,1.25c-1.12,0-1.09-.06-1.09-.62-.47-1.42,0-4,0-4.37.51-.16,1.93-.68,2.18.93Zm9-.47h1.09c0,1.13.63,1.07.63,2.19-.56,0-1.72,1.09-1.72,1.09v-3.28Zm-27.11.47c.56,0,.62,1.25.62,1.25a2.52,2.52,0,0,1,0,2.81h-1.72C235.63,163.44,235.22,161.21,236.69,160.65Zm12.85.37c.75.56.7.88.7.88.57,1.69.57,2.72,0,3.28,0,0,.1.62-.46.62a1.58,1.58,0,0,1-1.72-1.09,12.34,12.34,0,0,1,0-2.81c.22-1.07.73-1.44,1.48-.88Zm-9.74.26a4.22,4.22,0,0,1,.94,0c.56.56,1.09.59,1.09,1.71a3.52,3.52,0,0,1,.47,2.19c0,.56-.89.68-1.56.62a2,2,0,0,1-1.72-2c0-1-.28-1.92.78-2.49Zm4.37.62a1.71,1.71,0,0,1,2.18,1.09v2.81c-.56.57-2.34.57-2.34,0-.83-1.29-.62-3.52.16-3.9Zm-15.3,1a4.53,4.53,0,0,1,0,1.76c0,.56-.62.47-.62.47a2.53,2.53,0,0,1-.62-2.34c.15-.55.92-.49,1.22.11Zm33.22,0c.47.21.56,1.69,0,2.81,0,.57-.47,0-.47,0a4.06,4.06,0,0,1-.62-2.34C261.06,162.83,261.62,162.78,262.09,163Zm-31,1.25c.23.13.63.55.63,1.56V168c-1.18.16-1.47-.67-1.72-1.72,0-.56-.18-1.2,0-1.56a1.09,1.09,0,0,1,1.09-.47Zm28.84.47a4.49,4.49,0,0,1-.63,2.81c0,.56,0,1.09-.62,1.09s-.47-.06-.47-.62a3.34,3.34,0,0,1,0-2.81C258.41,164.49,259.77,163.86,259.91,164.71ZM234.5,165.8c.7.37,1.09,1.69,1.09,2.81a1.75,1.75,0,0,0-.46,1.1c-.56,0-.69,0-1.25-.63s-.41-1.06-.47-1.56c.17-1.47.83-1.9,1.09-1.72Zm21.36.47v4.06c-.57.62-1.72-.13-1.72-.63a2,2,0,0,1-.34-2.18,1.93,1.93,0,0,1,2.06-1.25Zm-18.55.31a8.36,8.36,0,0,1,2.18.94,25.79,25.79,0,0,1-.47,2.81l-.62.62c-.56,0-1.09-.75-1.09-1.25ZM252,168a26.09,26.09,0,0,0-.62,3,.44.44,0,0,1-.47.47c-.56,0-1,.33-1.09-.47s-.42-3.31.15-3.9,1.58.18,2,.94Zm-5.77-.47a2.9,2.9,0,0,1,.78,0,1.15,1.15,0,0,1,1.09,1.09,4,4,0,0,1-1.09,2.81h-1.25c-.42-1.29-.24-1.66,0-3.43C245.72,167.71,246,167.59,246.19,167.52Zm-3.74.16c.9.55.93,2.19.47,3.27-.56.5-1.09,1.1-1.71.47C241.15,170.47,240.66,167,242.45,167.68ZM222,172.51c0,.57.69,1.16,1.25,1.72a28.16,28.16,0,0,0,.47,2.81l-18.08,6.87a57.8,57.8,0,0,0-6.08,3.28,12.4,12.4,0,0,0-3.43,2.34,5.57,5.57,0,0,1-1.71-.63c0-2.24-.59-4.49-1.72-5.62-.56-1.74.13-2.34,1.25-2.34a5.92,5.92,0,0,0,5.61-.46l22.45-8Zm46.29,1.72,18.08,7.34c3.37,1.12,5.65,1.81,10.13.62,1.13,0,1.59.53.47,1.72a3.42,3.42,0,0,0-1.09,3.9,4,4,0,0,1-3.43,2.19c-1.12-.57-2.15-1.63-3.27-2.19a24.83,24.83,0,0,0-9-3.43c-3.93-1.75-7.33-2.84-10.76-4.53L266,178.13c.56-1.68,1.71-2.77,2.33-3.9Z"/></g></g></g></svg>