<svg xmlns="http://www.w3.org/2000/svg" viewBox="0 0 487.33 487.33"><defs><style>.cls-1{fill:#fff;stroke-miterlimit:3.86;stroke-width:2px;}.cls-1,.cls-4{stroke:#000;}.cls-2{fill:#ffe200;}.cls-3{fill:red;}.cls-4{fill:none;stroke-miterlimit:3.86;stroke-width:2px;}</style></defs><g id="Ebene_2" data-name="Ebene 2"><g id="svg3267"><g id="g7153"><path id="rect6992" class="cls-1" d="M243.66,1.41,485.91,243.66,243.66,485.91,1.41,243.66Z"/><path id="path6994" class="cls-2" d="M243.65,24.14,24.13,243.66H463.21L243.65,24.14Z"/><path id="path6996" d="M243.65,21.92,21.91,243.66,243.65,465.4,465.39,243.66Zm0,5,216.7,216.7-216.7,216.7L27,243.66Z"/><g id="text6998"><path id="path11626" d="M229.38,383.91h27v8.75a46.79,46.79,0,0,0-5.89,9.64,68,68,0,0,0-4.52,14,90.13,90.13,0,0,0-1.78,14.22H235a99.7,99.7,0,0,1,3.43-19.15,79.89,79.89,0,0,1,7.42-16.54H229.38Z"/></g><path id="path7002" d="M210.09,94.46a67.08,67.08,0,0,0-33.53,58.12H219.5a24.13,24.13,0,0,1,12.08-20.89L210.09,94.46Zm67.13,0-21.5,37.23a24.13,24.13,0,0,1,12.08,20.89h42.94a67.09,67.09,0,0,0-33.52-58.12Zm-33.57,41a17.13,17.13,0,1,0,17.11,17.15A17.16,17.16,0,0,0,243.65,135.43Zm-12.07,38L210.09,210.7a67.28,67.28,0,0,0,67.13,0l-21.5-37.23a24,24,0,0,1-24.14,0Z"/><path id="rect7004" d="M25.07,242.47H462.23v2.38H25.07Z"/><g id="g7006"><g id="text7008"><path id="path11630" d="M97.34,288.5V256.55h11.77a12.63,12.63,0,0,1,5,.78,5.91,5.91,0,0,1,2.79,2.91,11.61,11.61,0,0,1,1.06,5.18,11.84,11.84,0,0,1-.81,4.59,8.22,8.22,0,0,1-2.23,3.12,7.27,7.27,0,0,1-2.48,1.27,6.28,6.28,0,0,1,1.84,1.18,9.19,9.19,0,0,1,1.13,1.67,14.22,14.22,0,0,1,1,2l3.41,9.26h-8l-3.77-9.76a7.91,7.91,0,0,0-1.28-2.47,2.44,2.44,0,0,0-1.73-.74h-.62v13Zm7.1-19h3a7.83,7.83,0,0,0,1.88-.43,2,2,0,0,0,1.14-1,3.77,3.77,0,0,0,.45-1.86,3.55,3.55,0,0,0-.71-2.37,3.3,3.3,0,0,0-2.63-.83h-3.1Z"/><path id="path11632" d="M136.13,283.23h-8L127,288.5h-7.22l8.59-31.95h7.7l8.59,31.95h-7.39Zm-1.48-6.91-2.53-11.49-2.51,11.49Z"/><path id="path11634" d="M147,256.55h10.49a9.48,9.48,0,0,1,5,1.17,9.3,9.3,0,0,1,3.16,3.38,16.73,16.73,0,0,1,1.8,5.12,32.3,32.3,0,0,1,.57,6.19,29.21,29.21,0,0,1-.84,7.95,14.21,14.21,0,0,1-2.31,4.73,7.45,7.45,0,0,1-3.18,2.54,12.13,12.13,0,0,1-4.21.87H147Zm7.06,7.23v17.46h1.73a5.57,5.57,0,0,0,3.15-.68,4.55,4.55,0,0,0,1.46-2.4,20.38,20.38,0,0,0,.53-5.55c0-3.39-.39-5.7-1.18-6.95a4.29,4.29,0,0,0-3.93-1.88Z"/><path id="path11636" d="M172,256.55h7.08V288.5H172Z"/><path id="path11638" d="M183.22,272.55q0-7.83,3.12-12.19A10.06,10.06,0,0,1,195,256a10.2,10.2,0,0,1,8.79,4.28q3.09,4.29,3.09,12a26.42,26.42,0,0,1-1.35,9.19,12.44,12.44,0,0,1-3.9,5.58,10,10,0,0,1-6.35,2,11.12,11.12,0,0,1-6.4-1.73,11.92,11.92,0,0,1-4.11-5.45,24,24,0,0,1-1.57-9.32Zm7.06,0q0,4.83,1.29,7a4,4,0,0,0,7,0q1.24-2.07,1.25-7.44c0-3-.44-5.2-1.3-6.59a4,4,0,0,0-3.54-2.08,3.9,3.9,0,0,0-3.43,2.11q-1.29,2.12-1.29,7Z"/><path id="path11640" d="M224.79,283.23h-8l-1.11,5.27h-7.21L217,256.55h7.71l8.58,31.95h-7.38Zm-1.48-6.91-2.52-11.49-2.51,11.49Z"/><path id="path11642" d="M250.76,275.44l6.19,2.62a19.4,19.4,0,0,1-2,6.08,9.74,9.74,0,0,1-3.33,3.68,9.39,9.39,0,0,1-5.06,1.25,11.13,11.13,0,0,1-6.09-1.52,11.85,11.85,0,0,1-4.07-5.33,23.78,23.78,0,0,1-1.72-9.76q0-7.93,3-12.2a9.84,9.84,0,0,1,8.53-4.26,9.26,9.26,0,0,1,6.79,2.44q2.48,2.44,3.67,7.5l-6.23,1.94a9.22,9.22,0,0,0-.69-2.14,4.86,4.86,0,0,0-1.45-1.74,3.2,3.2,0,0,0-1.91-.61q-2.4,0-3.68,2.7a15.25,15.25,0,0,0-1,6.3q0,5.33,1.15,7.29a3.59,3.59,0,0,0,3.25,2,3.42,3.42,0,0,0,3.06-1.59,12,12,0,0,0,1.5-4.63Z"/><path id="path11644" d="M258.76,256.55h21.46v7.89H273V288.5H266V264.44h-7.2Z"/><path id="path11646" d="M283.72,256.55h7.07V288.5h-7.07Z"/><path id="path11648" d="M293.58,256.55H301l5.15,23,5.06-23h7.17l-8.48,31.95h-7.65Z"/><path id="path11650" d="M320.64,256.55h18.93v6.82H327.72v5.08h11V275h-11v6.3h12.19v7.24H320.65Z"/></g><g id="text7012"><path id="path11653" class="cls-3" d="M365.86,256.55h8.76V288.5h-8.76Z"/><path id="path11655" class="cls-3" d="M381.22,256.55H390V288.5h-8.76Z"/></g></g><g id="text7016"><path id="path11658" d="M176.48,304.57l2.35,1a7.21,7.21,0,0,1-.74,2.31,3.69,3.69,0,0,1-1.27,1.4,3.59,3.59,0,0,1-1.92.47,4.26,4.26,0,0,1-2.32-.57,4.65,4.65,0,0,1-1.55-2,9.21,9.21,0,0,1-.65-3.71,7.93,7.93,0,0,1,1.15-4.64,3.74,3.74,0,0,1,3.24-1.62,3.53,3.53,0,0,1,2.59.93,5.85,5.85,0,0,1,1.39,2.85l-2.37.74a3.61,3.61,0,0,0-.26-.82,1.91,1.91,0,0,0-.55-.66,1.26,1.26,0,0,0-.73-.23,1.52,1.52,0,0,0-1.4,1,5.85,5.85,0,0,0-.37,2.39,6.05,6.05,0,0,0,.44,2.77,1.37,1.37,0,0,0,1.24.75,1.3,1.3,0,0,0,1.16-.6,4.59,4.59,0,0,0,.57-1.76Z"/><path id="path11660" d="M179.79,303.47a7.85,7.85,0,0,1,1.19-4.63,4.17,4.17,0,0,1,6.64,0,7.61,7.61,0,0,1,1.18,4.56,10.09,10.09,0,0,1-.51,3.49A4.82,4.82,0,0,1,186.8,309a3.81,3.81,0,0,1-2.41.75,4.25,4.25,0,0,1-2.44-.65,4.61,4.61,0,0,1-1.56-2.07,9.17,9.17,0,0,1-.6-3.55Zm2.69,0a5.29,5.29,0,0,0,.49,2.64,1.52,1.52,0,0,0,2.67,0,6,6,0,0,0,.47-2.83,4.91,4.91,0,0,0-.49-2.51,1.53,1.53,0,0,0-1.34-.79,1.48,1.48,0,0,0-1.31.81,5.3,5.3,0,0,0-.49,2.66Z"/><path id="path11662" d="M190.27,297.39h2.51l3.27,6.72v-6.72h2.53v12.15h-2.53l-3.25-6.68v6.68h-2.53Z"/><path id="path11664" d="M199.77,297.39h8.16v3h-2.74v9.15h-2.68v-9.15h-2.74Z"/><path id="path11666" d="M209.15,297.39h7.19V300h-4.5v1.93H216v2.48h-4.18v2.39h4.63v2.76h-7.32Z"/><path id="path11668" d="M217.94,297.39h2.51l3.27,6.72v-6.72h2.53v12.15h-2.53l-3.25-6.68v6.68h-2.53Z"/><path id="path11670" d="M227.44,297.39h8.16v3h-2.74v9.15h-2.69v-9.15h-2.73Z"/><path id="path11672" d="M236.35,305.52l2.56-.23a3.38,3.38,0,0,0,.33,1.33,1.31,1.31,0,0,0,1.19.74,1.07,1.07,0,0,0,.88-.38,1.35,1.35,0,0,0,0-1.72,3,3,0,0,0-1.38-.7,5.21,5.21,0,0,1-2.51-1.48,3.53,3.53,0,0,1-.76-2.35,4.22,4.22,0,0,1,.38-1.76,2.92,2.92,0,0,1,1.17-1.31,4.06,4.06,0,0,1,2.14-.48,3.45,3.45,0,0,1,2.54.87,4.28,4.28,0,0,1,1,2.75l-2.53.21a2.24,2.24,0,0,0-.43-1.2,1.13,1.13,0,0,0-.89-.37.84.84,0,0,0-.7.28,1,1,0,0,0-.24.67.81.81,0,0,0,.2.53,1.75,1.75,0,0,0,.9.44,9.42,9.42,0,0,1,2.52,1.08,3.17,3.17,0,0,1,1.11,1.34,4.55,4.55,0,0,1,.34,1.8,5,5,0,0,1-.46,2.16,3.38,3.38,0,0,1-1.29,1.49,3.92,3.92,0,0,1-2.09.51,3.52,3.52,0,0,1-3.07-1.19,5.77,5.77,0,0,1-1-3Z"/><path id="path11674" d="M249.49,306.15h2.58v3.39h-2.58Z"/><path id="path11676" d="M253.55,306.15h2.57v3.39h-2.57Z"/><path id="path11678" d="M257.6,306.15h2.58v3.39H257.6Z"/><path id="path11680" d="M261.65,306.15h2.58v3.39h-2.58Z"/><path id="path11682" d="M265.71,306.15h2.58v3.39h-2.58Z"/><path id="path11684" d="M269.76,306.15h2.58v3.39h-2.58Z"/><path id="path11686" d="M273.82,306.15h2.57v3.39h-2.57Z"/><path id="path11688" d="M277.87,306.15h2.58v3.39h-2.58Z"/><path id="path11690" d="M281.92,306.15h2.58v3.39h-2.58Z"/><path id="path11692" d="M286,306.15h2.58v3.39H286Z"/><path id="path11694" d="M290,306.15h2.58v3.39H290Z"/><path id="path11696" d="M294.09,306.15h2.57v3.39h-2.57Z"/><path id="path11698" d="M298.14,306.15h2.58v3.39h-2.58Z"/><path id="path11700" d="M302.19,306.15h2.58v3.39h-2.58Z"/><path id="path11702" d="M306.25,306.15h2.58v3.39h-2.58Z"/><path id="path11704" d="M310.3,306.15h2.58v3.39H310.3Z"/><path id="path11706" d="M314.36,306.15h2.58v3.39h-2.58Z"/><path id="path11708" d="M187.21,322.81h-3.06l-.42,2H181l3.26-12.15h2.93l3.27,12.15h-2.81Zm-.56-2.63-1-4.37-1,4.37Z"/><path id="path11710" d="M197.08,319.85l2.36,1a7.29,7.29,0,0,1-.75,2.31,3.79,3.79,0,0,1-1.26,1.41,3.65,3.65,0,0,1-1.93.47,4.17,4.17,0,0,1-2.31-.58,4.47,4.47,0,0,1-1.55-2,9.06,9.06,0,0,1-.65-3.72,8,8,0,0,1,1.14-4.63,3.76,3.76,0,0,1,3.25-1.62,3.51,3.51,0,0,1,2.58.92,5.85,5.85,0,0,1,1.39,2.85L197,317a3.34,3.34,0,0,0-.26-.81,1.74,1.74,0,0,0-.55-.66,1.21,1.21,0,0,0-.73-.24,1.54,1.54,0,0,0-1.4,1,6,6,0,0,0-.36,2.4,6.08,6.08,0,0,0,.43,2.77,1.38,1.38,0,0,0,1.24.75,1.3,1.3,0,0,0,1.16-.6,4.48,4.48,0,0,0,.57-1.76Z"/><path id="path11712" d="M200.12,312.66h8.17v3h-2.74v9.15h-2.69v-9.15h-2.74Z"/><path id="path11714" d="M209.61,312.66h2.69v12.15h-2.69Z"/><path id="path11716" d="M213.37,312.66h2.81l1.95,8.75,1.93-8.75h2.72l-3.22,12.15h-2.91Z"/><path id="path11718" d="M223.77,312.66h2.69v12.15h-2.69Z"/><path id="path11720" d="M227.77,312.66h8.16v3h-2.74v9.15h-2.68v-9.15h-2.74Z"/><path id="path11722" d="M236.27,312.66h3l1.75,4.1,1.75-4.1h3l-3.38,7.06v5.09h-2.69v-5.09Z"/><path id="path11724" d="M250.49,321.43h2.58v3.38h-2.58Z"/><path id="path11726" d="M254.54,321.43h2.58v3.38h-2.58Z"/><path id="path11728" d="M258.6,321.43h2.57v3.38H258.6Z"/><path id="path11730" d="M262.65,321.43h2.58v3.38h-2.58Z"/><path id="path11732" d="M266.7,321.43h2.58v3.38H266.7Z"/><path id="path11734" d="M270.76,321.43h2.58v3.38h-2.58Z"/><path id="path11736" d="M274.81,321.43h2.58v3.38h-2.58Z"/><path id="path11738" d="M278.87,321.43h2.57v3.38h-2.57Z"/><path id="path11740" d="M282.92,321.43h2.58v3.38h-2.58Z"/><path id="path11742" d="M287,321.43h2.58v3.38H287Z"/><path id="path11744" d="M291,321.43h2.58v3.38H291Z"/><path id="path11746" d="M295.08,321.43h2.58v3.38h-2.58Z"/><path id="path11748" d="M299.14,321.43h2.57v3.38h-2.57Z"/><path id="path11750" d="M303.19,321.43h2.58v3.38h-2.58Z"/></g><g id="text7022"><path id="path11753" d="M214.94,352.73h5.65v2.08H218.7v6.34h-1.87v-6.34h-1.89Z"/><path id="path11755" d="M221.47,361.15v-8.42h3.1a3.3,3.3,0,0,1,1.32.21,1.53,1.53,0,0,1,.73.77,2.94,2.94,0,0,1,.28,1.36,3.16,3.16,0,0,1-.21,1.21,2.09,2.09,0,0,1-.59.82,1.89,1.89,0,0,1-.65.34,1.47,1.47,0,0,1,.48.31,2.21,2.21,0,0,1,.3.44,3.49,3.49,0,0,1,.26.52l.9,2.44h-2.1l-1-2.57a1.94,1.94,0,0,0-.34-.65.61.61,0,0,0-.45-.19h-.17v3.41Zm1.86-5h.79a1.83,1.83,0,0,0,.49-.11.45.45,0,0,0,.3-.26,1,1,0,0,0,.12-.49,1,1,0,0,0-.18-.63.93.93,0,0,0-.7-.22h-.82Z"/><path id="path11757" d="M231.69,359.76h-2.12l-.29,1.39h-1.91l2.27-8.42h2l2.26,8.42h-2Zm-.39-1.82-.67-3-.66,3Z"/><path id="path11759" d="M234.53,352.73h1.74l2.27,4.66v-4.66h1.76v8.42h-1.76l-2.25-4.62v4.62h-1.76Z"/><path id="path11761" d="M241.22,358.37l1.77-.16a2.19,2.19,0,0,0,.23.92.9.9,0,0,0,.82.51.75.75,0,0,0,.62-.26.91.91,0,0,0,.21-.6,1,1,0,0,0-.2-.59,2.07,2.07,0,0,0-1-.49,3.55,3.55,0,0,1-1.74-1,2.49,2.49,0,0,1-.53-1.63,2.82,2.82,0,0,1,.27-1.22,2,2,0,0,1,.81-.91,2.82,2.82,0,0,1,1.48-.33,2.39,2.39,0,0,1,1.76.6,2.92,2.92,0,0,1,.72,1.91l-1.75.14a1.53,1.53,0,0,0-.3-.82.74.74,0,0,0-.61-.26.6.6,0,0,0-.49.19.7.7,0,0,0-.17.47.56.56,0,0,0,.14.36,1.33,1.33,0,0,0,.62.31,6.12,6.12,0,0,1,1.75.74,2.25,2.25,0,0,1,.77.94,3.08,3.08,0,0,1,.24,1.24,3.57,3.57,0,0,1-.32,1.5,2.28,2.28,0,0,1-.9,1,2.66,2.66,0,0,1-1.45.36,2.43,2.43,0,0,1-2.12-.83,3.88,3.88,0,0,1-.67-2.1Z"/><path id="path11763" d="M247.61,352.73h3.1a1.79,1.79,0,0,1,1.51.67,3.14,3.14,0,0,1,.5,1.92,3.18,3.18,0,0,1-.55,2,2,2,0,0,1-1.67.72h-1v3.12h-1.87Zm1.87,3.59h.46a.9.9,0,0,0,.75-.26,1,1,0,0,0,.22-.67,1.13,1.13,0,0,0-.19-.67.8.8,0,0,0-.71-.28h-.53Z"/><path id="path11765" d="M253.47,357a5.4,5.4,0,0,1,.82-3.21,2.89,2.89,0,0,1,4.6,0,5.26,5.26,0,0,1,.82,3.16,6.9,6.9,0,0,1-.36,2.42,3.27,3.27,0,0,1-1,1.47,2.66,2.66,0,0,1-1.68.53,2.9,2.9,0,0,1-1.69-.46,3.21,3.21,0,0,1-1.08-1.43,6.52,6.52,0,0,1-.41-2.46Zm1.86,0a3.63,3.63,0,0,0,.34,1.83,1,1,0,0,0,1.85,0,4,4,0,0,0,.33-1.95,3.34,3.34,0,0,0-.35-1.74,1,1,0,0,0-.93-.55,1,1,0,0,0-.9.56,3.65,3.65,0,0,0-.34,1.84Z"/><path id="path11767" d="M260.74,361.15v-8.42h3.11a3.22,3.22,0,0,1,1.31.21,1.55,1.55,0,0,1,.74.77,2.94,2.94,0,0,1,.28,1.36,3.16,3.16,0,0,1-.21,1.21,2.19,2.19,0,0,1-.59.82,1.85,1.85,0,0,1-.66.34,1.43,1.43,0,0,1,.49.31,2.21,2.21,0,0,1,.3.44,4.89,4.89,0,0,1,.26.52l.9,2.44h-2.11l-1-2.57a2.15,2.15,0,0,0-.34-.65.61.61,0,0,0-.45-.19h-.17v3.41Zm1.87-5h.79a1.83,1.83,0,0,0,.49-.11.5.5,0,0,0,.3-.26,1,1,0,0,0,.12-.49,1,1,0,0,0-.18-.63.93.93,0,0,0-.7-.22h-.82Z"/><path id="path11769" d="M266.84,352.73h5.65v2.08H270.6v6.34h-1.87v-6.34h-1.89Z"/><path id="path11771" d="M229.7,363.32h1.86v8.42H229.7Z"/><path id="path11773" d="M232.91,363.32h1.74l2.26,4.66v-4.66h1.76v8.42h-1.76l-2.25-4.62v4.62h-1.75Z"/><path id="path11775" d="M239.94,363.32h2.76a2.43,2.43,0,0,1,1.32.31,2.48,2.48,0,0,1,.84.89,4.77,4.77,0,0,1,.47,1.35,8.59,8.59,0,0,1,.15,1.63,7.68,7.68,0,0,1-.22,2.1,3.78,3.78,0,0,1-.61,1.24,1.91,1.91,0,0,1-.84.67,3.06,3.06,0,0,1-1.11.23h-2.76Zm1.86,1.91v4.6h.45a1.44,1.44,0,0,0,.83-.18,1.14,1.14,0,0,0,.39-.63,5.57,5.57,0,0,0,.14-1.46,3.73,3.73,0,0,0-.31-1.84,1.13,1.13,0,0,0-1-.49Z"/><path id="path11777" d="M246.45,363.32h5v1.8h-3.13v1.34h2.9v1.72h-2.9v1.66h3.22v1.9h-5.08Z"/><path id="path11779" d="M252.12,363.32h2l1.07,2.59,1-2.59h2l-1.87,4.08,2.05,4.34h-2.09L255.2,369l-1.19,2.7h-2.08l2.08-4.39Z"/></g><path id="rect7028" class="cls-4" d="M200.11,335.45h87.21V375.3H200.11Z"/></g></g></g></svg>