<svg xmlns="http://www.w3.org/2000/svg" viewBox="0 0 487.33 487.33"><defs><style>.cls-1{fill:#fff;stroke:#000;stroke-miterlimit:3.86;stroke-width:2px;}</style></defs><g id="Ebene_2" data-name="Ebene 2"><g id="svg3267"><g id="g6860"><path id="rect6825" class="cls-1" d="M243.66,1.41,485.91,243.66,243.66,485.91,1.41,243.66Z"/><path id="path6827" d="M243.65,21.92,21.91,243.66,243.65,465.4,465.39,243.66,243.65,21.92Zm0,5,216.7,216.7-216.7,216.7L27,243.66,243.65,27Z"/><g id="text6829"><path id="path11910" d="M256,394.41,246.82,396a8.31,8.31,0,0,0-1.21-3.82,2.57,2.57,0,0,0-2.11-1.11q-2.25,0-3.5,3.18c-.61,1.53-1.05,4.79-1.34,9.8a13.06,13.06,0,0,1,3.41-3.49,7.34,7.34,0,0,1,4.05-1.13c3,0,5.49,1.49,7.54,4.46a19.35,19.35,0,0,1,3.08,11.29,22.31,22.31,0,0,1-1.55,8.43,12.69,12.69,0,0,1-4.33,5.77,11.64,11.64,0,0,1-6.92,2,12.59,12.59,0,0,1-8-2.39q-3-2.38-4.84-7.62a43.55,43.55,0,0,1-1.81-13.85q0-12.63,3.8-18.5a11.91,11.91,0,0,1,10.53-5.86,12.91,12.91,0,0,1,6.29,1.28,10.57,10.57,0,0,1,3.84,3.77,19.94,19.94,0,0,1,2.32,6.24ZM239,415.18a11,11,0,0,0,1.36,5.93,4,4,0,0,0,3.35,2.15,3.56,3.56,0,0,0,3-1.94,11,11,0,0,0,1.23-5.79,11.56,11.56,0,0,0-1.27-6,3.69,3.69,0,0,0-3.16-2.07,3.84,3.84,0,0,0-3.25,2,10.52,10.52,0,0,0-1.3,5.73Z"/></g><g id="text6833"><path id="path11913" d="M115,227h8.44v38.08H115Z"/><path id="path11915" d="M129.53,227h7.86l10.25,21.07V227h7.93v38.08h-7.93l-10.2-20.91v20.91h-7.91Z"/><path id="path11917" d="M161.24,227H182v8.18H169.69v6.65h10.55v7.69H169.69v15.56h-8.45Z"/><path id="path11919" d="M186.59,227h22.55v8.13H195v6.05h13.1V249H195v7.51h14.53v8.62h-23Z"/><path id="path11921" d="M232.23,249.55l7.37,3.12a22.82,22.82,0,0,1-2.34,7.24,11.49,11.49,0,0,1-4,4.39,11.18,11.18,0,0,1-6,1.48A13.23,13.23,0,0,1,220,264q-2.82-1.8-4.86-6.35a28.58,28.58,0,0,1-2-11.64q0-9.45,3.59-14.53a11.75,11.75,0,0,1,10.17-5.08,11,11,0,0,1,8.09,2.91q2.94,2.91,4.37,8.94l-7.43,2.31a11.27,11.27,0,0,0-.81-2.55,5.7,5.7,0,0,0-1.73-2.07,3.81,3.81,0,0,0-2.29-.73q-2.85,0-4.38,3.22-1.15,2.39-1.15,7.51c0,4.22.46,7.12,1.37,8.68a4.28,4.28,0,0,0,3.87,2.35,4.09,4.09,0,0,0,3.65-1.89,14.28,14.28,0,0,0,1.79-5.51Z"/><path id="path11923" d="M241.76,227h25.57v9.41h-8.58v28.67h-8.41V236.44h-8.58Z"/><path id="path11925" d="M271.5,227h8.43v38.08H271.5Z"/><path id="path11927" d="M284.89,246.1q0-9.33,3.71-14.52a13.09,13.09,0,0,1,20.82-.09q3.69,5.1,3.68,14.3a31.53,31.53,0,0,1-1.6,10.94,14.82,14.82,0,0,1-4.65,6.65,11.87,11.87,0,0,1-7.57,2.38,13.31,13.31,0,0,1-7.62-2.05,14.34,14.34,0,0,1-4.9-6.5,28.67,28.67,0,0,1-1.87-11.11Zm8.41.05q0,5.76,1.53,8.28A4.71,4.71,0,0,0,299,257a4.66,4.66,0,0,0,4.2-2.46q1.49-2.48,1.49-8.86,0-5.37-1.55-7.86a4.77,4.77,0,0,0-4.21-2.48,4.64,4.64,0,0,0-4.09,2.52c-1,1.68-1.54,4.46-1.54,8.34Z"/><path id="path11929" d="M335.39,227h8.4v22.7a26.25,26.25,0,0,1-.75,6.38,15.55,15.55,0,0,1-2.36,5.25,10,10,0,0,1-3.38,3.15,12.57,12.57,0,0,1-5.88,1.27,26.64,26.64,0,0,1-4.34-.39,8.92,8.92,0,0,1-3.93-1.54,11.54,11.54,0,0,1-2.89-3.29,13.89,13.89,0,0,1-1.79-4.39,31.1,31.1,0,0,1-.78-6.44V227h8.4v23.25a8.37,8.37,0,0,0,1.23,4.87,4.23,4.23,0,0,0,6.84,0,8.33,8.33,0,0,0,1.23-4.89Z"/><path id="path11931" d="M347.93,252.51l8-.7A10.89,10.89,0,0,0,357,256a4.08,4.08,0,0,0,3.72,2.31,3.43,3.43,0,0,0,2.78-1.18,4.3,4.3,0,0,0,0-5.39c-.62-.78-2-1.52-4.31-2.21q-5.54-1.74-7.89-4.62a11.17,11.17,0,0,1-2.38-7.35,13,13,0,0,1,1.22-5.55,9.27,9.27,0,0,1,3.66-4.1,12.75,12.75,0,0,1,6.69-1.5c3.48,0,6.14.91,8,2.72s2.92,4.69,3.26,8.63l-7.93.65a7,7,0,0,0-1.33-3.74,3.48,3.48,0,0,0-2.79-1.17,2.74,2.74,0,0,0-2.21.87,3.14,3.14,0,0,0-.75,2.12,2.49,2.49,0,0,0,.62,1.64,5.79,5.79,0,0,0,2.82,1.4,28.71,28.71,0,0,1,7.9,3.36,10.09,10.09,0,0,1,3.48,4.22,14.18,14.18,0,0,1,1.08,5.64,15.64,15.64,0,0,1-1.45,6.75,10.56,10.56,0,0,1-4,4.69,12.31,12.31,0,0,1-6.56,1.6q-6.94,0-9.62-3.74a17.78,17.78,0,0,1-3-9.51Z"/><path id="path11933" d="M113.26,300.39l8-.71a11,11,0,0,0,1.06,4.16,4.08,4.08,0,0,0,3.72,2.31,3.4,3.4,0,0,0,2.78-1.18,4.3,4.3,0,0,0,0-5.39c-.62-.78-2.05-1.51-4.31-2.21q-5.53-1.74-7.89-4.62a11.14,11.14,0,0,1-2.38-7.35,13,13,0,0,1,1.22-5.55,9.32,9.32,0,0,1,3.66-4.1,12.73,12.73,0,0,1,6.69-1.49c3.48,0,6.14.9,8,2.71s2.92,4.69,3.26,8.64l-7.93.65a7,7,0,0,0-1.33-3.74,3.48,3.48,0,0,0-2.79-1.17,2.74,2.74,0,0,0-2.21.87,3.12,3.12,0,0,0-.75,2.11,2.47,2.47,0,0,0,.62,1.64,5.79,5.79,0,0,0,2.82,1.4,28.37,28.37,0,0,1,7.9,3.37,10,10,0,0,1,3.48,4.22,14.17,14.17,0,0,1,1.08,5.63,15.69,15.69,0,0,1-1.45,6.76,10.53,10.53,0,0,1-4,4.68,12.31,12.31,0,0,1-6.56,1.6q-6.94,0-9.62-3.74a17.77,17.77,0,0,1-3-9.5Z"/><path id="path11935" d="M159.94,274.91h8.39v22.7a26.17,26.17,0,0,1-.75,6.37,15.36,15.36,0,0,1-2.36,5.25,9.75,9.75,0,0,1-3.37,3.15,12.62,12.62,0,0,1-5.89,1.28,26.74,26.74,0,0,1-4.34-.39,9.05,9.05,0,0,1-3.92-1.55,11.2,11.2,0,0,1-2.89-3.28,13.75,13.75,0,0,1-1.79-4.39,31.17,31.17,0,0,1-.78-6.44v-22.7h8.39v23.24a8.3,8.3,0,0,0,1.24,4.87,4.23,4.23,0,0,0,6.83,0,8.29,8.29,0,0,0,1.24-4.9Z"/><path id="path11937" d="M174,274.91h15.75a7.21,7.21,0,0,1,6,2.72,11.87,11.87,0,0,1,.6,12.55,6.91,6.91,0,0,1-2.93,2.54,7.59,7.59,0,0,1,4.32,3.39,12,12,0,0,1,1.38,6,13.69,13.69,0,0,1-1,5.33,9.23,9.23,0,0,1-2.69,3.74,7.1,7.1,0,0,1-3.19,1.24,26.25,26.25,0,0,1-3.77.52H174Zm8.49,14.93h3.66a3.38,3.38,0,0,0,2.74-.95,4.26,4.26,0,0,0,.77-2.74,4,4,0,0,0-.77-2.59,3.31,3.31,0,0,0-2.69-.94h-3.71Zm0,15h4.29a3.76,3.76,0,0,0,3.06-1.08,4.36,4.36,0,0,0,.9-2.89,4,4,0,0,0-.89-2.72,3.9,3.9,0,0,0-3.09-1h-4.27Z"/><path id="path11939" d="M202.05,300.39l8-.71a10.82,10.82,0,0,0,1.06,4.16,4.06,4.06,0,0,0,3.71,2.31A3.38,3.38,0,0,0,217.6,305a4.18,4.18,0,0,0,1-2.74,4.14,4.14,0,0,0-.93-2.65c-.62-.78-2.06-1.51-4.31-2.21q-5.53-1.74-7.9-4.62a11.19,11.19,0,0,1-2.37-7.35,13,13,0,0,1,1.21-5.55,9.32,9.32,0,0,1,3.66-4.1,12.77,12.77,0,0,1,6.7-1.49q5.22,0,8,2.71t3.26,8.64l-7.93.65a7,7,0,0,0-1.33-3.74,3.52,3.52,0,0,0-2.8-1.17,2.75,2.75,0,0,0-2.21.87,3.16,3.16,0,0,0-.74,2.11,2.46,2.46,0,0,0,.61,1.64,5.89,5.89,0,0,0,2.83,1.4,28.51,28.51,0,0,1,7.9,3.37,9.93,9.93,0,0,1,3.47,4.22,14,14,0,0,1,1.09,5.63,15.69,15.69,0,0,1-1.45,6.76,10.61,10.61,0,0,1-4.05,4.68,12.29,12.29,0,0,1-6.56,1.6q-6.94,0-9.62-3.74a17.85,17.85,0,0,1-3-9.5Z"/><path id="path11941" d="M229.09,274.91h25.58v9.4h-8.58V313h-8.42V284.31h-8.58Z"/><path id="path11943" d="M275.25,306.7h-9.59L264.34,313h-8.6L266,274.91h9.17L285.39,313h-8.8Zm-1.77-8.24-3-13.68-3,13.68Z"/><path id="path11945" d="M288.12,274.91H296L306.23,296V274.91h7.93V313h-7.93L296,292.07V313h-7.91Z"/><path id="path11947" d="M337.92,297.42l7.37,3.12a23,23,0,0,1-2.34,7.25,11.65,11.65,0,0,1-4,4.39,11.27,11.27,0,0,1-6,1.48,13.14,13.14,0,0,1-7.25-1.81q-2.82-1.8-4.86-6.35a28.55,28.55,0,0,1-2.05-11.63q0-9.47,3.6-14.54a11.73,11.73,0,0,1,10.17-5.07,11,11,0,0,1,8.09,2.91q2.94,2.91,4.37,8.93l-7.43,2.31a10.44,10.44,0,0,0-.82-2.54,5.72,5.72,0,0,0-1.72-2.08,3.81,3.81,0,0,0-2.29-.73c-1.9,0-3.37,1.08-4.38,3.22q-1.15,2.4-1.15,7.51,0,6.33,1.37,8.69a4.3,4.3,0,0,0,3.87,2.35,4.1,4.1,0,0,0,3.65-1.9,14.22,14.22,0,0,0,1.79-5.51Z"/><path id="path11949" d="M349.34,274.91h22.55V283H357.77v6h13.1v7.76h-13.1v7.51H372.3V313h-23Z"/></g><path id="path6765" d="M237.45,72.91a41.62,41.62,0,0,0-35.48,48,41.65,41.65,0,0,0-23.82,54.73l1.33-.77a29.23,29.23,0,0,1,27.28-38.71c.13,0,.26,0,.38,0a29.2,29.2,0,0,1,24.55,13.35l3.54-2.05a8.33,8.33,0,0,1,6.37-11v-4.07a29.24,29.24,0,0,1-4.15-57.91V72.91Zm11.13,0v1.52a29.24,29.24,0,0,1-4.21,57.91v4.06a8.32,8.32,0,0,1,6.42,11.07l3.64,2.11a29.21,29.21,0,0,1,24.23-13.43c.12,0,.25,0,.37,0a29.24,29.24,0,0,1,27.65,38.78l1.2.7a41.65,41.65,0,0,0-23.82-54.73,41.62,41.62,0,0,0-35.48-48ZM243,107.21a37.27,37.27,0,0,0-23.42,8.23,26.69,26.69,0,0,0,6,7.55,27.8,27.8,0,0,1,34.85,0,26.69,26.69,0,0,0,6-7.55A37.28,37.28,0,0,0,243,107.21Zm-36.09,31.65H206a36.88,36.88,0,0,0-.45,5.79,37.46,37.46,0,0,0,23.79,34.88,26.13,26.13,0,0,0,3.58-9,27.82,27.82,0,0,1-17.72-25.92,27.42,27.42,0,0,1,.34-4.37A26.52,26.52,0,0,0,206.92,138.86Zm72.19,0a26.48,26.48,0,0,0-8.63,1.43,28.63,28.63,0,0,1,.34,4.37,27.81,27.81,0,0,1-17.73,25.92,26.35,26.35,0,0,0,3.59,9,37.48,37.48,0,0,0,23.79-34.88,38.12,38.12,0,0,0-.45-5.79Zm-42.5,11-3.52,2A29.24,29.24,0,0,1,185,184.51l-1.3.76A41.6,41.6,0,0,0,243,192a41.61,41.61,0,0,0,59.29-6.74l-1.2-.7A29.24,29.24,0,0,1,253.05,152l-3.65-2.11a8.3,8.3,0,0,1-12.79,0Z"/><g id="text6848"><path id="path11952" d="M163.59,328h1.85v8.37h-1.85Z"/><path id="path11954" d="M166.78,328h1.72l2.26,4.63V328h1.74v8.37h-1.74l-2.24-4.6v4.6h-1.74Z"/><path id="path11956" d="M180.52,333l1.62.68a5.28,5.28,0,0,1-.51,1.6,2.65,2.65,0,0,1-.88,1,2.39,2.39,0,0,1-1.32.33,3,3,0,0,1-1.6-.4,3.09,3.09,0,0,1-1.06-1.4,6.23,6.23,0,0,1-.45-2.55,5.46,5.46,0,0,1,.79-3.2,2.58,2.58,0,0,1,2.23-1.12,2.44,2.44,0,0,1,1.78.64,4,4,0,0,1,1,2l-1.63.51a2.44,2.44,0,0,0-.18-.56,1.25,1.25,0,0,0-.38-.46.83.83,0,0,0-.5-.16,1.07,1.07,0,0,0-1,.71,5.91,5.91,0,0,0,.05,3.56,1,1,0,0,0,.85.52.91.91,0,0,0,.81-.42,3.12,3.12,0,0,0,.39-1.21Z"/><path id="path11958" d="M186.72,335h-2.11l-.29,1.38h-1.89l2.25-8.37h2l2.25,8.37H187Zm-.39-1.81-.66-3-.66,3Z"/><path id="path11960" d="M189.22,333.62l1.76-.16a2.24,2.24,0,0,0,.23.92.89.89,0,0,0,.82.51.77.77,0,0,0,.61-.26,1,1,0,0,0,.21-.61,1,1,0,0,0-.2-.58,2.09,2.09,0,0,0-1-.48,3.68,3.68,0,0,1-1.74-1,2.44,2.44,0,0,1-.52-1.62,2.86,2.86,0,0,1,.27-1.22,2.05,2.05,0,0,1,.8-.9,2.81,2.81,0,0,1,1.47-.33,2.37,2.37,0,0,1,1.75.6,2.89,2.89,0,0,1,.72,1.9l-1.74.14a1.62,1.62,0,0,0-.29-.82.79.79,0,0,0-.62-.26.65.65,0,0,0-.49.19.76.76,0,0,0-.16.47.56.56,0,0,0,.14.36,1.28,1.28,0,0,0,.62.31,6.16,6.16,0,0,1,1.74.74,2.27,2.27,0,0,1,.76.93,3,3,0,0,1,.24,1.23,3.49,3.49,0,0,1-.32,1.49,2.32,2.32,0,0,1-.89,1,2.74,2.74,0,0,1-1.44.35,2.43,2.43,0,0,1-2.12-.82,4,4,0,0,1-.66-2.09Z"/><path id="path11962" d="M195.58,328h5v1.78h-3.11v1.33h2.88v1.71h-2.88v1.65h3.2v1.9h-5Z"/><path id="path11964" d="M204.19,332.21A5.36,5.36,0,0,1,205,329a2.61,2.61,0,0,1,2.27-1.15,2.65,2.65,0,0,1,2.3,1.13,5.26,5.26,0,0,1,.81,3.14,6.86,6.86,0,0,1-.35,2.41,3.37,3.37,0,0,1-1,1.46,2.62,2.62,0,0,1-1.67.52,2.91,2.91,0,0,1-1.67-.45,3.21,3.21,0,0,1-1.08-1.43A6.37,6.37,0,0,1,204.19,332.21Zm1.85,0a3.61,3.61,0,0,0,.34,1.82,1,1,0,0,0,.91.56,1,1,0,0,0,.93-.55,4.18,4.18,0,0,0,.32-1.94,3.33,3.33,0,0,0-.34-1.73,1,1,0,0,0-.92-.55,1,1,0,0,0-.9.56A3.63,3.63,0,0,0,206,332.22Z"/><path id="path11966" d="M211.41,328H216v1.8h-2.72v1.46h2.32V333h-2.32v3.42h-1.85Z"/><path id="path11968" d="M219.8,328h2.75a2.58,2.58,0,0,1,1.32.3,2.44,2.44,0,0,1,.82.89,4.33,4.33,0,0,1,.48,1.34,9.31,9.31,0,0,1,.14,1.62,8.08,8.08,0,0,1-.21,2.09,3.73,3.73,0,0,1-.61,1.23,1.94,1.94,0,0,1-.83.67,3.29,3.29,0,0,1-1.11.23H219.8Zm1.85,1.89v4.58h.46a1.42,1.42,0,0,0,.82-.18,1.2,1.2,0,0,0,.39-.63,5.48,5.48,0,0,0,.14-1.45,3.69,3.69,0,0,0-.32-1.83,1.12,1.12,0,0,0-1-.49Z"/><path id="path11970" d="M230,335h-2.11l-.29,1.38h-1.89l2.25-8.37h2l2.25,8.37h-1.94Zm-.39-1.81-.66-3-.66,3Z"/><path id="path11972" d="M232.76,328h2.44l.94,5.09.93-5.09h2.43v8.37H238V330l-1.17,6.39h-1.37L234.28,330v6.39h-1.52Z"/><path id="path11974" d="M244.36,335h-2.11l-.29,1.38h-1.89l2.25-8.37h2l2.25,8.37h-1.94ZM244,333.2l-.66-3-.66,3Z"/><path id="path11976" d="M250.19,333.36v-1.75h2.86v3.57a5.33,5.33,0,0,1-1.46,1.07,3.57,3.57,0,0,1-1.49.28,2.81,2.81,0,0,1-1.74-.51,3.17,3.17,0,0,1-1-1.51,6.59,6.59,0,0,1-.37-2.31,6.38,6.38,0,0,1,.4-2.38,3.23,3.23,0,0,1,1.19-1.54,2.9,2.9,0,0,1,1.64-.41,3.49,3.49,0,0,1,1.48.25,2.11,2.11,0,0,1,.82.78,4.36,4.36,0,0,1,.49,1.34l-1.79.45a1.44,1.44,0,0,0-.37-.73,1,1,0,0,0-.68-.25,1.12,1.12,0,0,0-1,.59,3.74,3.74,0,0,0-.36,1.87,3.89,3.89,0,0,0,.37,1.95,1.15,1.15,0,0,0,1,.58,1.37,1.37,0,0,0,.59-.13,2.67,2.67,0,0,0,.65-.43v-.78Z"/><path id="path11978" d="M254.15,328h5v1.78H256v1.33h2.88v1.71H256v1.65h3.2v1.9h-5Z"/><path id="path11980" d="M262.76,332.21a5.36,5.36,0,0,1,.82-3.19,2.61,2.61,0,0,1,2.27-1.15,2.68,2.68,0,0,1,2.31,1.13,5.34,5.34,0,0,1,.8,3.14,6.86,6.86,0,0,1-.35,2.41,3.37,3.37,0,0,1-1,1.46,2.61,2.61,0,0,1-1.66.52,2.92,2.92,0,0,1-1.68-.45,3.21,3.21,0,0,1-1.08-1.43,6.37,6.37,0,0,1-.41-2.44Zm1.85,0A3.61,3.61,0,0,0,265,334a1,1,0,0,0,.91.56,1,1,0,0,0,.93-.55,4.05,4.05,0,0,0,.32-1.94,3.33,3.33,0,0,0-.34-1.73,1,1,0,0,0-1.82,0A3.63,3.63,0,0,0,264.61,332.22Z"/><path id="path11982" d="M270,336.39V328h3.09a3.24,3.24,0,0,1,1.31.2,1.59,1.59,0,0,1,.73.76,3.14,3.14,0,0,1,.28,1.36,2.92,2.92,0,0,1-.22,1.2,2.07,2.07,0,0,1-.58.82,1.65,1.65,0,0,1-.65.33,1.89,1.89,0,0,1,.48.31,2.58,2.58,0,0,1,.3.44,3.49,3.49,0,0,1,.26.52l.89,2.43h-2.09l-1-2.56a2,2,0,0,0-.33-.65A.67.67,0,0,0,272,333h-.17v3.4Zm1.86-5h.78a1.91,1.91,0,0,0,.49-.12.5.5,0,0,0,.3-.26,1,1,0,0,0,.12-.48,1,1,0,0,0-.18-.63.93.93,0,0,0-.7-.21h-.81Z"/><path id="path11984" d="M279.27,328h1.85v6.31H284v2.06h-4.73Z"/><path id="path11986" d="M284.85,328h5v1.78H286.7v1.33h2.88v1.71H286.7v1.65h3.2v1.9h-5Z"/><path id="path11988" d="M294.58,335h-2.11l-.29,1.38h-1.89l2.25-8.37h2l2.25,8.37h-1.93Zm-.39-1.81-.66-3-.66,3Z"/><path id="path11990" d="M297.41,328h1.85v3.16L301.2,328h2.46l-2.18,3.15,2.28,5.22h-2.28l-1.27-3.45-.95,1.4v2.05h-1.85Z"/><path id="path11992" d="M308.06,335H306l-.29,1.38h-1.89L306,328h2l2.25,8.37h-1.94Zm-.39-1.81-.66-3-.66,3Z"/><path id="path11994" d="M313.89,333.36v-1.75h2.86v3.57a5.46,5.46,0,0,1-1.45,1.07,3.62,3.62,0,0,1-1.5.28,2.81,2.81,0,0,1-1.74-.51,3.24,3.24,0,0,1-1-1.51,6.59,6.59,0,0,1-.37-2.31,6.38,6.38,0,0,1,.4-2.38,3.23,3.23,0,0,1,1.19-1.54,2.9,2.9,0,0,1,1.64-.41,3.49,3.49,0,0,1,1.48.25,2.11,2.11,0,0,1,.82.78,4.36,4.36,0,0,1,.49,1.34l-1.79.45a1.44,1.44,0,0,0-.37-.73,1,1,0,0,0-.67-.25,1.1,1.1,0,0,0-1,.59,3.62,3.62,0,0,0-.37,1.87,3.89,3.89,0,0,0,.37,1.95,1.15,1.15,0,0,0,1,.58,1.34,1.34,0,0,0,.59-.13,2.67,2.67,0,0,0,.65-.43v-.78Z"/><path id="path11996" d="M317.85,328h5v1.78h-3.1v1.33h2.87v1.71h-2.87v1.65h3.19v1.9h-5Z"/><path id="path11998" d="M192,338.54h1.85v8.38H192Z"/><path id="path12000" d="M195.11,338.54h2.44l.94,5.1.93-5.1h2.43v8.38h-1.51v-6.39l-1.17,6.39H197.8l-1.17-6.39v6.39h-1.52Z"/><path id="path12002" d="M203,338.54h2.44l.94,5.1.93-5.1h2.43v8.38h-1.51v-6.39l-1.17,6.39h-1.37l-1.17-6.39v6.39H203Z"/><path id="path12004" d="M210.91,338.54h5v1.79h-3.1v1.33h2.88v1.71h-2.88V345H216v1.9h-5.05Z"/><path id="path12006" d="M217,338.54h2.74a2.55,2.55,0,0,1,1.32.31,2.36,2.36,0,0,1,.82.89,4.33,4.33,0,0,1,.48,1.34,8.41,8.41,0,0,1,.15,1.62,7.87,7.87,0,0,1-.22,2.08,3.68,3.68,0,0,1-.61,1.24,1.94,1.94,0,0,1-.83.67,3.29,3.29,0,0,1-1.11.23H217Zm1.85,1.9V345h.45a1.4,1.4,0,0,0,.82-.18,1.15,1.15,0,0,0,.39-.62,5.57,5.57,0,0,0,.14-1.46,3.82,3.82,0,0,0-.31-1.82,1.12,1.12,0,0,0-1-.49Z"/><path id="path12008" d="M223.54,338.54h1.85v8.38h-1.85Z"/><path id="path12010" d="M230.4,345.53h-2.11l-.29,1.39h-1.89l2.25-8.38h2l2.25,8.38h-1.94Zm-.39-1.81-.66-3-.66,3Z"/><path id="path12012" d="M232.8,338.54h5.62v2.07h-1.89v6.31h-1.85v-6.31H232.8Z"/><path id="path12014" d="M239.26,338.54h5v1.79h-3.11v1.33H244v1.71h-2.88V345h3.2v1.9h-5.05Z"/><path id="path12016" d="M245.31,338.54h1.85v6.31h2.89v2.07h-4.74Z"/><path id="path12018" d="M250.29,338.54h2.05l1.21,2.83,1.21-2.83h2.05l-2.33,4.87v3.51h-1.86v-3.51Z"/><path id="path12020" d="M260.2,338.54h1.73l2.26,4.63v-4.63h1.74v8.38h-1.74l-2.25-4.6v4.6H260.2Z"/><path id="path12022" d="M266.93,342.74a5.46,5.46,0,0,1,.82-3.2,2.89,2.89,0,0,1,4.58,0,5.32,5.32,0,0,1,.81,3.15,6.74,6.74,0,0,1-.36,2.4,3.19,3.19,0,0,1-1,1.47,2.65,2.65,0,0,1-1.66.52,2.94,2.94,0,0,1-1.68-.45,3.12,3.12,0,0,1-1.07-1.43,6.21,6.21,0,0,1-.42-2.44Zm1.85,0a3.73,3.73,0,0,0,.34,1.82,1,1,0,0,0,.92.55,1,1,0,0,0,.92-.54,4,4,0,0,0,.33-1.95,3.46,3.46,0,0,0-.34-1.73,1.06,1.06,0,0,0-.93-.54,1,1,0,0,0-.9.55,3.76,3.76,0,0,0-.34,1.84Z"/><path id="path12024" d="M273.72,338.54h5.63v2.07h-1.89v6.31h-1.85v-6.31h-1.89Z"/><path id="path12026" d="M280.26,338.54h1.86v8.38h-1.86Z"/><path id="path12028" d="M283.45,338.54H288v1.8h-2.71v1.46h2.32v1.69h-2.32v3.43h-1.86Z"/><path id="path12030" d="M288.42,338.54h2.06l1.21,2.83,1.21-2.83h2l-2.33,4.87v3.51h-1.86v-3.51Z"/><path id="path12032" d="M176.52,349.07h3.07a1.77,1.77,0,0,1,1.51.67,3.85,3.85,0,0,1,0,3.88,2,2,0,0,1-1.66.72h-1v3.1h-1.86Zm1.86,3.57h.45a.93.93,0,0,0,.75-.26,1,1,0,0,0,.22-.67,1.17,1.17,0,0,0-.19-.66.79.79,0,0,0-.71-.28h-.52Z"/><path id="path12034" d="M186.47,349.07h1.84v5a5.72,5.72,0,0,1-.16,1.4,3.51,3.51,0,0,1-.52,1.16,2.15,2.15,0,0,1-.74.69,2.74,2.74,0,0,1-1.3.28,6.64,6.64,0,0,1-1-.08,2,2,0,0,1-.86-.34,2.32,2.32,0,0,1-.64-.73,3,3,0,0,1-.39-1,6.63,6.63,0,0,1-.18-1.42v-5h1.85v5.11a1.82,1.82,0,0,0,.27,1.07.87.87,0,0,0,.76.39.9.9,0,0,0,.75-.38,1.85,1.85,0,0,0,.27-1.08Z"/><path id="path12036" d="M189.55,349.07H193a1.58,1.58,0,0,1,1.33.6,2.34,2.34,0,0,1,.47,1.48,2.39,2.39,0,0,1-.33,1.28.68.68,0,1,0,.3,1.3,2.7,2.7,0,0,1,.3,1.33,3.05,3.05,0,0,1-.21,1.17,2,2,0,0,1-.59.82,1.57,1.57,0,0,1-.71.28,6.47,6.47,0,0,1-.83.11h-3.19Zm1.87,3.28h.8a.76.76,0,0,0,.6-.2.91.91,0,0,0,.17-.61.84.84,0,0,0-.17-.57.71.71,0,0,0-.59-.2h-.81Zm0,3.29h.94a.85.85,0,0,0,.67-.23.93.93,0,0,0,.2-.64.88.88,0,0,0-.19-.6.87.87,0,0,0-.68-.22h-.94Z"/><path id="path12038" d="M196.05,349.07h1.85v6.31h2.89v2.06h-4.74Z"/><path id="path12040" d="M201.71,349.07h1.85v8.37h-1.85Z"/><path id="path12042" d="M208.87,354l1.63.69a5.3,5.3,0,0,1-.52,1.59,2.5,2.5,0,0,1-.87,1,2.54,2.54,0,0,1-1.33.32,2.84,2.84,0,0,1-1.59-.4,3.13,3.13,0,0,1-1.07-1.39,6.28,6.28,0,0,1-.45-2.56,5.48,5.48,0,0,1,.79-3.2,2.59,2.59,0,0,1,2.24-1.11,2.43,2.43,0,0,1,1.78.64,4,4,0,0,1,1,2l-1.64.51a1.83,1.83,0,0,0-.18-.56,1.25,1.25,0,0,0-.38-.46.85.85,0,0,0-.5-.16,1,1,0,0,0-1,.71,4,4,0,0,0-.25,1.65,4.17,4.17,0,0,0,.3,1.91.93.93,0,0,0,.85.52.89.89,0,0,0,.8-.42,3.12,3.12,0,0,0,.39-1.21Z"/><path id="path12044" d="M214.19,349.07H216V352h2v-2.93h1.86v8.37h-1.86v-3.38h-2v3.38h-1.85Z"/><path id="path12046" d="M221.16,349.07h5v1.79H223v1.33h2.88v1.71H223v1.65h3.19v1.89h-5Z"/><path id="path12048" d="M230.89,356.06h-2.11l-.29,1.38H226.6l2.25-8.37h2l2.25,8.37h-1.94Zm-.39-1.81-.66-3-.66,3Z"/><path id="path12050" d="M233.71,349.07h1.85v6.31h2.89v2.06h-4.74Z"/><path id="path12052" d="M238.87,349.07h5.63v2.07h-1.89v6.3h-1.85v-6.3h-1.89Z"/><path id="path12054" d="M245.35,349.07h1.85V352h2v-2.93h1.86v8.37h-1.86v-3.38h-2v3.38h-1.85Z"/><path id="path12056" d="M258.79,356.06h-2.1l-.29,1.38h-1.89l2.25-8.37h2l2.25,8.37h-1.93Zm-.38-1.81-.67-3-.65,3Z"/><path id="path12058" d="M265.51,349.07h1.84v5a5.72,5.72,0,0,1-.16,1.4,3.32,3.32,0,0,1-.52,1.16,2.06,2.06,0,0,1-.74.69,2.74,2.74,0,0,1-1.3.28,6.76,6.76,0,0,1-.95-.08,2,2,0,0,1-.86-.34,2.45,2.45,0,0,1-.64-.73,3,3,0,0,1-.39-1,6.56,6.56,0,0,1-.17-1.42v-5h1.84v5.11a1.82,1.82,0,0,0,.27,1.07.89.89,0,0,0,.76.39.88.88,0,0,0,.75-.38,1.85,1.85,0,0,0,.27-1.08Z"/><path id="path12060" d="M268.17,349.07h5.62v2.07h-1.88v6.3h-1.86v-6.3h-1.88Z"/><path id="path12062" d="M274.64,349.07h1.85V352h2v-2.93h1.86v8.37h-1.86v-3.38h-2v3.38h-1.85Z"/><path id="path12064" d="M281.38,353.26a5.45,5.45,0,0,1,.81-3.19,2.89,2.89,0,0,1,4.58,0,5.3,5.3,0,0,1,.81,3.14,7.1,7.1,0,0,1-.35,2.41,3.31,3.31,0,0,1-1,1.46,2.63,2.63,0,0,1-1.67.53,2.84,2.84,0,0,1-1.67-.46,3,3,0,0,1-1.08-1.42,6.24,6.24,0,0,1-.41-2.45Zm1.85,0a3.76,3.76,0,0,0,.33,1.83,1.05,1.05,0,0,0,.92.55,1,1,0,0,0,.92-.54,4,4,0,0,0,.33-1.95,3.36,3.36,0,0,0-.34-1.73,1.06,1.06,0,0,0-.93-.54,1,1,0,0,0-.89.55,3.63,3.63,0,0,0-.34,1.83Z"/><path id="path12066" d="M288.61,357.44v-8.37h3.08a3.27,3.27,0,0,1,1.32.21,1.55,1.55,0,0,1,.73.76,3.07,3.07,0,0,1,.27,1.35,3.16,3.16,0,0,1-.21,1.21,2.14,2.14,0,0,1-.58.82,2.07,2.07,0,0,1-.65.33,1.47,1.47,0,0,1,.48.31,1.93,1.93,0,0,1,.3.44,3.52,3.52,0,0,1,.26.52l.89,2.42h-2.09l-1-2.56a2.1,2.1,0,0,0-.33-.64.66.66,0,0,0-.46-.2h-.16v3.4Zm1.86-5h.78a2.37,2.37,0,0,0,.49-.11.53.53,0,0,0,.3-.26,1,1,0,0,0,.12-.49A.94.94,0,0,0,292,351a.85.85,0,0,0-.69-.22h-.81Z"/><path id="path12068" d="M295.16,349.07H297v8.37h-1.86Z"/><path id="path12070" d="M297.92,349.07h5.62v2.07h-1.88v6.3h-1.85v-6.3h-1.89Z"/><path id="path12072" d="M303.78,349.07h2.05L307,351.9l1.21-2.83h2L308,353.94v3.5h-1.86v-3.5Z"/></g></g></g></g></svg>