<svg xmlns="http://www.w3.org/2000/svg" viewBox="0 0 484.5 484.5"><defs><style>.cls-1{fill:#ffe200;}.cls-2{stroke:#000;stroke-miterlimit:2.88;fill-rule:evenodd;}</style></defs><g id="Ebene_2" data-name="Ebene 2"><g id="svg3267"><g id="g5066"><path id="rect6122" class="cls-1" d="M242.25,0,484.5,242.25,242.25,484.5,0,242.25Z"/><path id="path6124" d="M242.24,20.51,20.5,242.25,242.24,464,464,242.25Zm0,5,216.7,216.71L242.24,459,25.56,242.25Z"/><g id="text6126"><path id="path12093" d="M118,242.28q0-11.42,4.55-17.78a14.7,14.7,0,0,1,12.67-6.36q8.33,0,12.83,6.25t4.51,17.51a38.67,38.67,0,0,1-2,13.41,18.17,18.17,0,0,1-5.69,8.14,14.59,14.59,0,0,1-9.27,2.91,16.31,16.31,0,0,1-9.34-2.51,17.53,17.53,0,0,1-6-8,35.12,35.12,0,0,1-2.3-13.61Zm10.31.06q0,7.07,1.87,10.15a5.82,5.82,0,0,0,10.25.06q1.82-3,1.82-10.84,0-6.59-1.9-9.62a5.8,5.8,0,0,0-5.15-3,5.7,5.7,0,0,0-5,3.08q-1.87,3.09-1.88,10.21Z"/><path id="path12095" d="M155.89,218.93h11.36l5.91,14.35,5.73-14.35h11.24l-10.37,22.59,11.35,24H179.53l-6.57-15-6.6,15H154.85l11.51-24.3Z"/><path id="path12097" d="M194.82,218.93h10.33v46.63H194.82Z"/><path id="path12099" d="M212.65,218.93H228a13.77,13.77,0,0,1,7.32,1.72,13.46,13.46,0,0,1,4.6,4.93,24,24,0,0,1,2.64,7.48,47.45,47.45,0,0,1,.82,9,42.9,42.9,0,0,1-1.22,11.59,20.73,20.73,0,0,1-3.37,6.91,10.84,10.84,0,0,1-4.65,3.7,17.59,17.59,0,0,1-6.14,1.27H212.65ZM223,229.49V255h2.52c2.16,0,3.69-.33,4.6-1a6.64,6.64,0,0,0,2.14-3.5,30.34,30.34,0,0,0,.77-8.09q0-7.42-1.73-10.15t-5.73-2.74Z"/><path id="path12101" d="M249.14,218.93h10.33v46.63H249.14Z"/><path id="path12103" d="M266,218.93h29.16v9.32l-18.7,27.29h19.38v10H264.2v-9.67l18.5-27H266Z"/><path id="path12105" d="M300.49,218.93H328.1v10H310.81v7.41h16v9.51h-16V255H328.6v10.56H300.49Z"/><path id="path12107" d="M334.31,265.56V218.93h17.18a18.16,18.16,0,0,1,7.3,1.15,8.64,8.64,0,0,1,4.07,4.24,16.84,16.84,0,0,1,1.55,7.56,17.32,17.32,0,0,1-1.18,6.69,11.92,11.92,0,0,1-3.26,4.57,10.41,10.41,0,0,1-3.61,1.84A9.61,9.61,0,0,1,359,246.7a13.54,13.54,0,0,1,1.65,2.45,19.29,19.29,0,0,1,1.44,2.9l5,13.51H355.47L350,251.31a11.33,11.33,0,0,0-1.86-3.59,3.54,3.54,0,0,0-2.53-1.08h-.91v18.92Zm10.35-27.73H349a11.29,11.29,0,0,0,2.73-.64,2.8,2.8,0,0,0,1.67-1.46,5.57,5.57,0,0,0,.65-2.71,5.16,5.16,0,0,0-1-3.46c-.68-.81-2-1.21-3.84-1.21h-4.53Z"/></g><g id="text6132"><path id="path12110" d="M208.22,367.36h22v10.33h-14.9l-.79,7a13.26,13.26,0,0,1,3.06-1.53,9.73,9.73,0,0,1,11.11,3.73,17.46,17.46,0,0,1,3.12,10.65,24,24,0,0,1-1.61,8.69,13.89,13.89,0,0,1-4.55,6.36,12.28,12.28,0,0,1-7.54,2.19,16.33,16.33,0,0,1-5.65-.87,10.3,10.3,0,0,1-4-2.61,15,15,0,0,1-2.68-3.93,25.16,25.16,0,0,1-1.7-5.47l9.37-1.43a9.65,9.65,0,0,0,1.59,4.79,3.53,3.53,0,0,0,6.18-.42,11.9,11.9,0,0,0,1.26-6.12c0-2.78-.42-4.81-1.27-6.11a3.9,3.9,0,0,0-3.39-1.94,4.37,4.37,0,0,0-2.6.92,9,9,0,0,0-2,2.42l-7.9-1.59Z"/><path id="path12112" d="M236.49,401h9.9v13h-9.9Z"/><path id="path12114" d="M272.14,366.56V414h-9.37V382.91a25.66,25.66,0,0,1-9.74,6.78V379.06a21,21,0,0,0,7.35-5.12,21.36,21.36,0,0,0,4.09-7.38Z"/></g><path id="path3233" class="cls-2" d="M243.22,51.6c-13.24,11.24-8.73,33.32-9.53,39.65-1.49-.47-7.5-4.75-13.38-4.39,4.05,5.69,5.26,19.92,4.43,22-2.23.41-4-1.14-9-11-5.11,10-4.39,12.64-2.86,26.35-1.94-3.07-5.22-8.54-11.35-7.88,8.75,9.14,4.69,31.91,6.37,41.4a35.17,35.17,0,0,0,19.35,27.76h-26.2v4.15h82.32v-4.15H258.49A35.13,35.13,0,0,0,278,154c0-.86,0-1.7-.1-2.54v-.05c.34-15.13-4.65-26.69,5.21-32.36-7.38-.37-8.86,3.38-10.81,5.49,3.06-7.21,1.73-19.55,3.48-27.89a14,14,0,0,0-10,6.95c-.31-2-4.82-18.3-10.17-22.12-.07,3,1,7.44-1.18,12.34-2.09-.72-16.18-24.34-11.22-42.19Zm8.11,44.55c.74-.09,1.53,1.4,2,4.39.22,1.37-3.17,8.33-3.5,2.81a20,20,0,0,1,0-4.11c.37-2,.92-3,1.51-3.09Zm-7.79,4.71c0,2.38-.9,8.43.68,10.91,1.43,2.24,2.47,3.28,2.67,5.86.07.85-.1,1.24-.54,1.37-.65-.06-1.31-.1-2-.13l-.62-.1a4.54,4.54,0,0,0-1.44.09c-.52,0-1,0-1.53.06-1.13-.23-2-1.38-1.86-5.54C239,111.06,241,102,243.54,100.86Zm-13.41,9.78c.56-.24,3.61,6.33,3.43,7.79a3,3,0,0,1-1.72,2.2c-.53.17-1.06.36-1.58.56a3.74,3.74,0,0,1-1.67.07c-1.06-.4-.93-2.28-.77-3.69.19-1.59,2-.17,2.25-6.88,0,0,0,0,.06,0ZM256.57,112c.6,1.83.08,1.83,0,3.45-.05,1.3.79,3,.43,4.47-.24,1-.41,1.49-.93,1.53h0q-1.09-.43-2.22-.81s0,0,0,0a3.51,3.51,0,0,1-1.3-3.11,6.71,6.71,0,0,1,4-5.51Zm8.48,4.8a9.55,9.55,0,0,0,1.11,4.9c.83,1.61,1.52,3.59,1.36,4.72s.11,2.12-.31,2.24a35.78,35.78,0,0,0-3.53-3,4.27,4.27,0,0,1-1.23-3.29C262.4,120,263.77,117.21,265.05,116.76ZM217.56,121c1.9.23,2.69,3.27,2.7,4.17a10.29,10.29,0,0,1-1.95,3.69c-.55.54-1.08,1.09-1.59,1.66a1.86,1.86,0,0,1-1,.41c-1,0,1.29-10,1.83-9.93Zm25.33,5.23c14.67,0,26.56,12.42,26.56,27.73,0,.43,0,.86,0,1.28a.75.75,0,0,1,0,.15c0,.26,0,.52-.06.77s-.06.72-.1,1.08-.08.71-.13,1.06-.14.83-.22,1.24-.19.89-.3,1.33v0c-.09.38-.2.75-.31,1.12l-.12.42c-3.43,11.16-13.45,19.25-25.29,19.25-13.29,0-24.3-10.2-26.25-23.51-.06-.46-.13-.92-.18-1.38,0,0,0-.08,0-.12,0-.25,0-.5,0-.76,0-.05,0-.09,0-.14,0-.26,0-.5,0-.76s0-.7,0-1.06,0-1,0-1.43c.71-14.65,12.32-26.3,26.53-26.3Z"/></g></g></g></svg>