<svg xmlns="http://www.w3.org/2000/svg" viewBox="0 0 484.5 484.5"><defs><style>.cls-1{fill:#06f;}.cls-2,.cls-3{fill:#fff;}.cls-3{fill-rule:evenodd;}</style></defs><g id="Ebene_2" data-name="Ebene 2"><g id="svg3267"><g id="g6109"><path id="rect6056" class="cls-1" d="M242.25,0,484.5,242.25,242.25,484.5,0,242.25Z"/><path id="path6060" class="cls-2" d="M242.24,20.51,20.5,242.25,242.24,464,464,242.25Zm0,5,216.7,216.71L242.24,459,25.57,242.25Z"/><g id="text6062"><path id="path12118" class="cls-2" d="M243.73,420.41H226.85V409.76l16.88-28.06h8.07v28.66H256v10.05H251.8v8.72h-8.07Zm0-10.05V395.7l-8.92,14.66Z"/></g><path id="path6091" class="cls-3" d="M237.56,55.08c-2.46,2.13-3.13,6.57-3.61,10.53,0,8.35.48,16.42-2.46,20.32-3-5.88-5.6-11.08-10-11.56,3.48,7.94,2.18,21.28-2.74,36.06-1.85-3.63-4.85-11.29-9.22-12.39.95,9.85-.28,20.94-2.26,31.33a16.85,16.85,0,0,0-6.76-6.5c3.48,9.65-1,13.75.14,23.74,1.61,17.22,12.57,34,31.83,28.66-9.43-2.94-16.93-12.24-19.87-30,11.19,5.19,4.5-5,9.42-15.12,3.9,22.24,6.83,25.79,10.52,26.82-3.62-10.81-3.34-19.7-.4-27.09a35.45,35.45,0,0,0,7.58,15.46c4.71-6.29,6.69-14.71,4.71-32.91,10.31,15.25,9.63,24.63,6.08,30.52,3-.82,6.9-5.2,9.7-12.59,2.66,3.56,2,9.92-.27,17a17.22,17.22,0,0,0,5.67-3.23c-2.67,20.94-13.32,23.47-23.64,30,14.55,6.7,38.87-3.29,41.8-25.46.89-3.83-.13-9.09-1.15-13.54-1.44,3-2.27,6.64-4.73,8.15a21,21,0,0,1,2-11c2.94-12.32.89-22.64-4.91-30.92-1,6-2.26,11.21-4.93,12.58C267.22,95.37,262,82.3,255.94,78.81c.48,5.61.14,10.06-1.71,14.17-5.12-20.8-14.28-19.22-16.67-37.9Zm-26,124.32v5.36h58.21V179.4Z"/><g id="text6093"><path id="path12121" class="cls-2" d="M79.45,218.93H94.76a13.73,13.73,0,0,1,7.31,1.72,13.48,13.48,0,0,1,4.61,4.93,24.54,24.54,0,0,1,2.64,7.48,48.28,48.28,0,0,1,.82,9,42.9,42.9,0,0,1-1.22,11.59,20.74,20.74,0,0,1-3.38,6.91,10.81,10.81,0,0,1-4.64,3.7,17.67,17.67,0,0,1-6.14,1.28H79.45Zm10.3,10.56V255h2.53c2.15,0,3.68-.33,4.59-1a6.58,6.58,0,0,0,2.14-3.5,29.83,29.83,0,0,0,.78-8.09q0-7.42-1.73-10.15t-5.74-2.74Z"/><path id="path12123" class="cls-2" d="M136.05,257.87H124.31l-1.62,7.69H112.16l12.54-46.63h11.23l12.54,46.63H137.68Zm-2.16-10.09L130.2,231l-3.66,16.76Z"/><path id="path12125" class="cls-2" d="M151.81,218.93h9.62L174,244.73v-25.8h9.72v46.63H174L161.5,240v25.6h-9.69Z"/><path id="path12127" class="cls-2" d="M207.36,248.67V239h15.93v19.88a30.84,30.84,0,0,1-8.09,5.94,20.25,20.25,0,0,1-8.34,1.57,15.6,15.6,0,0,1-9.68-2.83,18.13,18.13,0,0,1-5.8-8.43,37.17,37.17,0,0,1-2.06-12.85A35.54,35.54,0,0,1,191.58,229a18,18,0,0,1,6.59-8.57q3.39-2.27,9.13-2.26c3.68,0,6.44.46,8.26,1.4a11.38,11.38,0,0,1,4.55,4.34,22.59,22.59,0,0,1,2.72,7.46l-9.94,2.48a7.88,7.88,0,0,0-2.08-4,5.22,5.22,0,0,0-3.74-1.4,6.11,6.11,0,0,0-5.4,3.29q-2,3.3-2,10.42,0,7.57,2,10.81a6.36,6.36,0,0,0,5.67,3.25,7.92,7.92,0,0,0,3.3-.7,16.1,16.1,0,0,0,3.6-2.39v-4.39Z"/><path id="path12129" class="cls-2" d="M229.43,218.93h27.62v10H239.76v7.41h16v9.51h-16V255h17.79v10.56H229.43Z"/><path id="path12131" class="cls-2" d="M263.26,265.56V218.93h17.17a18.12,18.12,0,0,1,7.3,1.15,8.61,8.61,0,0,1,4.08,4.24,16.84,16.84,0,0,1,1.54,7.56,17.14,17.14,0,0,1-1.18,6.69,11.9,11.9,0,0,1-3.25,4.57A10.47,10.47,0,0,1,285.3,245,9.69,9.69,0,0,1,288,246.7a14.23,14.23,0,0,1,1.64,2.45,19.56,19.56,0,0,1,1.45,2.9l5,13.51H284.41l-5.5-14.25a11.3,11.3,0,0,0-1.87-3.59,3.52,3.52,0,0,0-2.52-1.08h-.91v18.92Zm10.35-27.73H278a11.29,11.29,0,0,0,2.73-.64,2.77,2.77,0,0,0,1.67-1.46A5.46,5.46,0,0,0,283,233a5.21,5.21,0,0,0-1-3.46c-.68-.81-2-1.21-3.85-1.21h-4.52Z"/><path id="path12133" class="cls-2" d="M298,242.28q0-11.42,4.55-17.78a14.7,14.7,0,0,1,12.67-6.36q8.33,0,12.83,6.25t4.51,17.51a38.67,38.67,0,0,1-2,13.41,18.17,18.17,0,0,1-5.69,8.14,14.59,14.59,0,0,1-9.27,2.91,16.31,16.31,0,0,1-9.34-2.51,17.53,17.53,0,0,1-6-8A35.12,35.12,0,0,1,298,242.28Zm10.31.06q0,7.07,1.87,10.15a5.82,5.82,0,0,0,10.25.06q1.81-3,1.82-10.84,0-6.59-1.9-9.62a5.81,5.81,0,0,0-5.15-3,5.7,5.7,0,0,0-5,3.08q-1.89,3.09-1.89,10.21Z"/><path id="path12135" class="cls-2" d="M359.89,218.93h10.29v27.8a31.72,31.72,0,0,1-.93,7.81,18.78,18.78,0,0,1-2.88,6.43,12.2,12.2,0,0,1-4.13,3.86,15.5,15.5,0,0,1-7.21,1.56,32.49,32.49,0,0,1-5.32-.48A11,11,0,0,1,344.9,264a13.86,13.86,0,0,1-3.54-4,17.11,17.11,0,0,1-2.19-5.38,38,38,0,0,1-1-7.89v-27.8H348.5V247.4a10.24,10.24,0,0,0,1.51,6,5.18,5.18,0,0,0,8.37,0,10.19,10.19,0,0,0,1.51-6Z"/><path id="path12137" class="cls-2" d="M375.25,250.14l9.8-.86a13.45,13.45,0,0,0,1.3,5.09,5,5,0,0,0,4.55,2.83,4.15,4.15,0,0,0,3.4-1.45,5.27,5.27,0,0,0,.06-6.6q-1.14-1.43-5.28-2.7-6.78-2.13-9.67-5.66a13.71,13.71,0,0,1-2.91-9A15.94,15.94,0,0,1,378,225a11.41,11.41,0,0,1,4.48-5,15.69,15.69,0,0,1,8.2-1.83q6.39,0,9.75,3.32t4,10.58l-9.71.79a8.59,8.59,0,0,0-1.63-4.58,4.29,4.29,0,0,0-3.42-1.43,3.37,3.37,0,0,0-2.71,1.07,3.83,3.83,0,0,0-.91,2.59,3,3,0,0,0,.75,2,7.17,7.17,0,0,0,3.46,1.72q6.75,2,9.68,4.12a12.16,12.16,0,0,1,4.25,5.17,17.22,17.22,0,0,1,1.33,6.9,19.27,19.27,0,0,1-1.77,8.27,12.93,12.93,0,0,1-5,5.74,15,15,0,0,1-8,2q-8.5,0-11.78-4.58a21.85,21.85,0,0,1-3.71-11.64Z"/></g><g id="text6105"><path id="path12140" class="cls-2" d="M140.63,274.61h6.89L150,293l3.62-18.34h6.87L164.13,293l2.49-18.34h6.85l-5.17,32.83h-7.11l-4.12-20.67L153,307.44h-7.11Z"/><path id="path12142" class="cls-2" d="M175.89,274.61h7.26V286.1h7.93V274.61h7.29v32.83h-7.29V294.16h-7.93v13.28h-7.26Z"/><path id="path12144" class="cls-2" d="M203.21,274.61h19.44v7H210.48v5.22h11.29v6.69H210.48V300H223v7.43H203.21Z"/><path id="path12146" class="cls-2" d="M227,274.61h6.77l8.85,18.16V274.61h6.84v32.83H242.6l-8.8-18v18H227Z"/><path id="path12148" class="cls-2" d="M262.83,274.61h6.89L272.2,293l3.62-18.34h6.87L286.33,293l2.48-18.34h6.86l-5.18,32.83h-7.11l-4.12-20.67-4.1,20.67h-7.11Z"/><path id="path12150" class="cls-2" d="M298,274.61h19.45v7H305.31v5.22h11.3v6.69h-11.3V300h12.53v7.43H298Z"/><path id="path12152" class="cls-2" d="M320.11,274.61h22.06v8.1h-7.4v24.73h-7.26V282.71h-7.4Z"/></g></g></g></g></svg>